Exile.ufo
<glyph name="quotesingle" format="1">
  <unicode hex="0027"/>
  <advance width="250"/>
  <outline>
    <contour>
      <point x="25" y="771" type="line"/>
      <point x="225" y="771" type="line"/>
      <point x="225" y="411" type="line"/>
      <point x="25" y="411" type="line"/>
    </contour>
  </outline>
</glyph>
<glyph name="plus" format="1">
  <unicode hex="002B"/>
  <advance width="507"/>
  <outline>
    <contour>
      <point x="25" y="433" type="line"/>
      <point x="25" y="268" type="line"/>
      <point x="165" y="268" type="line"/>
      <point x="165" y="128" type="line"/>
      <point x="342" y="128" type="line"/>
      <point x="342" y="268" type="line"/>
      <point x="482" y="268" type="line"/>
      <point x="482" y="433" type="line"/>
      <point x="342" y="433" type="line"/>
      <point x="342" y="573" type="line"/>
      <point x="165" y="573" type="line"/>
      <point x="165" y="433" type="line"/>
    </contour>
  </outline>
</glyph>
<glyph name="slash" format="1">
  <unicode hex="002F"/>
  <advance width="399"/>
  <outline>
    <contour>
      <point x="10" y="-54" type="line"/>
      <point x="204" y="-54" type="line"/>
      <point x="389" y="747" type="line"/>
      <point x="195" y="747" type="line"/>
    </contour>
  </outline>
</glyph>
<glyph name="one" format="1">
  <unicode hex="0031"/>
  <advance width="554"/>
  <outline>
    <contour>
      <point x="88" y="0" type="line"/>
      <point x="524" y="0" type="line"/>
      <point x="524" y="170" type="line"/>
      <point x="478" y="170" type="line" smooth="yes"/>
      <point x="448" y="170"/>
      <point x="428" y="190"/>
      <point x="428" y="220" type="curve" smooth="yes"/>
      <point x="428" y="406" type="line"/>
      <point x="228" y="306" type="line"/>
      <point x="228" y="220" type="line" smooth="yes"/>
      <point x="228" y="190"/>
      <point x="208" y="170"/>
      <point x="178" y="170" type="curve" smooth="yes"/>
      <point x="88" y="170" type="line"/>
    </contour>
    <contour>
      <point x="193" y="375" type="curve" smooth="yes"/>
      <point x="356" y="375"/>
      <point x="429" y="505"/>
      <point x="429" y="700" type="curve"/>
      <point x="309" y="700" type="line"/>
      <point x="309" y="597"/>
      <point x="276" y="523"/>
      <point x="232" y="523" type="curve" smooth="yes"/>
      <point x="214" y="523"/>
      <point x="202" y="535"/>
      <point x="202" y="548" type="curve" smooth="yes"/>
      <point x="202" y="558"/>
      <point x="208" y="569"/>
      <point x="228" y="569" type="curve"/>
      <point x="228" y="630"/>
      <point x="192" y="674"/>
      <point x="129" y="674" type="curve" smooth="yes"/>
      <point x="52" y="674"/>
      <point x="10" y="608"/>
      <point x="10" y="535" type="curve" smooth="yes"/>
      <point x="10" y="447"/>
      <point x="72" y="375"/>
    </contour>
  </outline>
</glyph>
<glyph name="four" format="1">
  <unicode hex="0034"/>
  <advance width="665"/>
  <outline>
    <contour>
      <point x="329" y="170" type="line" smooth="yes"/>
      <point x="359" y="170"/>
      <point x="379" y="190"/>
      <point x="379" y="220" type="curve" smooth="yes"/>
      <point x="379" y="700" type="line"/>
      <point x="635" y="700" type="line"/>
      <point x="635" y="530" type="line"/>
      <point x="629" y="530" type="line" smooth="yes"/>
      <point x="599" y="530"/>
      <point x="579" y="510"/>
      <point x="579" y="480" type="curve" smooth="yes"/>
      <point x="579" y="220" type="line" smooth="yes"/>
      <point x="579" y="190"/>
      <point x="599" y="170"/>
      <point x="629" y="170" type="curve" smooth="yes"/>
      <point x="635" y="170" type="line"/>
      <point x="635" y="0" type="line"/>
      <point x="279" y="0" type="line"/>
      <point x="279" y="170" type="line"/>
    </contour>
    <contour>
      <point x="10" y="247" type="line"/>
      <point x="11" y="377" type="line"/>
      <point x="109" y="377"/>
      <point x="189" y="430"/>
      <point x="189" y="491" type="curve" smooth="yes"/>
      <point x="189" y="522"/>
      <point x="168" y="541"/>
      <point x="148" y="541" type="curve" smooth="yes"/>
      <point x="133" y="541"/>
      <point x="120" y="529"/>
      <point x="120" y="517" type="curve"/>
      <point x="60" y="517"/>
      <point x="20" y="555"/>
      <point x="20" y="612" type="curve" smooth="yes"/>
      <point x="20" y="676"/>
      <point x="71" y="718"/>
      <point x="150" y="719" type="curve" smooth="yes"/>
      <point x="255" y="720"/>
      <point x="338" y="642"/>
      <point x="338" y="538" type="curve" smooth="yes"/>
      <point x="338" y="487"/>
      <point x="318" y="413"/>
      <point x="244" y="377" type="curve"/>
      <point x="319" y="377" type="line"/>
      <point x="319" y="247" type="line"/>
    </contour>
  </outline>
</glyph>
<glyph name="five" format="1">
  <unicode hex="0035"/>
  <advance width="641"/>
  <outline>
    <contour>
      <point x="324" y="-18" type="curve" smooth="yes"/>
      <point x="498" y="-18"/>
      <point x="621" y="74"/>
      <point x="621" y="197" type="curve" smooth="yes"/>
      <point x="621" y="317"/>
      <point x="502" y="383"/>
      <point x="290" y="383" type="curve"/>
      <point x="290" y="309" type="line"/>
      <point x="351" y="309"/>
      <point x="394" y="267"/>
      <point x="394" y="215" type="curve" smooth="yes"/>
      <point x="394" y="170"/>
      <point x="361" y="145"/>
      <point x="310" y="145" type="curve" smooth="yes"/>
      <point x="262" y="145"/>
      <point x="228" y="167"/>
      <point x="228" y="195" type="curve" smooth="yes"/>
      <point x="228" y="209"/>
      <point x="238" y="226"/>
      <point x="257" y="226" type="curve"/>
      <point x="257" y="304"/>
      <point x="216" y="352"/>
      <point x="150" y="352" type="curve" smooth="yes"/>
      <point x="76" y="352"/>
      <point x="21" y="293"/>
      <point x="20" y="211" type="curve" smooth="yes"/>
      <point x="18" y="87"/>
      <point x="139" y="-18"/>
    </contour>
    <contour>
      <point x="244" y="403" type="line"/>
      <point x="244" y="551" type="line"/>
      <point x="279" y="451"/>
      <point x="374" y="413"/>
      <point x="439" y="413" type="curve" smooth="yes"/>
      <point x="532" y="413"/>
      <point x="607" y="491"/>
      <point x="606" y="593" type="curve" smooth="yes"/>
      <point x="605" y="663"/>
      <point x="563" y="718"/>
      <point x="485" y="718" type="curve" smooth="yes"/>
      <point x="428" y="718"/>
      <point x="380" y="683"/>
      <point x="380" y="624" type="curve"/>
      <point x="392" y="624"/>
      <point x="403" y="607"/>
      <point x="403" y="590" type="curve" smooth="yes"/>
      <point x="403" y="567"/>
      <point x="380" y="550"/>
      <point x="353" y="550" type="curve" smooth="yes"/>
      <point x="290" y="550"/>
      <point x="251" y="641"/>
      <point x="244" y="688" type="curve"/>
      <point x="244" y="700" type="line"/>
      <point x="84" y="700" type="line"/>
      <point x="84" y="403" type="line"/>
    </contour>
  </outline>
</glyph>
<glyph name="seven" format="1">
  <unicode hex="0037"/>
  <advance width="542"/>
  <outline>
    <contour>
      <point x="170" y="700" type="line"/>
      <point x="10" y="700" type="line"/>
      <point x="10" y="423" type="line"/>
      <point x="170" y="423" type="line"/>
      <point x="170" y="551" type="line"/>
      <point x="205" y="451"/>
      <point x="300" y="413"/>
      <point x="365" y="413" type="curve" smooth="yes"/>
      <point x="458" y="413"/>
      <point x="533" y="491"/>
      <point x="532" y="593" type="curve" smooth="yes"/>
      <point x="531" y="663"/>
      <point x="489" y="718"/>
      <point x="411" y="718" type="curve" smooth="yes"/>
      <point x="354" y="718"/>
      <point x="306" y="683"/>
      <point x="306" y="624" type="curve"/>
      <point x="318" y="624"/>
      <point x="329" y="607"/>
      <point x="329" y="590" type="curve" smooth="yes"/>
      <point x="329" y="567"/>
      <point x="306" y="550"/>
      <point x="279" y="550" type="curve" smooth="yes"/>
      <point x="216" y="550"/>
      <point x="177" y="641"/>
      <point x="170" y="688" type="curve"/>
    </contour>
    <contour>
      <point x="116" y="170" type="curve" smooth="yes"/>
      <point x="66" y="170" type="line"/>
      <point x="66" y="0" type="line"/>
      <point x="422" y="0" type="line"/>
      <point x="422" y="170" type="line"/>
      <point x="416" y="170" type="line" smooth="yes"/>
      <point x="386" y="170"/>
      <point x="372" y="189"/>
      <point x="381" y="218" type="curve" smooth="yes"/>
      <point x="426" y="361" type="line"/>
      <point x="233" y="361" type="line"/>
      <point x="183" y="217" type="line" smooth="yes"/>
      <point x="173" y="189"/>
      <point x="146" y="170"/>
    </contour>
  </outline>
</glyph>
<glyph name="less" format="1">
  <unicode hex="003C"/>
  <advance width="532"/>
  <outline>
    <contour>
      <point x="25" y="305" type="curve" smooth="yes"/>
      <point x="24" y="248"/>
      <point x="69" y="208"/>
      <point x="123" y="208" type="curve" smooth="yes"/>
      <point x="173" y="208"/>
      <point x="214" y="242"/>
      <point x="214" y="294" type="curve"/>
      <point x="204" y="294"/>
      <point x="197" y="299"/>
      <point x="197" y="308" type="curve" smooth="yes"/>
      <point x="197" y="316"/>
      <point x="203" y="323"/>
      <point x="211" y="326" type="curve" smooth="yes"/>
      <point x="427" y="425" type="line" smooth="yes"/>
      <point x="473" y="446"/>
      <point x="507" y="485"/>
      <point x="507" y="539" type="curve" smooth="yes"/>
      <point x="507" y="594"/>
      <point x="471" y="643"/>
      <point x="412" y="641" type="curve" smooth="yes"/>
      <point x="360" y="640"/>
      <point x="321" y="601"/>
      <point x="321" y="554" type="curve"/>
      <point x="329" y="554"/>
      <point x="339" y="549"/>
      <point x="339" y="540" type="curve" smooth="yes"/>
      <point x="339" y="533"/>
      <point x="332" y="526"/>
      <point x="325" y="523" type="curve" smooth="yes"/>
      <point x="104" y="422" type="line"/>
      <point x="60" y="401"/>
      <point x="26" y="354"/>
    </contour>
    <contour>
      <point x="195" y="153" type="line"/>
      <point x="331" y="75" type="line" smooth="yes"/>
      <point x="351" y="64"/>
      <point x="375" y="57"/>
      <point x="400" y="57" type="curve" smooth="yes"/>
      <point x="461" y="57"/>
      <point x="507" y="99"/>
      <point x="507" y="157" type="curve" smooth="yes"/>
      <point x="507" y="211"/>
      <point x="467" y="254"/>
      <point x="418" y="254" type="curve" smooth="yes"/>
      <point x="401" y="254"/>
      <point x="385" y="250"/>
      <point x="371" y="239" type="curve"/>
      <point x="374" y="235"/>
      <point x="376" y="231"/>
      <point x="376" y="227" type="curve" smooth="yes"/>
      <point x="376" y="219"/>
      <point x="368" y="215"/>
      <point x="360" y="215" type="curve"/>
      <point x="360" y="215"/>
      <point x="352" y="215"/>
      <point x="346" y="218" type="curve" smooth="yes"/>
      <point x="260" y="268" type="line"/>
    </contour>
  </outline>
</glyph>
<glyph name="equal" format="1">
  <unicode hex="003D"/>
  <advance width="507"/>
  <outline>
    <contour>
      <point x="25" y="156" type="line"/>
      <point x="482" y="156" type="line"/>
      <point x="482" y="321" type="line"/>
      <point x="25" y="321" type="line"/>
    </contour>
    <contour>
      <point x="25" y="536" type="line"/>
      <point x="25" y="371" type="line"/>
      <point x="482" y="371" type="line"/>
      <point x="482" y="536" type="line"/>
    </contour>
  </outline>
</glyph>
<glyph name="B" format="1">
  <unicode hex="0042"/>
  <advance width="719"/>
  <outline>
    <contour>
      <point x="30" y="488" type="curve" smooth="yes"/>
      <point x="30" y="392"/>
      <point x="100" y="330"/>
      <point x="181" y="330" type="curve" smooth="yes"/>
      <point x="251" y="330"/>
      <point x="293" y="376"/>
      <point x="293" y="426" type="curve" smooth="yes"/>
      <point x="293" y="448"/>
      <point x="285" y="466"/>
      <point x="274" y="480" type="curve"/>
      <point x="271" y="478"/>
      <point x="268" y="477"/>
      <point x="264" y="477" type="curve" smooth="yes"/>
      <point x="253" y="477"/>
      <point x="242" y="489"/>
      <point x="242" y="504" type="curve" smooth="yes"/>
      <point x="242" y="533"/>
      <point x="281" y="556"/>
      <point x="331" y="556" type="curve" smooth="yes"/>
      <point x="391" y="556"/>
      <point x="436" y="524"/>
      <point x="436" y="479" type="curve" smooth="yes"/>
      <point x="436" y="435"/>
      <point x="394" y="394"/>
      <point x="334" y="394" type="curve"/>
      <point x="334" y="351" type="line"/>
      <point x="334" y="327" type="line"/>
      <point x="426" y="327"/>
      <point x="471" y="301"/>
      <point x="471" y="250" type="curve" smooth="yes"/>
      <point x="471" y="202"/>
      <point x="431" y="175"/>
      <point x="344" y="171" type="curve"/>
      <point x="344" y="0" type="line"/>
      <point x="572" y="3"/>
      <point x="699" y="63"/>
      <point x="699" y="190" type="curve" smooth="yes"/>
      <point x="699" y="287"/>
      <point x="633" y="348"/>
      <point x="514" y="376" type="curve"/>
      <point x="592" y="403"/>
      <point x="634" y="451"/>
      <point x="634" y="514" type="curve" smooth="yes"/>
      <point x="634" y="628"/>
      <point x="500" y="718"/>
      <point x="329" y="718" type="curve" smooth="yes"/>
      <point x="158" y="718"/>
      <point x="30" y="617"/>
    </contour>
    <contour>
      <point x="88" y="220" type="line" smooth="yes"/>
      <point x="88" y="190"/>
      <point x="68" y="170"/>
      <point x="38" y="170" type="curve" smooth="yes"/>
      <point x="32" y="170" type="line"/>
      <point x="32" y="0" type="line"/>
      <point x="288" y="0" type="line"/>
      <point x="288" y="295" type="line"/>
      <point x="88" y="295" type="line"/>
    </contour>
  </outline>
</glyph>
<glyph name="S" format="1">
  <unicode hex="0053"/>
  <advance width="642"/>
  <outline>
    <contour>
      <point x="190" y="0" type="line"/>
      <point x="190" y="137" type="line"/>
      <point x="227" y="16"/>
      <point x="324" y="-18"/>
      <point x="400" y="-18" type="curve" smooth="yes"/>
      <point x="531" y="-18"/>
      <point x="622" y="85"/>
      <point x="622" y="213" type="curve" smooth="yes"/>
      <point x="622" y="322"/>
      <point x="557" y="398"/>
      <point x="454" y="398" type="curve" smooth="yes"/>
      <point x="345" y="398"/>
      <point x="300" y="319"/>
      <point x="319" y="260" type="curve"/>
      <point x="341" y="266"/>
      <point x="357" y="248"/>
      <point x="357" y="223" type="curve" smooth="yes"/>
      <point x="357" y="190"/>
      <point x="331" y="167"/>
      <point x="291" y="167" type="curve" smooth="yes"/>
      <point x="219" y="167"/>
      <point x="190" y="240"/>
      <point x="190" y="302" type="curve"/>
      <point x="190" y="303" type="line"/>
      <point x="30" y="303" type="line"/>
      <point x="30" y="0" type="line"/>
    </contour>
    <contour>
      <point x="30" y="526" type="curve" smooth="yes"/>
      <point x="31" y="426"/>
      <point x="99" y="356"/>
      <point x="189" y="356" type="curve" smooth="yes"/>
      <point x="271" y="356"/>
      <point x="309" y="414"/>
      <point x="297" y="472" type="curve"/>
      <point x="277" y="464"/>
      <point x="257" y="476"/>
      <point x="257" y="503" type="curve" smooth="yes"/>
      <point x="257" y="537"/>
      <point x="287" y="556"/>
      <point x="322" y="556" type="curve" smooth="yes"/>
      <point x="398" y="556"/>
      <point x="411" y="467"/>
      <point x="411" y="439" type="curve"/>
      <point x="571" y="439" type="line"/>
      <point x="571" y="700" type="line"/>
      <point x="411" y="700" type="line"/>
      <point x="411" y="583" type="line"/>
      <point x="379" y="686"/>
      <point x="297" y="718"/>
      <point x="225" y="718" type="curve" smooth="yes"/>
      <point x="111" y="718"/>
      <point x="29" y="636"/>
    </contour>
    <contour>
      <point x="316" y="750" type="move" name="top"/>
    </contour>
  </outline>
</glyph>
<glyph name="X" format="1">
  <unicode hex="0058"/>
  <advance width="697"/>
  <outline>
    <contour>
      <point x="238" y="177" type="curve" smooth="yes"/>
      <point x="238" y="156"/>
      <point x="260" y="140"/>
      <point x="278" y="156" type="curve"/>
      <point x="317" y="96"/>
      <point x="286" y="-18"/>
      <point x="162" y="-18" type="curve" smooth="yes"/>
      <point x="72" y="-18"/>
      <point x="10" y="42"/>
      <point x="10" y="120" type="curve" smooth="yes"/>
      <point x="10" y="190"/>
      <point x="59" y="252"/>
      <point x="197" y="333" type="curve"/>
      <point x="264" y="217" type="line"/>
      <point x="246" y="203"/>
      <point x="238" y="190"/>
    </contour>
    <contour>
      <point x="474" y="536" type="curve" smooth="yes"/>
      <point x="474" y="556"/>
      <point x="453" y="570"/>
      <point x="436" y="556" type="curve"/>
      <point x="400" y="612"/>
      <point x="439" y="718"/>
      <point x="549" y="718" type="curve" smooth="yes"/>
      <point x="629" y="718"/>
      <point x="687" y="662"/>
      <point x="687" y="589" type="curve" smooth="yes"/>
      <point x="687" y="524"/>
      <point x="641" y="466"/>
      <point x="512" y="390" type="curve"/>
      <point x="449" y="499" type="line"/>
      <point x="466" y="512"/>
      <point x="474" y="524"/>
    </contour>
    <contour>
      <point x="155" y="487" type="line" smooth="yes"/>
      <point x="140" y="513"/>
      <point x="110" y="530"/>
      <point x="80" y="530" type="curve" smooth="yes"/>
      <point x="45" y="530" type="line"/>
      <point x="45" y="700" type="line"/>
      <point x="287" y="700" type="line"/>
      <point x="567" y="213" type="line" smooth="yes"/>
      <point x="582" y="187"/>
      <point x="612" y="170"/>
      <point x="642" y="170" type="curve" smooth="yes"/>
      <point x="668" y="170" type="line"/>
      <point x="669" y="0" type="line"/>
      <point x="435" y="0" type="line"/>
    </contour>
  </outline>
</glyph>
<glyph name="bracketleft" format="1">
  <unicode hex="005B"/>
  <advance width="308"/>
  <outline>
    <contour>
      <point x="272" y="577" type="line" smooth="yes"/>
      <point x="242" y="577"/>
      <point x="222" y="557"/>
      <point x="222" y="527" type="curve" smooth="yes"/>
      <point x="222" y="311" type="line"/>
      <point x="22" y="311" type="line"/>
      <point x="22" y="747" type="line"/>
      <point x="278" y="747" type="line"/>
      <point x="278" y="577" type="line"/>
    </contour>
    <contour>
      <point x="278" y="140" type="line"/>
      <point x="278" y="-31" type="line"/>
      <point x="22" y="-31" type="line"/>
      <point x="22" y="397" type="line"/>
      <point x="222" y="397" type="line"/>
      <point x="222" y="190" type="line" smooth="yes"/>
      <point x="222" y="160"/>
      <point x="242" y="140"/>
      <point x="272" y="140" type="curve" smooth="yes"/>
    </contour>
  </outline>
</glyph>
<glyph name="backslash" format="1">
  <unicode hex="005C"/>
  <advance width="399"/>
  <outline>
    <contour>
      <point x="389" y="-54" type="line"/>
      <point x="195" y="-54" type="line"/>
      <point x="10" y="747" type="line"/>
      <point x="204" y="747" type="line"/>
    </contour>
  </outline>
</glyph>
<glyph name="underscore" format="1">
  <unicode hex="005F"/>
  <advance width="507"/>
  <outline>
    <contour>
      <point x="25" y="-165" type="line"/>
      <point x="482" y="-165" type="line"/>
      <point x="482" y="0" type="line"/>
      <point x="25" y="0" type="line"/>
    </contour>
  </outline>
</glyph>
<glyph name="d" format="1">
  <unicode hex="0064"/>
  <advance width="751"/>
  <outline>
    <contour>
      <point x="30" y="0" type="line"/>
      <point x="30" y="170" type="line"/>
      <point x="36" y="170" type="line" smooth="yes"/>
      <point x="66" y="170"/>
      <point x="86" y="190"/>
      <point x="86" y="220" type="curve" smooth="yes"/>
      <point x="86" y="480" type="line" smooth="yes"/>
      <point x="86" y="510"/>
      <point x="66" y="530"/>
      <point x="36" y="530" type="curve" smooth="yes"/>
      <point x="30" y="530" type="line"/>
      <point x="30" y="700" type="line"/>
      <point x="286" y="700" type="line"/>
      <point x="286" y="271" type="line" smooth="yes"/>
      <point x="286" y="205"/>
      <point x="339" y="145"/>
      <point x="398" y="145" type="curve" smooth="yes"/>
      <point x="466" y="145"/>
      <point x="504" y="221"/>
      <point x="504" y="379" type="curve" smooth="yes"/>
      <point x="504" y="493"/>
      <point x="484" y="556"/>
      <point x="444" y="556" type="curve" smooth="yes"/>
      <point x="433" y="556"/>
      <point x="427" y="551"/>
      <point x="427" y="542" type="curve" smooth="yes"/>
      <point x="427" y="538"/>
      <point x="428" y="534"/>
      <point x="431" y="530" type="curve"/>
      <point x="419" y="522"/>
      <point x="405" y="518"/>
      <point x="391" y="518" type="curve" smooth="yes"/>
      <point x="355" y="518"/>
      <point x="319" y="542"/>
      <point x="319" y="596" type="curve" smooth="yes"/>
      <point x="319" y="670"/>
      <point x="388" y="718"/>
      <point x="483" y="718" type="curve" smooth="yes"/>
      <point x="631" y="718"/>
      <point x="731" y="600"/>
      <point x="731" y="368" type="curve" smooth="yes"/>
      <point x="731" y="126"/>
      <point x="623" y="-18"/>
      <point x="469" y="-18" type="curve" smooth="yes"/>
      <point x="376" y="-18"/>
      <point x="313" y="34"/>
      <point x="286" y="98" type="curve"/>
      <point x="286" y="0" type="line"/>
    </contour>
  </outline>
</glyph>
<glyph name="braceleft" format="1">
  <unicode hex="007B"/>
  <advance width="481"/>
  <outline>
    <contour>
      <point x="25" y="418" type="curve" smooth="yes"/>
      <point x="10" y="418" type="line"/>
      <point x="10" y="286" type="line"/>
      <point x="100" y="286" type="line" smooth="yes"/>
      <point x="207" y="286"/>
      <point x="277" y="352"/>
      <point x="277" y="434" type="curve" smooth="yes"/>
      <point x="277" y="576"/>
      <point x="292" y="619"/>
      <point x="334" y="619" type="curve" smooth="yes"/>
      <point x="352" y="619"/>
      <point x="364" y="611"/>
      <point x="364" y="598" type="curve" smooth="yes"/>
      <point x="364" y="594"/>
      <point x="362" y="587"/>
      <point x="359" y="583" type="curve"/>
      <point x="371" y="575"/>
      <point x="385" y="571"/>
      <point x="399" y="571" type="curve" smooth="yes"/>
      <point x="435" y="571"/>
      <point x="471" y="595"/>
      <point x="471" y="650" type="curve" smooth="yes"/>
      <point x="471" y="723"/>
      <point x="409" y="771"/>
      <point x="323" y="771" type="curve" smooth="yes"/>
      <point x="189" y="771"/>
      <point x="103" y="681"/>
      <point x="103" y="478" type="curve" smooth="yes"/>
      <point x="103" y="440"/>
      <point x="84" y="418"/>
    </contour>
    <contour>
      <point x="277" y="261" type="curve"/>
      <point x="103" y="261" type="line"/>
      <point x="94" y="43"/>
      <point x="182" y="-54"/>
      <point x="323" y="-54" type="curve" smooth="yes"/>
      <point x="409" y="-54"/>
      <point x="471" y="-6"/>
      <point x="471" y="67" type="curve" smooth="yes"/>
      <point x="471" y="122"/>
      <point x="435" y="146"/>
      <point x="399" y="146" type="curve" smooth="yes"/>
      <point x="385" y="146"/>
      <point x="371" y="142"/>
      <point x="359" y="134" type="curve"/>
      <point x="362" y="130"/>
      <point x="364" y="123"/>
      <point x="364" y="119" type="curve" smooth="yes"/>
      <point x="364" y="106"/>
      <point x="352" y="98"/>
      <point x="334" y="98" type="curve" smooth="yes"/>
      <point x="291" y="98"/>
      <point x="277" y="141"/>
    </contour>
  </outline>
</glyph>
<glyph name="bar" format="1">
  <unicode hex="007C"/>
  <advance width="244"/>
  <outline>
    <contour>
      <point x="22" y="751" type="line"/>
      <point x="22" y="-34" type="line"/>
      <point x="222" y="-34" type="line"/>
      <point x="222" y="751" type="line"/>
    </contour>
  </outline>
</glyph>
<glyph name="yen" format="1">
  <unicode hex="00A5"/>
  <advance width="714"/>
  <outline>
    <contour>
      <point x="10" y="182" type="curve" smooth="yes"/>
      <point x="10" y="73"/>
      <point x="84" y="-18"/>
      <point x="253" y="-18" type="curve" smooth="yes"/>
      <point x="353" y="-18"/>
      <point x="424" y="29"/>
      <point x="481" y="133" type="curve" smooth="yes"/>
      <point x="513" y="191" type="line"/>
      <point x="699" y="191" type="line"/>
      <point x="699" y="276" type="line"/>
      <point x="560" y="276" type="line"/>
      <point x="445" y="276" type="line"/>
      <point x="374" y="276" type="line"/>
      <point x="326" y="187" type="line" smooth="yes"/>
      <point x="311" y="160"/>
      <point x="293" y="145"/>
      <point x="273" y="145" type="curve" smooth="yes"/>
      <point x="255" y="145"/>
      <point x="238" y="158"/>
      <point x="238" y="179" type="curve" smooth="yes"/>
      <point x="238" y="196"/>
      <point x="249" y="210"/>
      <point x="262" y="210" type="curve" smooth="yes"/>
      <point x="265" y="210"/>
      <point x="268" y="209"/>
      <point x="270" y="208" type="curve"/>
      <point x="274" y="216"/>
      <point x="275" y="223"/>
      <point x="275" y="233" type="curve" smooth="yes"/>
      <point x="275" y="285"/>
      <point x="239" y="350"/>
      <point x="158" y="350" type="curve" smooth="yes"/>
      <point x="77" y="350"/>
      <point x="10" y="285"/>
    </contour>
    <contour>
      <point x="540" y="336" type="line"/>
      <point x="593" y="336" type="line"/>
      <point x="699" y="336" type="line"/>
      <point x="699" y="421" type="line"/>
      <point x="640" y="421" type="line"/>
      <point x="663" y="462" type="line" smooth="yes"/>
      <point x="692" y="515"/>
      <point x="704" y="557"/>
      <point x="704" y="593" type="curve" smooth="yes"/>
      <point x="704" y="670"/>
      <point x="649" y="718"/>
      <point x="576" y="718" type="curve" smooth="yes"/>
      <point x="506" y="718"/>
      <point x="455" y="674"/>
      <point x="455" y="612" type="curve" smooth="yes"/>
      <point x="455" y="580"/>
      <point x="468" y="559"/>
      <point x="481" y="546" type="curve"/>
      <point x="486" y="551"/>
      <point x="490" y="554"/>
      <point x="497" y="554" type="curve" smooth="yes"/>
      <point x="502" y="554"/>
      <point x="509" y="548"/>
      <point x="509" y="538" type="curve" smooth="yes"/>
      <point x="509" y="527"/>
      <point x="502" y="513"/>
      <point x="481" y="474" type="curve" smooth="yes"/>
      <point x="406" y="336" type="line"/>
    </contour>
    <contour>
      <point x="81" y="700" type="line"/>
      <point x="81" y="530" type="line"/>
      <point x="97" y="530" type="line" smooth="yes"/>
      <point x="115" y="530"/>
      <point x="134" y="520"/>
      <point x="145" y="506" type="curve" smooth="yes"/>
      <point x="317" y="282" type="line"/>
      <point x="410" y="451" type="line"/>
      <point x="378" y="491" type="line" smooth="yes"/>
      <point x="359" y="514"/>
      <point x="367" y="530"/>
      <point x="397" y="530" type="curve" smooth="yes"/>
      <point x="413" y="530" type="line"/>
      <point x="413" y="700" type="line"/>
    </contour>
  </outline>
</glyph>
<glyph name="guillemotleft" format="1">
  <unicode hex="00AB"/>
  <advance width="721"/>
  <outline>
    <contour>
      <point x="10" y="323" type="curve"/>
      <point x="53" y="227"/>
      <point x="128" y="77"/>
      <point x="256" y="77" type="curve" smooth="yes"/>
      <point x="319" y="77"/>
      <point x="371" y="113"/>
      <point x="371" y="174" type="curve" smooth="yes"/>
      <point x="371" y="224"/>
      <point x="337" y="262"/>
      <point x="296" y="262" type="curve" smooth="yes"/>
      <point x="284" y="262"/>
      <point x="268" y="259"/>
      <point x="254" y="252" type="curve"/>
      <point x="257" y="248"/>
      <point x="258" y="245"/>
      <point x="258" y="241" type="curve" smooth="yes"/>
      <point x="258" y="231"/>
      <point x="251" y="223"/>
      <point x="241" y="223" type="curve" smooth="yes"/>
      <point x="219" y="223"/>
      <point x="187" y="259"/>
      <point x="157" y="323" type="curve"/>
      <point x="187" y="387"/>
      <point x="219" y="423"/>
      <point x="241" y="423" type="curve" smooth="yes"/>
      <point x="251" y="423"/>
      <point x="258" y="415"/>
      <point x="258" y="405" type="curve" smooth="yes"/>
      <point x="258" y="401"/>
      <point x="257" y="398"/>
      <point x="254" y="394" type="curve"/>
      <point x="268" y="387"/>
      <point x="284" y="384"/>
      <point x="296" y="384" type="curve" smooth="yes"/>
      <point x="337" y="384"/>
      <point x="371" y="422"/>
      <point x="371" y="472" type="curve" smooth="yes"/>
      <point x="371" y="533"/>
      <point x="319" y="569"/>
      <point x="256" y="569" type="curve" smooth="yes"/>
      <point x="128" y="569"/>
      <point x="53" y="419"/>
    </contour>
    <contour>
      <point x="350" y="323" type="curve"/>
      <point x="393" y="227"/>
      <point x="468" y="77"/>
      <point x="596" y="77" type="curve" smooth="yes"/>
      <point x="659" y="77"/>
      <point x="711" y="113"/>
      <point x="711" y="174" type="curve" smooth="yes"/>
      <point x="711" y="224"/>
      <point x="677" y="262"/>
      <point x="636" y="262" type="curve" smooth="yes"/>
      <point x="624" y="262"/>
      <point x="608" y="259"/>
      <point x="594" y="252" type="curve"/>
      <point x="597" y="248"/>
      <point x="598" y="245"/>
      <point x="598" y="241" type="curve" smooth="yes"/>
      <point x="598" y="231"/>
      <point x="591" y="223"/>
      <point x="581" y="223" type="curve" smooth="yes"/>
      <point x="559" y="223"/>
      <point x="527" y="259"/>
      <point x="497" y="323" type="curve"/>
      <point x="527" y="387"/>
      <point x="559" y="423"/>
      <point x="581" y="423" type="curve" smooth="yes"/>
      <point x="591" y="423"/>
      <point x="598" y="415"/>
      <point x="598" y="405" type="curve" smooth="yes"/>
      <point x="598" y="401"/>
      <point x="597" y="398"/>
      <point x="594" y="394" type="curve"/>
      <point x="608" y="387"/>
      <point x="624" y="384"/>
      <point x="636" y="384" type="curve" smooth="yes"/>
      <point x="677" y="384"/>
      <point x="711" y="422"/>
      <point x="711" y="472" type="curve" smooth="yes"/>
      <point x="711" y="533"/>
      <point x="659" y="569"/>
      <point x="596" y="569" type="curve" smooth="yes"/>
      <point x="468" y="569"/>
      <point x="393" y="419"/>
    </contour>
  </outline>
</glyph>
<glyph name="registered" format="1">
  <unicode hex="00AE"/>
  <advance width="884"/>
  <outline>
    <contour>
      <point x="255" y="448" type="curve" smooth="yes"/>
      <point x="255" y="391"/>
      <point x="297" y="353"/>
      <point x="346" y="353" type="curve" smooth="yes"/>
      <point x="389" y="353"/>
      <point x="415" y="381"/>
      <point x="415" y="413" type="curve" smooth="yes"/>
      <point x="415" y="425"/>
      <point x="410" y="436"/>
      <point x="403" y="444" type="curve"/>
      <point x="395" y="438"/>
      <point x="384" y="447"/>
      <point x="384" y="459" type="curve" smooth="yes"/>
      <point x="384" y="476"/>
      <point x="406" y="490"/>
      <point x="434" y="490" type="curve" smooth="yes"/>
      <point x="469" y="490"/>
      <point x="496" y="467"/>
      <point x="496" y="438" type="curve" smooth="yes"/>
      <point x="496" y="407"/>
      <point x="469" y="380"/>
      <point x="433" y="380" type="curve"/>
      <point x="433" y="350" type="line" smooth="yes"/>
      <point x="433" y="347"/>
      <point x="433" y="344"/>
      <point x="433" y="341" type="curve"/>
      <point x="435" y="225"/>
      <point x="483" y="145"/>
      <point x="558" y="145" type="curve" smooth="yes"/>
      <point x="611" y="145"/>
      <point x="648" y="184"/>
      <point x="648" y="237" type="curve" smooth="yes"/>
      <point x="648" y="290"/>
      <point x="611" y="319"/>
      <point x="575" y="319" type="curve" smooth="yes"/>
      <point x="555" y="319"/>
      <point x="535" y="311"/>
      <point x="517" y="294" type="curve"/>
      <point x="522" y="287"/>
      <point x="524" y="282"/>
      <point x="524" y="278" type="curve" smooth="yes"/>
      <point x="524" y="271"/>
      <point x="518" y="266"/>
      <point x="511" y="266" type="curve" smooth="yes"/>
      <point x="493" y="266"/>
      <point x="482" y="295"/>
      <point x="482" y="344" type="curve"/>
      <point x="571" y="355"/>
      <point x="628" y="394"/>
      <point x="628" y="456" type="curve" smooth="yes"/>
      <point x="628" y="530"/>
      <point x="545" y="589"/>
      <point x="440" y="589" type="curve" smooth="yes"/>
      <point x="334" y="589"/>
      <point x="255" y="528"/>
    </contour>
    <contour>
      <point x="292" y="286" type="line" smooth="yes"/>
      <point x="292" y="268"/>
      <point x="279" y="256"/>
      <point x="261" y="256" type="curve" smooth="yes"/>
      <point x="258" y="256" type="line"/>
      <point x="258" y="152" type="line"/>
      <point x="407" y="152" type="line"/>
      <point x="407" y="326" type="line"/>
      <point x="292" y="326" type="line"/>
    </contour>
    <contour>
      <point x="192" y="479" type="line"/>
      <point x="225" y="594"/>
      <point x="311" y="649"/>
      <point x="450" y="649" type="curve" smooth="yes"/>
      <point x="567" y="649"/>
      <point x="714" y="570"/>
      <point x="714" y="440" type="curve" smooth="yes"/>
      <point x="714" y="418"/>
      <point x="710" y="411"/>
      <point x="700" y="411" type="curve" smooth="yes"/>
      <point x="694" y="411"/>
      <point x="688" y="414"/>
      <point x="685" y="420" type="curve"/>
      <point x="667" y="411"/>
      <point x="659" y="389"/>
      <point x="659" y="366" type="curve" smooth="yes"/>
      <point x="659" y="315"/>
      <point x="700" y="276"/>
      <point x="758" y="276" type="curve" smooth="yes"/>
      <point x="826" y="276"/>
      <point x="864" y="331"/>
      <point x="864" y="417" type="curve" smooth="yes"/>
      <point x="864" y="608"/>
      <point x="679" y="771"/>
      <point x="448" y="771" type="curve" smooth="yes"/>
      <point x="222" y="771"/>
      <point x="77" y="670"/>
      <point x="37" y="479" type="curve"/>
    </contour>
    <contour>
      <point x="692" y="229" type="line"/>
      <point x="659" y="114"/>
      <point x="573" y="59"/>
      <point x="434" y="59" type="curve" smooth="yes"/>
      <point x="317" y="59"/>
      <point x="170" y="138"/>
      <point x="170" y="268" type="curve" smooth="yes"/>
      <point x="170" y="290"/>
      <point x="174" y="297"/>
      <point x="184" y="297" type="curve" smooth="yes"/>
      <point x="190" y="297"/>
      <point x="196" y="294"/>
      <point x="199" y="288" type="curve"/>
      <point x="217" y="297"/>
      <point x="225" y="319"/>
      <point x="225" y="342" type="curve" smooth="yes"/>
      <point x="225" y="393"/>
      <point x="184" y="432"/>
      <point x="126" y="432" type="curve" smooth="yes"/>
      <point x="58" y="432"/>
      <point x="20" y="377"/>
      <point x="20" y="291" type="curve" smooth="yes"/>
      <point x="20" y="100"/>
      <point x="205" y="-63"/>
      <point x="436" y="-63" type="curve" smooth="yes"/>
      <point x="662" y="-63"/>
      <point x="807" y="38"/>
      <point x="847" y="229" type="curve"/>
    </contour>
  </outline>
</glyph>
<glyph name="macron" format="1">
  <unicode hex="00AF"/>
  <advance width="500"/>
  <outline>
    <contour>
      <point x="25" y="951" type="line"/>
      <point x="482" y="951" type="line"/>
      <point x="482" y="786" type="line"/>
      <point x="25" y="786" type="line"/>
    </contour>
  </outline>
</glyph>
<glyph name="plusminus" format="1">
  <unicode hex="00B1"/>
  <advance width="501"/>
  <outline>
    <contour>
      <point x="22" y="368" type="line"/>
      <point x="162" y="368" type="line"/>
      <point x="162" y="228" type="line"/>
      <point x="339" y="228" type="line"/>
      <point x="339" y="368" type="line"/>
      <point x="479" y="368" type="line"/>
      <point x="479" y="533" type="line"/>
      <point x="339" y="533" type="line"/>
      <point x="339" y="673" type="line"/>
      <point x="162" y="673" type="line"/>
      <point x="162" y="533" type="line"/>
      <point x="22" y="533" type="line"/>
    </contour>
    <contour>
      <point x="479" y="27" type="line"/>
      <point x="479" y="192" type="line"/>
      <point x="22" y="192" type="line"/>
      <point x="22" y="27" type="line"/>
    </contour>
  </outline>
</glyph>
<glyph name="periodcentered" format="1">
  <unicode hex="00B7"/>
  <advance width="309"/>
  <outline>
    <contour>
      <point x="25" y="351" type="curve" smooth="yes"/>
      <point x="25" y="422"/>
      <point x="77" y="470"/>
      <point x="155" y="470" type="curve" smooth="yes"/>
      <point x="232" y="470"/>
      <point x="284" y="422"/>
      <point x="284" y="351" type="curve" smooth="yes"/>
      <point x="284" y="279"/>
      <point x="232" y="231"/>
      <point x="155" y="231" type="curve" smooth="yes"/>
      <point x="77" y="231"/>
      <point x="25" y="279"/>
    </contour>
  </outline>
</glyph>
<glyph name="guillemotright" format="1">
  <unicode hex="00BB"/>
  <advance width="721"/>
  <outline>
    <contour>
      <point x="350" y="472" type="curve" smooth="yes"/>
      <point x="350" y="533"/>
      <point x="402" y="569"/>
      <point x="465" y="569" type="curve" smooth="yes"/>
      <point x="593" y="569"/>
      <point x="668" y="419"/>
      <point x="711" y="323" type="curve"/>
      <point x="668" y="227"/>
      <point x="593" y="77"/>
      <point x="465" y="77" type="curve" smooth="yes"/>
      <point x="402" y="77"/>
      <point x="350" y="113"/>
      <point x="350" y="174" type="curve" smooth="yes"/>
      <point x="350" y="224"/>
      <point x="384" y="262"/>
      <point x="425" y="262" type="curve" smooth="yes"/>
      <point x="437" y="262"/>
      <point x="453" y="259"/>
      <point x="467" y="252" type="curve"/>
      <point x="464" y="248"/>
      <point x="463" y="245"/>
      <point x="463" y="241" type="curve" smooth="yes"/>
      <point x="463" y="231"/>
      <point x="470" y="223"/>
      <point x="480" y="223" type="curve" smooth="yes"/>
      <point x="502" y="223"/>
      <point x="534" y="259"/>
      <point x="564" y="323" type="curve"/>
      <point x="534" y="387"/>
      <point x="502" y="423"/>
      <point x="480" y="423" type="curve" smooth="yes"/>
      <point x="470" y="423"/>
      <point x="463" y="415"/>
      <point x="463" y="405" type="curve" smooth="yes"/>
      <point x="463" y="401"/>
      <point x="464" y="398"/>
      <point x="467" y="394" type="curve"/>
      <point x="453" y="387"/>
      <point x="437" y="384"/>
      <point x="425" y="384" type="curve" smooth="yes"/>
      <point x="384" y="384"/>
      <point x="350" y="422"/>
    </contour>
    <contour>
      <point x="10" y="472" type="curve" smooth="yes"/>
      <point x="10" y="533"/>
      <point x="62" y="569"/>
      <point x="125" y="569" type="curve" smooth="yes"/>
      <point x="253" y="569"/>
      <point x="328" y="419"/>
      <point x="371" y="323" type="curve"/>
      <point x="328" y="227"/>
      <point x="253" y="77"/>
      <point x="125" y="77" type="curve" smooth="yes"/>
      <point x="62" y="77"/>
      <point x="10" y="113"/>
      <point x="10" y="174" type="curve" smooth="yes"/>
      <point x="10" y="224"/>
      <point x="44" y="262"/>
      <point x="85" y="262" type="curve" smooth="yes"/>
      <point x="97" y="262"/>
      <point x="113" y="259"/>
      <point x="127" y="252" type="curve"/>
      <point x="124" y="248"/>
      <point x="123" y="245"/>
      <point x="123" y="241" type="curve" smooth="yes"/>
      <point x="123" y="231"/>
      <point x="130" y="223"/>
      <point x="140" y="223" type="curve" smooth="yes"/>
      <point x="162" y="223"/>
      <point x="194" y="259"/>
      <point x="224" y="323" type="curve"/>
      <point x="194" y="387"/>
      <point x="162" y="423"/>
      <point x="140" y="423" type="curve" smooth="yes"/>
      <point x="130" y="423"/>
      <point x="123" y="415"/>
      <point x="123" y="405" type="curve" smooth="yes"/>
      <point x="123" y="401"/>
      <point x="124" y="398"/>
      <point x="127" y="394" type="curve"/>
      <point x="113" y="387"/>
      <point x="97" y="384"/>
      <point x="85" y="384" type="curve" smooth="yes"/>
      <point x="44" y="384"/>
      <point x="10" y="422"/>
    </contour>
  </outline>
</glyph>
<glyph name="Acircumflex" format="1">
  <unicode hex="00C2"/>
  <advance width="751"/>
  <outline>
    <contour>
      <point x="153" y="530" type="line" smooth="yes"/>
      <point x="183" y="530"/>
      <point x="198" y="511"/>
      <point x="190" y="482" type="curve" smooth="yes"/>
      <point x="163" y="378" type="line"/>
      <point x="343" y="378" type="line"/>
      <point x="373" y="491" type="line"/>
      <point x="441" y="219" type="line" smooth="yes"/>
      <point x="448" y="190"/>
      <point x="433" y="170"/>
      <point x="403" y="170" type="curve" smooth="yes"/>
      <point x="397" y="170" type="line"/>
      <point x="397" y="0" type="line"/>
      <point x="741" y="0" type="line"/>
      <point x="741" y="170" type="line"/>
      <point x="715" y="170" type="line" smooth="yes"/>
      <point x="685" y="170"/>
      <point x="660" y="189"/>
      <point x="653" y="218" type="curve" smooth="yes"/>
      <point x="586" y="482" type="line" smooth="yes"/>
      <point x="579" y="511"/>
      <point x="594" y="530"/>
      <point x="624" y="530" type="curve" smooth="yes"/>
      <point x="630" y="530" type="line"/>
      <point x="630" y="700" type="line"/>
      <point x="137" y="700" type="line"/>
      <point x="137" y="530" type="line"/>
    </contour>
    <contour>
      <point x="10" y="143" type="curve" smooth="yes"/>
      <point x="10" y="44"/>
      <point x="91" y="-18"/>
      <point x="191" y="-18" type="curve" smooth="yes"/>
      <point x="273" y="-18"/>
      <point x="349" y="24"/>
      <point x="349" y="101" type="curve" smooth="yes"/>
      <point x="349" y="164"/>
      <point x="305" y="200"/>
      <point x="244" y="200" type="curve"/>
      <point x="244" y="180"/>
      <point x="233" y="174"/>
      <point x="223" y="174" type="curve" smooth="yes"/>
      <point x="210" y="174"/>
      <point x="198" y="183"/>
      <point x="198" y="201" type="curve" smooth="yes"/>
      <point x="198" y="215"/>
      <point x="205" y="252"/>
      <point x="369" y="252" type="curve"/>
      <point x="369" y="336" type="line"/>
      <point x="138" y="336"/>
      <point x="10" y="267"/>
    </contour>
    <contour>
      <point x="237" y="748" type="curve" smooth="yes"/>
      <point x="286" y="748"/>
      <point x="324" y="779"/>
      <point x="324" y="816" type="curve" smooth="yes"/>
      <point x="324" y="828"/>
      <point x="321" y="842"/>
      <point x="314" y="855" type="curve"/>
      <point x="310" y="852"/>
      <point x="307" y="851"/>
      <point x="303" y="851" type="curve" smooth="yes"/>
      <point x="293" y="851"/>
      <point x="285" y="858"/>
      <point x="285" y="868" type="curve" smooth="yes"/>
      <point x="285" y="890"/>
      <point x="321" y="922"/>
      <point x="385" y="952" type="curve"/>
      <point x="449" y="922"/>
      <point x="485" y="890"/>
      <point x="485" y="868" type="curve" smooth="yes"/>
      <point x="485" y="858"/>
      <point x="477" y="851"/>
      <point x="467" y="851" type="curve" smooth="yes"/>
      <point x="463" y="851"/>
      <point x="460" y="852"/>
      <point x="456" y="855" type="curve"/>
      <point x="449" y="842"/>
      <point x="446" y="828"/>
      <point x="446" y="816" type="curve" smooth="yes"/>
      <point x="446" y="779"/>
      <point x="484" y="748"/>
      <point x="533" y="748" type="curve" smooth="yes"/>
      <point x="595" y="748"/>
      <point x="631" y="799"/>
      <point x="631" y="860" type="curve" smooth="yes"/>
      <point x="631" y="984"/>
      <point x="481" y="1037"/>
      <point x="385" y="1079" type="curve"/>
      <point x="289" y="1037"/>
      <point x="139" y="984"/>
      <point x="139" y="860" type="curve" smooth="yes"/>
      <point x="139" y="799"/>
      <point x="175" y="748"/>
    </contour>
  </outline>
</glyph>
<glyph name="Eacute" format="1">
  <unicode hex="00C9"/>
  <advance width="648"/>
  <outline>
    <contour>
      <point x="25.0082" y="162" type="curve" smooth="yes"/>
      <point x="25.0082" y="62"/>
      <point x="121.008" y="-18"/>
      <point x="313.008" y="-18" type="curve" smooth="yes"/>
      <point x="506.008" y="-18"/>
      <point x="628.008" y="63"/>
      <point x="628.008" y="253" type="curve"/>
      <point x="436.008" y="253" type="line"/>
      <point x="431.008" y="184"/>
      <point x="372.008" y="164"/>
      <point x="330.008" y="164" type="curve" smooth="yes"/>
      <point x="289.008" y="164"/>
      <point x="262.008" y="183"/>
      <point x="262.008" y="209" type="curve" smooth="yes"/>
      <point x="262.008" y="260"/>
      <point x="338.008" y="306"/>
      <point x="551.008" y="306" type="curve"/>
      <point x="551.008" y="390" type="line"/>
      <point x="210.008" y="390"/>
      <point x="25.0082" y="302"/>
    </contour>
    <contour>
      <point x="25.0082" y="524" type="curve" smooth="yes"/>
      <point x="26.0082" y="440"/>
      <point x="84.0082" y="378"/>
      <point x="171.008" y="378" type="curve" smooth="yes"/>
      <point x="236.008" y="378"/>
      <point x="292.008" y="412"/>
      <point x="292.008" y="474" type="curve"/>
      <point x="280.008" y="474"/>
      <point x="268.008" y="490"/>
      <point x="268.008" y="508" type="curve" smooth="yes"/>
      <point x="268.008" y="535"/>
      <point x="295.008" y="554"/>
      <point x="331.008" y="554" type="curve" smooth="yes"/>
      <point x="394.008" y="554"/>
      <point x="436.008" y="494"/>
      <point x="436.008" y="451" type="curve"/>
      <point x="596.008" y="451" type="line"/>
      <point x="596.008" y="700" type="line"/>
      <point x="436.008" y="700" type="line"/>
      <point x="436.008" y="583" type="line"/>
      <point x="400.008" y="691"/>
      <point x="299.008" y="718"/>
      <point x="233.008" y="718" type="curve" smooth="yes"/>
      <point x="115.008" y="718"/>
      <point x="24.0082" y="631"/>
    </contour>
    <contour>
      <point x="191.008" y="825" type="curve"/>
      <point x="191.008" y="750" type="line"/>
      <point x="397.008" y="750"/>
      <point x="511.008" y="820"/>
      <point x="509.008" y="946" type="curve" smooth="yes"/>
      <point x="508.008" y="1030"/>
      <point x="457.008" y="1085"/>
      <point x="383.008" y="1085" type="curve" smooth="yes"/>
      <point x="317.008" y="1085"/>
      <point x="264.008" y="1041"/>
      <point x="264.008" y="988" type="curve" smooth="yes"/>
      <point x="264.008" y="969"/>
      <point x="272.008" y="951"/>
      <point x="286.008" y="938" type="curve"/>
      <point x="291.008" y="943"/>
      <point x="296.008" y="945"/>
      <point x="302.008" y="945" type="curve" smooth="yes"/>
      <point x="319.008" y="945"/>
      <point x="332.008" y="928"/>
      <point x="332.008" y="905" type="curve" smooth="yes"/>
      <point x="332.008" y="858"/>
      <point x="275.008" y="825"/>
    </contour>
  </outline>
</glyph>
<glyph name="Icircumflex" format="1">
  <unicode hex="00CE"/>
  <advance width="372"/>
  <outline>
    <contour>
      <point x="36" y="530" type="line" smooth="yes"/>
      <point x="66" y="530"/>
      <point x="86" y="510"/>
      <point x="86" y="480" type="curve" smooth="yes"/>
      <point x="86" y="220" type="line" smooth="yes"/>
      <point x="86" y="190"/>
      <point x="66" y="170"/>
      <point x="36" y="170" type="curve" smooth="yes"/>
      <point x="30" y="170" type="line"/>
      <point x="30" y="0" type="line"/>
      <point x="342" y="0" type="line"/>
      <point x="342" y="170" type="line"/>
      <point x="336" y="170" type="line" smooth="yes"/>
      <point x="306" y="170"/>
      <point x="286" y="190"/>
      <point x="286" y="220" type="curve" smooth="yes"/>
      <point x="286" y="480" type="line" smooth="yes"/>
      <point x="286" y="510"/>
      <point x="306" y="530"/>
      <point x="336" y="530" type="curve" smooth="yes"/>
      <point x="342" y="530" type="line"/>
      <point x="342" y="700" type="line"/>
      <point x="30" y="700" type="line"/>
      <point x="30" y="530" type="line"/>
    </contour>
    <contour>
      <point x="38" y="748" type="curve" smooth="yes"/>
      <point x="87" y="748"/>
      <point x="125" y="779"/>
      <point x="125" y="816" type="curve" smooth="yes"/>
      <point x="125" y="828"/>
      <point x="122" y="842"/>
      <point x="115" y="855" type="curve"/>
      <point x="111" y="852"/>
      <point x="108" y="851"/>
      <point x="104" y="851" type="curve" smooth="yes"/>
      <point x="94" y="851"/>
      <point x="86" y="858"/>
      <point x="86" y="868" type="curve" smooth="yes"/>
      <point x="86" y="890"/>
      <point x="122" y="922"/>
      <point x="186" y="952" type="curve"/>
      <point x="250" y="922"/>
      <point x="286" y="890"/>
      <point x="286" y="868" type="curve" smooth="yes"/>
      <point x="286" y="858"/>
      <point x="278" y="851"/>
      <point x="268" y="851" type="curve" smooth="yes"/>
      <point x="264" y="851"/>
      <point x="261" y="852"/>
      <point x="257" y="855" type="curve"/>
      <point x="250" y="842"/>
      <point x="247" y="828"/>
      <point x="247" y="816" type="curve" smooth="yes"/>
      <point x="247" y="779"/>
      <point x="285" y="748"/>
      <point x="334" y="748" type="curve" smooth="yes"/>
      <point x="396" y="748"/>
      <point x="432" y="799"/>
      <point x="432" y="860" type="curve" smooth="yes"/>
      <point x="432" y="984"/>
      <point x="282" y="1037"/>
      <point x="186" y="1079" type="curve"/>
      <point x="90" y="1037"/>
      <point x="-60" y="984"/>
      <point x="-60" y="860" type="curve" smooth="yes"/>
      <point x="-60" y="799"/>
      <point x="-24" y="748"/>
    </contour>
  </outline>
</glyph>
<glyph name="Idieresis" format="1">
  <unicode hex="00CF"/>
  <advance width="372"/>
  <outline>
    <contour>
      <point x="36" y="530" type="line" smooth="yes"/>
      <point x="66" y="530"/>
      <point x="86" y="510"/>
      <point x="86" y="480" type="curve" smooth="yes"/>
      <point x="86" y="220" type="line" smooth="yes"/>
      <point x="86" y="190"/>
      <point x="66" y="170"/>
      <point x="36" y="170" type="curve" smooth="yes"/>
      <point x="30" y="170" type="line"/>
      <point x="30" y="0" type="line"/>
      <point x="342" y="0" type="line"/>
      <point x="342" y="170" type="line"/>
      <point x="336" y="170" type="line" smooth="yes"/>
      <point x="306" y="170"/>
      <point x="286" y="190"/>
      <point x="286" y="220" type="curve" smooth="yes"/>
      <point x="286" y="480" type="line" smooth="yes"/>
      <point x="286" y="510"/>
      <point x="306" y="530"/>
      <point x="336" y="530" type="curve" smooth="yes"/>
      <point x="342" y="530" type="line"/>
      <point x="342" y="700" type="line"/>
      <point x="30" y="700" type="line"/>
      <point x="30" y="530" type="line"/>
    </contour>
    <contour>
      <point x="-92" y="870" type="curve" smooth="yes"/>
      <point x="-92" y="798"/>
      <point x="-40" y="750"/>
      <point x="39" y="750" type="curve" smooth="yes"/>
      <point x="116" y="750"/>
      <point x="168" y="798"/>
      <point x="168" y="870" type="curve" smooth="yes"/>
      <point x="168" y="941"/>
      <point x="116" y="989"/>
      <point x="39" y="989" type="curve" smooth="yes"/>
      <point x="-40" y="989"/>
      <point x="-92" y="941"/>
    </contour>
    <contour>
      <point x="205" y="870" type="curve" smooth="yes"/>
      <point x="205" y="798"/>
      <point x="257" y="750"/>
      <point x="335" y="750" type="curve" smooth="yes"/>
      <point x="412" y="750"/>
      <point x="464" y="798"/>
      <point x="464" y="870" type="curve" smooth="yes"/>
      <point x="464" y="941"/>
      <point x="412" y="989"/>
      <point x="335" y="989" type="curve" smooth="yes"/>
      <point x="257" y="989"/>
      <point x="205" y="941"/>
    </contour>
  </outline>
</glyph>
<glyph name="Ograve" format="1">
  <unicode hex="00D2"/>
  <advance width="676"/>
  <outline>
    <contour>
      <point x="264" y="466" type="line"/>
      <point x="274" y="520"/>
      <point x="305" y="555"/>
      <point x="356" y="555" type="curve" smooth="yes"/>
      <point x="398" y="555"/>
      <point x="441" y="532"/>
      <point x="441" y="484" type="curve" smooth="yes"/>
      <point x="441" y="462"/>
      <point x="432" y="444"/>
      <point x="417" y="444" type="curve" smooth="yes"/>
      <point x="411" y="444"/>
      <point x="406" y="446"/>
      <point x="403" y="449" type="curve"/>
      <point x="387" y="429"/>
      <point x="380" y="405"/>
      <point x="380" y="380" type="curve" smooth="yes"/>
      <point x="380" y="315"/>
      <point x="430" y="272"/>
      <point x="504" y="272" type="curve" smooth="yes"/>
      <point x="596" y="272"/>
      <point x="656" y="339"/>
      <point x="656" y="441" type="curve" smooth="yes"/>
      <point x="656" y="581"/>
      <point x="542" y="718"/>
      <point x="341" y="718" type="curve" smooth="yes"/>
      <point x="165" y="718"/>
      <point x="49" y="629"/>
      <point x="31" y="466" type="curve"/>
    </contour>
    <contour>
      <point x="412" y="234" type="line"/>
      <point x="402" y="180"/>
      <point x="371" y="145"/>
      <point x="320" y="145" type="curve" smooth="yes"/>
      <point x="278" y="145"/>
      <point x="235" y="168"/>
      <point x="235" y="216" type="curve" smooth="yes"/>
      <point x="235" y="238"/>
      <point x="244" y="256"/>
      <point x="259" y="256" type="curve" smooth="yes"/>
      <point x="265" y="256"/>
      <point x="270" y="254"/>
      <point x="273" y="251" type="curve"/>
      <point x="289" y="271"/>
      <point x="296" y="295"/>
      <point x="296" y="320" type="curve" smooth="yes"/>
      <point x="296" y="385"/>
      <point x="246" y="428"/>
      <point x="172" y="428" type="curve" smooth="yes"/>
      <point x="80" y="428"/>
      <point x="20" y="361"/>
      <point x="20" y="259" type="curve" smooth="yes"/>
      <point x="20" y="119"/>
      <point x="134" y="-18"/>
      <point x="335" y="-18" type="curve" smooth="yes"/>
      <point x="511" y="-18"/>
      <point x="627" y="71"/>
      <point x="645" y="234" type="curve"/>
    </contour>
    <contour>
      <point x="481" y="825" type="line"/>
      <point x="397" y="825"/>
      <point x="340" y="858"/>
      <point x="340" y="905" type="curve" smooth="yes"/>
      <point x="340" y="928"/>
      <point x="353" y="945"/>
      <point x="370" y="945" type="curve" smooth="yes"/>
      <point x="376" y="945"/>
      <point x="381" y="943"/>
      <point x="386" y="938" type="curve"/>
      <point x="400" y="951"/>
      <point x="408" y="969"/>
      <point x="408" y="988" type="curve" smooth="yes"/>
      <point x="408" y="1041"/>
      <point x="355" y="1085"/>
      <point x="289" y="1085" type="curve" smooth="yes"/>
      <point x="215" y="1085"/>
      <point x="164" y="1030"/>
      <point x="163" y="946" type="curve" smooth="yes"/>
      <point x="161" y="820"/>
      <point x="275" y="750"/>
      <point x="481" y="750" type="curve"/>
    </contour>
    <contour>
      <point x="335" y="750" type="move" name="top"/>
    </contour>
  </outline>
</glyph>
<glyph name="Ugrave" format="1">
  <unicode hex="00D9"/>
  <advance width="709"/>
  <outline>
    <contour>
      <point x="22" y="530" type="line"/>
      <point x="28" y="530" type="line" smooth="yes"/>
      <point x="58" y="530"/>
      <point x="78" y="510"/>
      <point x="78" y="480" type="curve" smooth="yes"/>
      <point x="78" y="259" type="line" smooth="yes"/>
      <point x="78" y="84"/>
      <point x="189" y="-18"/>
      <point x="362" y="-18" type="curve" smooth="yes"/>
      <point x="537" y="-18"/>
      <point x="646" y="87"/>
      <point x="646" y="237" type="curve" smooth="yes"/>
      <point x="646" y="333"/>
      <point x="602" y="392"/>
      <point x="532" y="392" type="curve" smooth="yes"/>
      <point x="481" y="392"/>
      <point x="445" y="360"/>
      <point x="445" y="317" type="curve" smooth="yes"/>
      <point x="445" y="301"/>
      <point x="450" y="286"/>
      <point x="461" y="268" type="curve"/>
      <point x="465" y="271"/>
      <point x="469" y="273"/>
      <point x="474" y="273" type="curve" smooth="yes"/>
      <point x="485" y="273"/>
      <point x="489" y="262"/>
      <point x="489" y="244" type="curve" smooth="yes"/>
      <point x="489" y="186"/>
      <point x="447" y="145"/>
      <point x="385" y="145" type="curve" smooth="yes"/>
      <point x="318" y="145"/>
      <point x="278" y="194"/>
      <point x="278" y="279" type="curve" smooth="yes"/>
      <point x="278" y="480" type="line" smooth="yes"/>
      <point x="278" y="510"/>
      <point x="298" y="530"/>
      <point x="328" y="530" type="curve" smooth="yes"/>
      <point x="334" y="530" type="line"/>
      <point x="334" y="700" type="line"/>
      <point x="22" y="700" type="line"/>
    </contour>
    <contour>
      <point x="435" y="530" type="line"/>
      <point x="441" y="530" type="line" smooth="yes"/>
      <point x="471" y="530"/>
      <point x="491" y="510"/>
      <point x="491" y="480" type="curve" smooth="yes"/>
      <point x="491" y="431" type="line"/>
      <point x="631" y="431" type="line"/>
      <point x="631" y="480" type="line" smooth="yes"/>
      <point x="631" y="510"/>
      <point x="651" y="530"/>
      <point x="681" y="530" type="curve" smooth="yes"/>
      <point x="687" y="530" type="line"/>
      <point x="687" y="700" type="line"/>
      <point x="435" y="700" type="line"/>
    </contour>
    <contour>
      <point x="510" y="825" type="line"/>
      <point x="426" y="825"/>
      <point x="369" y="858"/>
      <point x="369" y="905" type="curve" smooth="yes"/>
      <point x="369" y="928"/>
      <point x="382" y="945"/>
      <point x="399" y="945" type="curve" smooth="yes"/>
      <point x="405" y="945"/>
      <point x="410" y="943"/>
      <point x="415" y="938" type="curve"/>
      <point x="429" y="951"/>
      <point x="437" y="969"/>
      <point x="437" y="988" type="curve" smooth="yes"/>
      <point x="437" y="1041"/>
      <point x="384" y="1085"/>
      <point x="318" y="1085" type="curve" smooth="yes"/>
      <point x="244" y="1085"/>
      <point x="193" y="1030"/>
      <point x="192" y="946" type="curve" smooth="yes"/>
      <point x="190" y="820"/>
      <point x="304" y="750"/>
      <point x="510" y="750" type="curve"/>
    </contour>
  </outline>
</glyph>
<glyph name="Ucircumflex" format="1">
  <unicode hex="00DB"/>
  <advance width="709"/>
  <outline>
    <contour>
      <point x="22" y="530" type="line"/>
      <point x="28" y="530" type="line" smooth="yes"/>
      <point x="58" y="530"/>
      <point x="78" y="510"/>
      <point x="78" y="480" type="curve" smooth="yes"/>
      <point x="78" y="259" type="line" smooth="yes"/>
      <point x="78" y="84"/>
      <point x="189" y="-18"/>
      <point x="362" y="-18" type="curve" smooth="yes"/>
      <point x="537" y="-18"/>
      <point x="646" y="87"/>
      <point x="646" y="237" type="curve" smooth="yes"/>
      <point x="646" y="333"/>
      <point x="602" y="392"/>
      <point x="532" y="392" type="curve" smooth="yes"/>
      <point x="481" y="392"/>
      <point x="445" y="360"/>
      <point x="445" y="317" type="curve" smooth="yes"/>
      <point x="445" y="301"/>
      <point x="450" y="286"/>
      <point x="461" y="268" type="curve"/>
      <point x="465" y="271"/>
      <point x="469" y="273"/>
      <point x="474" y="273" type="curve" smooth="yes"/>
      <point x="485" y="273"/>
      <point x="489" y="262"/>
      <point x="489" y="244" type="curve" smooth="yes"/>
      <point x="489" y="186"/>
      <point x="447" y="145"/>
      <point x="385" y="145" type="curve" smooth="yes"/>
      <point x="318" y="145"/>
      <point x="278" y="194"/>
      <point x="278" y="279" type="curve" smooth="yes"/>
      <point x="278" y="480" type="line" smooth="yes"/>
      <point x="278" y="510"/>
      <point x="298" y="530"/>
      <point x="328" y="530" type="curve" smooth="yes"/>
      <point x="334" y="530" type="line"/>
      <point x="334" y="700" type="line"/>
      <point x="22" y="700" type="line"/>
    </contour>
    <contour>
      <point x="435" y="530" type="line"/>
      <point x="441" y="530" type="line" smooth="yes"/>
      <point x="471" y="530"/>
      <point x="491" y="510"/>
      <point x="491" y="480" type="curve" smooth="yes"/>
      <point x="491" y="431" type="line"/>
      <point x="631" y="431" type="line"/>
      <point x="631" y="480" type="line" smooth="yes"/>
      <point x="631" y="510"/>
      <point x="651" y="530"/>
      <point x="681" y="530" type="curve" smooth="yes"/>
      <point x="687" y="530" type="line"/>
      <point x="687" y="700" type="line"/>
      <point x="435" y="700" type="line"/>
    </contour>
    <contour>
      <point x="212" y="748" type="curve" smooth="yes"/>
      <point x="261" y="748"/>
      <point x="299" y="779"/>
      <point x="299" y="816" type="curve" smooth="yes"/>
      <point x="299" y="828"/>
      <point x="296" y="842"/>
      <point x="289" y="855" type="curve"/>
      <point x="285" y="852"/>
      <point x="282" y="851"/>
      <point x="278" y="851" type="curve" smooth="yes"/>
      <point x="268" y="851"/>
      <point x="260" y="858"/>
      <point x="260" y="868" type="curve" smooth="yes"/>
      <point x="260" y="890"/>
      <point x="296" y="922"/>
      <point x="360" y="952" type="curve"/>
      <point x="424" y="922"/>
      <point x="460" y="890"/>
      <point x="460" y="868" type="curve" smooth="yes"/>
      <point x="460" y="858"/>
      <point x="452" y="851"/>
      <point x="442" y="851" type="curve" smooth="yes"/>
      <point x="438" y="851"/>
      <point x="435" y="852"/>
      <point x="431" y="855" type="curve"/>
      <point x="424" y="842"/>
      <point x="421" y="828"/>
      <point x="421" y="816" type="curve" smooth="yes"/>
      <point x="421" y="779"/>
      <point x="459" y="748"/>
      <point x="508" y="748" type="curve" smooth="yes"/>
      <point x="570" y="748"/>
      <point x="606" y="799"/>
      <point x="606" y="860" type="curve" smooth="yes"/>
      <point x="606" y="984"/>
      <point x="456" y="1037"/>
      <point x="360" y="1079" type="curve"/>
      <point x="264" y="1037"/>
      <point x="114" y="984"/>
      <point x="114" y="860" type="curve" smooth="yes"/>
      <point x="114" y="799"/>
      <point x="150" y="748"/>
    </contour>
  </outline>
</glyph>
<glyph name="Thorn" format="1">
  <unicode hex="00DE"/>
  <advance width="704"/>
  <outline>
    <contour>
      <point x="446" y="102" type="curve" smooth="yes"/>
      <point x="371" y="102"/>
      <point x="306" y="134"/>
      <point x="274" y="201" type="curve"/>
      <point x="274" y="206"/>
      <point x="274" y="271"/>
      <point x="274" y="276" type="curve"/>
      <point x="278" y="282"/>
      <point x="281" y="304"/>
      <point x="286" y="311" type="curve"/>
      <point x="286" y="268"/>
      <point x="323" y="240"/>
      <point x="368" y="240" type="curve" smooth="yes"/>
      <point x="430" y="240"/>
      <point x="467" y="295"/>
      <point x="467" y="354" type="curve" smooth="yes"/>
      <point x="467" y="396"/>
      <point x="449" y="414"/>
      <point x="425" y="414" type="curve" smooth="yes"/>
      <point x="408" y="414"/>
      <point x="395" y="405"/>
      <point x="389" y="383" type="curve"/>
      <point x="345" y="396"/>
      <point x="322" y="434"/>
      <point x="322" y="475" type="curve" smooth="yes"/>
      <point x="322" y="548"/>
      <point x="395" y="598"/>
      <point x="482" y="598" type="curve" smooth="yes"/>
      <point x="593" y="598"/>
      <point x="694" y="516"/>
      <point x="694" y="367" type="curve" smooth="yes"/>
      <point x="694" y="213"/>
      <point x="585" y="102"/>
    </contour>
    <contour>
      <point x="30" y="0" type="line"/>
      <point x="30" y="170" type="line"/>
      <point x="36" y="170" type="line" smooth="yes"/>
      <point x="66" y="170"/>
      <point x="86" y="190"/>
      <point x="86" y="220" type="curve" smooth="yes"/>
      <point x="86" y="480" type="line" smooth="yes"/>
      <point x="86" y="510"/>
      <point x="66" y="530"/>
      <point x="36" y="530" type="curve" smooth="yes"/>
      <point x="30" y="530" type="line"/>
      <point x="30" y="700" type="line"/>
      <point x="286" y="700" type="line"/>
      <point x="286" y="0" type="line"/>
    </contour>
  </outline>
</glyph>
<glyph name="aacute" format="1">
  <unicode hex="00E1"/>
  <advance width="751"/>
  <outline>
    <contour>
      <point x="137" y="700" type="line"/>
      <point x="137" y="530" type="line"/>
      <point x="153" y="530" type="line" smooth="yes"/>
      <point x="183" y="530"/>
      <point x="198" y="511"/>
      <point x="190" y="482" type="curve" smooth="yes"/>
      <point x="163" y="378" type="line"/>
      <point x="343" y="378" type="line"/>
      <point x="373" y="491" type="line"/>
      <point x="441" y="219" type="line" smooth="yes"/>
      <point x="448" y="190"/>
      <point x="433" y="170"/>
      <point x="403" y="170" type="curve" smooth="yes"/>
      <point x="397" y="170" type="line"/>
      <point x="397" y="0" type="line"/>
      <point x="741" y="0" type="line"/>
      <point x="741" y="170" type="line"/>
      <point x="715" y="170" type="line" smooth="yes"/>
      <point x="685" y="170"/>
      <point x="660" y="189"/>
      <point x="653" y="218" type="curve" smooth="yes"/>
      <point x="586" y="482" type="line" smooth="yes"/>
      <point x="579" y="511"/>
      <point x="594" y="530"/>
      <point x="624" y="530" type="curve" smooth="yes"/>
      <point x="630" y="530" type="line"/>
      <point x="630" y="700" type="line"/>
    </contour>
    <contour>
      <point x="191" y="-18" type="curve" smooth="yes"/>
      <point x="273" y="-18"/>
      <point x="349" y="24"/>
      <point x="349" y="101" type="curve" smooth="yes"/>
      <point x="349" y="164"/>
      <point x="305" y="200"/>
      <point x="244" y="200" type="curve"/>
      <point x="244" y="180"/>
      <point x="233" y="174"/>
      <point x="223" y="174" type="curve" smooth="yes"/>
      <point x="210" y="174"/>
      <point x="198" y="183"/>
      <point x="198" y="201" type="curve" smooth="yes"/>
      <point x="198" y="215"/>
      <point x="205" y="252"/>
      <point x="369" y="252" type="curve"/>
      <point x="369" y="336" type="line"/>
      <point x="138" y="336"/>
      <point x="10" y="267"/>
      <point x="10" y="143" type="curve" smooth="yes"/>
      <point x="10" y="44"/>
      <point x="91" y="-18"/>
    </contour>
    <contour>
      <point x="236" y="825" type="curve"/>
      <point x="236" y="750" type="line"/>
      <point x="442" y="750"/>
      <point x="556" y="820"/>
      <point x="554" y="946" type="curve" smooth="yes"/>
      <point x="553" y="1030"/>
      <point x="502" y="1085"/>
      <point x="428" y="1085" type="curve" smooth="yes"/>
      <point x="362" y="1085"/>
      <point x="309" y="1041"/>
      <point x="309" y="988" type="curve" smooth="yes"/>
      <point x="309" y="969"/>
      <point x="317" y="951"/>
      <point x="331" y="938" type="curve"/>
      <point x="336" y="943"/>
      <point x="341" y="945"/>
      <point x="347" y="945" type="curve" smooth="yes"/>
      <point x="364" y="945"/>
      <point x="377" y="928"/>
      <point x="377" y="905" type="curve" smooth="yes"/>
      <point x="377" y="858"/>
      <point x="320" y="825"/>
    </contour>
  </outline>
</glyph>
<glyph name="atilde" format="1">
  <unicode hex="00E3"/>
  <advance width="751"/>
  <outline>
    <contour>
      <point x="10" y="143" type="curve" smooth="yes"/>
      <point x="10" y="44"/>
      <point x="91" y="-18"/>
      <point x="191" y="-18" type="curve" smooth="yes"/>
      <point x="273" y="-18"/>
      <point x="349" y="24"/>
      <point x="349" y="101" type="curve" smooth="yes"/>
      <point x="349" y="164"/>
      <point x="305" y="200"/>
      <point x="244" y="200" type="curve"/>
      <point x="244" y="180"/>
      <point x="233" y="174"/>
      <point x="223" y="174" type="curve" smooth="yes"/>
      <point x="210" y="174"/>
      <point x="198" y="183"/>
      <point x="198" y="201" type="curve" smooth="yes"/>
      <point x="198" y="214"/>
      <point x="204" y="249"/>
      <point x="351" y="252" type="curve"/>
      <point x="380" y="236"/>
      <point x="410" y="228"/>
      <point x="439" y="227" type="curve"/>
      <point x="441" y="219" type="line" smooth="yes"/>
      <point x="448" y="190"/>
      <point x="433" y="170"/>
      <point x="403" y="170" type="curve" smooth="yes"/>
      <point x="397" y="170" type="line"/>
      <point x="397" y="0" type="line"/>
      <point x="741" y="0" type="line"/>
      <point x="741" y="170" type="line"/>
      <point x="715" y="170" type="line" smooth="yes"/>
      <point x="685" y="170"/>
      <point x="660" y="189"/>
      <point x="653" y="218" type="curve" smooth="yes"/>
      <point x="586" y="482" type="line" smooth="yes"/>
      <point x="579" y="511"/>
      <point x="594" y="530"/>
      <point x="624" y="530" type="curve" smooth="yes"/>
      <point x="630" y="530" type="line"/>
      <point x="630" y="700" type="line"/>
      <point x="137" y="700" type="line"/>
      <point x="137" y="530" type="line"/>
      <point x="153" y="530" type="line" smooth="yes"/>
      <point x="183" y="530"/>
      <point x="198" y="511"/>
      <point x="190" y="482" type="curve" smooth="yes"/>
      <point x="188" y="474" type="line"/>
      <point x="102" y="474"/>
      <point x="25" y="416"/>
      <point x="25" y="325" type="curve" smooth="yes"/>
      <point x="25" y="294"/>
      <point x="35" y="267"/>
      <point x="51" y="247" type="curve"/>
      <point x="24" y="219"/>
      <point x="10" y="184"/>
    </contour>
    <contour>
      <point x="349" y="400" type="curve"/>
      <point x="373" y="491" type="line"/>
      <point x="401" y="379" type="line"/>
      <point x="386" y="381"/>
      <point x="370" y="388"/>
    </contour>
  </outline>
</glyph>
<glyph name="ccedilla" format="1">
  <unicode hex="00E7"/>
  <advance width="657"/>
  <outline>
    <contour>
      <point x="21" y="389" type="curve"/>
      <point x="253" y="389" type="line"/>
      <point x="260" y="498"/>
      <point x="297" y="556"/>
      <point x="363" y="556" type="curve" smooth="yes"/>
      <point x="409" y="556"/>
      <point x="449" y="528"/>
      <point x="449" y="491" type="curve" smooth="yes"/>
      <point x="449" y="475"/>
      <point x="442" y="464"/>
      <point x="434" y="464" type="curve" smooth="yes"/>
      <point x="431" y="464"/>
      <point x="427" y="465"/>
      <point x="424" y="468" type="curve"/>
      <point x="416" y="459"/>
      <point x="411" y="445"/>
      <point x="411" y="428" type="curve" smooth="yes"/>
      <point x="411" y="381"/>
      <point x="448" y="336"/>
      <point x="512" y="336" type="curve" smooth="yes"/>
      <point x="588" y="336"/>
      <point x="635" y="398"/>
      <point x="635" y="479" type="curve" smooth="yes"/>
      <point x="635" y="619"/>
      <point x="510" y="718"/>
      <point x="335" y="718" type="curve" smooth="yes"/>
      <point x="144" y="718"/>
      <point x="33" y="600"/>
    </contour>
    <contour>
      <point x="20" y="329" type="line"/>
      <point x="26" y="92"/>
      <point x="127" y="-18"/>
      <point x="340" y="-18" type="curve" smooth="yes"/>
      <point x="522" y="-18"/>
      <point x="628" y="81"/>
      <point x="642" y="263" type="curve"/>
      <point x="482" y="263" type="line"/>
      <point x="472" y="188"/>
      <point x="432" y="145"/>
      <point x="370" y="145" type="curve" smooth="yes"/>
      <point x="291" y="145"/>
      <point x="256" y="199"/>
      <point x="252" y="329" type="curve"/>
    </contour>
    <contour>
      <point x="296" y="-188" type="curve"/>
      <point x="262" y="-188"/>
      <point x="218" y="-210"/>
      <point x="218" y="-263" type="curve" smooth="yes"/>
      <point x="218" y="-334"/>
      <point x="298" y="-356"/>
      <point x="351" y="-356" type="curve" smooth="yes"/>
      <point x="432" y="-356"/>
      <point x="510" y="-305"/>
      <point x="510" y="-224" type="curve" smooth="yes"/>
      <point x="510" y="-184"/>
      <point x="490" y="-116"/>
      <point x="364" y="-96" type="curve"/>
      <point x="387" y="-54" type="line"/>
      <point x="291" y="-54" type="line"/>
      <point x="241" y="-146" type="line"/>
      <point x="375" y="-146"/>
      <point x="372" y="-188"/>
      <point x="372" y="-196" type="curve" smooth="yes"/>
      <point x="372" y="-215"/>
      <point x="355" y="-224"/>
      <point x="339" y="-224" type="curve" smooth="yes"/>
      <point x="317" y="-224"/>
      <point x="296" y="-208"/>
    </contour>
  </outline>
</glyph>
<glyph name="icircumflex" format="1">
  <unicode hex="00EE"/>
  <advance width="372"/>
  <outline>
    <contour>
      <point x="-43" y="700" type="line"/>
      <point x="-43" y="530" type="line"/>
      <point x="-37" y="530" type="line" smooth="yes"/>
      <point x="-7" y="530"/>
      <point x="13" y="510"/>
      <point x="13" y="480" type="curve" smooth="yes"/>
      <point x="13" y="220" type="line" smooth="yes"/>
      <point x="13" y="190"/>
      <point x="-7" y="170"/>
      <point x="-37" y="170" type="curve" smooth="yes"/>
      <point x="-43" y="170" type="line"/>
      <point x="-43" y="0" type="line"/>
      <point x="269" y="0" type="line"/>
      <point x="269" y="170" type="line"/>
      <point x="263" y="170" type="line" smooth="yes"/>
      <point x="233" y="170"/>
      <point x="213" y="190"/>
      <point x="213" y="220" type="curve" smooth="yes"/>
      <point x="213" y="480" type="line" smooth="yes"/>
      <point x="213" y="510"/>
      <point x="233" y="530"/>
      <point x="263" y="530" type="curve" smooth="yes"/>
      <point x="269" y="530" type="line"/>
      <point x="269" y="700" type="line"/>
    </contour>
    <contour>
      <point x="38" y="748" type="curve" smooth="yes"/>
      <point x="87" y="748"/>
      <point x="125" y="779"/>
      <point x="125" y="816" type="curve" smooth="yes"/>
      <point x="125" y="828"/>
      <point x="122" y="842"/>
      <point x="115" y="855" type="curve"/>
      <point x="111" y="852"/>
      <point x="108" y="851"/>
      <point x="104" y="851" type="curve" smooth="yes"/>
      <point x="94" y="851"/>
      <point x="86" y="858"/>
      <point x="86" y="868" type="curve" smooth="yes"/>
      <point x="86" y="890"/>
      <point x="122" y="922"/>
      <point x="186" y="952" type="curve"/>
      <point x="250" y="922"/>
      <point x="286" y="890"/>
      <point x="286" y="868" type="curve" smooth="yes"/>
      <point x="286" y="858"/>
      <point x="278" y="851"/>
      <point x="268" y="851" type="curve" smooth="yes"/>
      <point x="264" y="851"/>
      <point x="261" y="852"/>
      <point x="257" y="855" type="curve"/>
      <point x="250" y="842"/>
      <point x="247" y="828"/>
      <point x="247" y="816" type="curve" smooth="yes"/>
      <point x="247" y="779"/>
      <point x="285" y="748"/>
      <point x="334" y="748" type="curve" smooth="yes"/>
      <point x="396" y="748"/>
      <point x="432" y="799"/>
      <point x="432" y="860" type="curve" smooth="yes"/>
      <point x="432" y="984"/>
      <point x="282" y="1037"/>
      <point x="186" y="1079" type="curve"/>
      <point x="90" y="1037"/>
      <point x="-60" y="984"/>
      <point x="-60" y="860" type="curve" smooth="yes"/>
      <point x="-60" y="799"/>
      <point x="-24" y="748"/>
    </contour>
  </outline>
</glyph>
<glyph name="ntilde" format="1">
  <unicode hex="00F1"/>
  <advance width="740"/>
  <outline>
    <contour>
      <point x="30" y="325" type="curve" smooth="yes"/>
      <point x="30" y="372"/>
      <point x="53" y="415"/>
      <point x="91" y="443" type="curve"/>
      <point x="91" y="480" type="line" smooth="yes"/>
      <point x="91" y="510"/>
      <point x="71" y="530"/>
      <point x="41" y="530" type="curve" smooth="yes"/>
      <point x="35" y="530" type="line"/>
      <point x="35" y="700" type="line"/>
      <point x="275" y="700" type="line"/>
      <point x="435" y="381" type="line"/>
      <point x="446" y="385"/>
      <point x="453" y="392"/>
      <point x="453" y="403" type="curve" smooth="yes"/>
      <point x="453" y="412"/>
      <point x="448" y="421"/>
      <point x="431" y="427" type="curve"/>
      <point x="444" y="465"/>
      <point x="474" y="485"/>
      <point x="513" y="485" type="curve"/>
      <point x="511" y="512"/>
      <point x="491" y="530"/>
      <point x="463" y="530" type="curve" smooth="yes"/>
      <point x="457" y="530" type="line"/>
      <point x="457" y="700" type="line"/>
      <point x="709" y="700" type="line"/>
      <point x="709" y="530" type="line"/>
      <point x="703" y="530" type="line" smooth="yes"/>
      <point x="673" y="530"/>
      <point x="653" y="510"/>
      <point x="653" y="480" type="curve" smooth="yes"/>
      <point x="653" y="351" type="line"/>
      <point x="609" y="351" type="line"/>
      <point x="601" y="297"/>
      <point x="561" y="254"/>
      <point x="507" y="236" type="curve"/>
      <point x="514" y="225"/>
      <point x="521" y="220"/>
      <point x="531" y="220" type="curve" smooth="yes"/>
      <point x="543" y="220"/>
      <point x="550" y="227"/>
      <point x="550" y="237" type="curve" smooth="yes"/>
      <point x="550" y="240"/>
      <point x="549" y="243"/>
      <point x="548" y="245" type="curve"/>
      <point x="563" y="254"/>
      <point x="582" y="260"/>
      <point x="603" y="260" type="curve" smooth="yes"/>
      <point x="669" y="260"/>
      <point x="720" y="201"/>
      <point x="720" y="127" type="curve" smooth="yes"/>
      <point x="720" y="42"/>
      <point x="654" y="-18"/>
      <point x="559" y="-18" type="curve" smooth="yes"/>
      <point x="472" y="-18"/>
      <point x="409" y="30"/>
      <point x="359" y="133" type="curve" smooth="yes"/>
      <point x="276" y="305" type="line"/>
      <point x="262" y="312"/>
      <point x="247" y="318"/>
      <point x="231" y="318" type="curve"/>
      <point x="231" y="220" type="line" smooth="yes"/>
      <point x="231" y="190"/>
      <point x="251" y="170"/>
      <point x="281" y="170" type="curve" smooth="yes"/>
      <point x="287" y="170" type="line"/>
      <point x="287" y="0" type="line"/>
      <point x="35" y="0" type="line"/>
      <point x="35" y="170" type="line"/>
      <point x="41" y="170" type="line" smooth="yes"/>
      <point x="71" y="170"/>
      <point x="91" y="190"/>
      <point x="91" y="220" type="curve"/>
      <point x="51" y="239"/>
      <point x="30" y="282"/>
    </contour>
  </outline>
</glyph>
<glyph name="oacute" format="1">
  <unicode hex="00F3"/>
  <advance width="676"/>
  <outline>
    <contour>
      <point x="264" y="466" type="line"/>
      <point x="274" y="520"/>
      <point x="305" y="555"/>
      <point x="356" y="555" type="curve" smooth="yes"/>
      <point x="398" y="555"/>
      <point x="441" y="532"/>
      <point x="441" y="484" type="curve" smooth="yes"/>
      <point x="441" y="462"/>
      <point x="432" y="444"/>
      <point x="417" y="444" type="curve" smooth="yes"/>
      <point x="411" y="444"/>
      <point x="406" y="446"/>
      <point x="403" y="449" type="curve"/>
      <point x="387" y="429"/>
      <point x="380" y="405"/>
      <point x="380" y="380" type="curve" smooth="yes"/>
      <point x="380" y="315"/>
      <point x="430" y="272"/>
      <point x="504" y="272" type="curve" smooth="yes"/>
      <point x="596" y="272"/>
      <point x="656" y="339"/>
      <point x="656" y="441" type="curve" smooth="yes"/>
      <point x="656" y="581"/>
      <point x="542" y="718"/>
      <point x="341" y="718" type="curve" smooth="yes"/>
      <point x="165" y="718"/>
      <point x="49" y="629"/>
      <point x="31" y="466" type="curve"/>
    </contour>
    <contour>
      <point x="412" y="234" type="line"/>
      <point x="402" y="180"/>
      <point x="371" y="145"/>
      <point x="320" y="145" type="curve" smooth="yes"/>
      <point x="278" y="145"/>
      <point x="235" y="168"/>
      <point x="235" y="216" type="curve" smooth="yes"/>
      <point x="235" y="238"/>
      <point x="244" y="256"/>
      <point x="259" y="256" type="curve" smooth="yes"/>
      <point x="265" y="256"/>
      <point x="270" y="254"/>
      <point x="273" y="251" type="curve"/>
      <point x="289" y="271"/>
      <point x="296" y="295"/>
      <point x="296" y="320" type="curve" smooth="yes"/>
      <point x="296" y="385"/>
      <point x="246" y="428"/>
      <point x="172" y="428" type="curve" smooth="yes"/>
      <point x="80" y="428"/>
      <point x="20" y="361"/>
      <point x="20" y="259" type="curve" smooth="yes"/>
      <point x="20" y="119"/>
      <point x="134" y="-18"/>
      <point x="335" y="-18" type="curve" smooth="yes"/>
      <point x="511" y="-18"/>
      <point x="627" y="71"/>
      <point x="645" y="234" type="curve"/>
    </contour>
    <contour>
      <point x="61" y="825" type="curve"/>
      <point x="61" y="750" type="line"/>
      <point x="267" y="750"/>
      <point x="381" y="820"/>
      <point x="379" y="946" type="curve" smooth="yes"/>
      <point x="378" y="1030"/>
      <point x="327" y="1085"/>
      <point x="253" y="1085" type="curve" smooth="yes"/>
      <point x="187" y="1085"/>
      <point x="134" y="1041"/>
      <point x="134" y="988" type="curve" smooth="yes"/>
      <point x="134" y="969"/>
      <point x="142" y="951"/>
      <point x="156" y="938" type="curve"/>
      <point x="161" y="943"/>
      <point x="166" y="945"/>
      <point x="172" y="945" type="curve" smooth="yes"/>
      <point x="189" y="945"/>
      <point x="202" y="928"/>
      <point x="202" y="905" type="curve" smooth="yes"/>
      <point x="202" y="858"/>
      <point x="145" y="825"/>
    </contour>
  </outline>
</glyph>
<glyph name="divide" format="1">
  <unicode hex="00F7"/>
  <advance width="547"/>
  <outline>
    <contour>
      <point x="25" y="268" type="line"/>
      <point x="522" y="268" type="line"/>
      <point x="522" y="433" type="line"/>
      <point x="25" y="433" type="line"/>
    </contour>
    <contour>
      <point x="390" y="562" type="curve" smooth="yes"/>
      <point x="390" y="624"/>
      <point x="346" y="665"/>
      <point x="279" y="665" type="curve" smooth="yes"/>
      <point x="212" y="665"/>
      <point x="168" y="624"/>
      <point x="168" y="562" type="curve" smooth="yes"/>
      <point x="168" y="501"/>
      <point x="212" y="459"/>
      <point x="279" y="459" type="curve" smooth="yes"/>
      <point x="346" y="459"/>
      <point x="390" y="501"/>
    </contour>
    <contour>
      <point x="390" y="137" type="curve" smooth="yes"/>
      <point x="390" y="199"/>
      <point x="346" y="240"/>
      <point x="279" y="240" type="curve" smooth="yes"/>
      <point x="212" y="240"/>
      <point x="168" y="199"/>
      <point x="168" y="137" type="curve" smooth="yes"/>
      <point x="168" y="76"/>
      <point x="212" y="35"/>
      <point x="279" y="35" type="curve" smooth="yes"/>
      <point x="346" y="35"/>
      <point x="390" y="76"/>
    </contour>
  </outline>
</glyph>
<glyph name="oslash" format="1">
  <unicode hex="00F8"/>
  <advance width="665"/>
  <outline>
    <contour>
      <point x="253" y="466" type="line"/>
      <point x="263" y="520"/>
      <point x="294" y="555"/>
      <point x="345" y="555" type="curve" smooth="yes"/>
      <point x="387" y="555"/>
      <point x="430" y="532"/>
      <point x="430" y="484" type="curve" smooth="yes"/>
      <point x="430" y="462"/>
      <point x="421" y="444"/>
      <point x="406" y="444" type="curve" smooth="yes"/>
      <point x="400" y="444"/>
      <point x="395" y="446"/>
      <point x="392" y="449" type="curve"/>
      <point x="376" y="429"/>
      <point x="369" y="405"/>
      <point x="369" y="380" type="curve" smooth="yes"/>
      <point x="369" y="315"/>
      <point x="419" y="272"/>
      <point x="493" y="272" type="curve" smooth="yes"/>
      <point x="585" y="272"/>
      <point x="645" y="339"/>
      <point x="645" y="441" type="curve" smooth="yes"/>
      <point x="645" y="505"/>
      <point x="621" y="568"/>
      <point x="577" y="618" type="curve"/>
      <point x="623" y="702" type="line"/>
      <point x="470" y="776" type="line"/>
      <point x="431" y="705" type="line"/>
      <point x="400" y="713"/>
      <point x="367" y="718"/>
      <point x="330" y="718" type="curve" smooth="yes"/>
      <point x="154" y="718"/>
      <point x="38" y="629"/>
      <point x="20" y="466" type="curve"/>
    </contour>
    <contour>
      <point x="39" y="-4" type="line"/>
      <point x="190" y="-80" type="line"/>
      <point x="304" y="126" type="line"/>
      <point x="181" y="126" type="line"/>
      <point x="181" y="253" type="line"/>
    </contour>
  </outline>
</glyph>
<glyph name="ugrave" format="1">
  <unicode hex="00F9"/>
  <advance width="748"/>
  <outline>
    <contour>
      <point x="61.0259" y="530" type="line"/>
      <point x="67.0259" y="530" type="line" smooth="yes"/>
      <point x="97.0259" y="530"/>
      <point x="117.026" y="510"/>
      <point x="117.026" y="480" type="curve" smooth="yes"/>
      <point x="117.026" y="259" type="line" smooth="yes"/>
      <point x="117.026" y="84"/>
      <point x="228.026" y="-18"/>
      <point x="401.026" y="-18" type="curve" smooth="yes"/>
      <point x="576.026" y="-18"/>
      <point x="685.026" y="87"/>
      <point x="685.026" y="237" type="curve" smooth="yes"/>
      <point x="685.026" y="333"/>
      <point x="641.026" y="392"/>
      <point x="571.026" y="392" type="curve" smooth="yes"/>
      <point x="520.026" y="392"/>
      <point x="484.026" y="360"/>
      <point x="484.026" y="317" type="curve" smooth="yes"/>
      <point x="484.026" y="301"/>
      <point x="489.026" y="286"/>
      <point x="500.026" y="268" type="curve"/>
      <point x="504.026" y="271"/>
      <point x="508.026" y="273"/>
      <point x="513.026" y="273" type="curve" smooth="yes"/>
      <point x="524.026" y="273"/>
      <point x="528.026" y="262"/>
      <point x="528.026" y="244" type="curve" smooth="yes"/>
      <point x="528.026" y="186"/>
      <point x="486.026" y="145"/>
      <point x="424.026" y="145" type="curve" smooth="yes"/>
      <point x="357.026" y="145"/>
      <point x="317.026" y="194"/>
      <point x="317.026" y="279" type="curve" smooth="yes"/>
      <point x="317.026" y="480" type="line" smooth="yes"/>
      <point x="317.026" y="510"/>
      <point x="337.026" y="530"/>
      <point x="367.026" y="530" type="curve" smooth="yes"/>
      <point x="373.026" y="530" type="line"/>
      <point x="373.026" y="700" type="line"/>
      <point x="61.0259" y="700" type="line"/>
    </contour>
    <contour>
      <point x="22.0259" y="946" type="curve" smooth="yes"/>
      <point x="20.0259" y="820"/>
      <point x="134.026" y="750"/>
      <point x="340.026" y="750" type="curve"/>
      <point x="340.026" y="825" type="line"/>
      <point x="256.026" y="825"/>
      <point x="199.026" y="858"/>
      <point x="199.026" y="905" type="curve" smooth="yes"/>
      <point x="199.026" y="928"/>
      <point x="212.026" y="945"/>
      <point x="229.026" y="945" type="curve" smooth="yes"/>
      <point x="235.026" y="945"/>
      <point x="240.026" y="943"/>
      <point x="245.026" y="938" type="curve"/>
      <point x="259.026" y="951"/>
      <point x="267.026" y="969"/>
      <point x="267.026" y="988" type="curve" smooth="yes"/>
      <point x="267.026" y="1041"/>
      <point x="214.026" y="1085"/>
      <point x="148.026" y="1085" type="curve" smooth="yes"/>
      <point x="74.0259" y="1085"/>
      <point x="23.0259" y="1030"/>
    </contour>
    <contour>
      <point x="474.026" y="700" type="line"/>
      <point x="474.026" y="530" type="line"/>
      <point x="480.026" y="530" type="line" smooth="yes"/>
      <point x="510.026" y="530"/>
      <point x="530.026" y="510"/>
      <point x="530.026" y="480" type="curve" smooth="yes"/>
      <point x="530.026" y="431" type="line"/>
      <point x="670.026" y="431" type="line"/>
      <point x="670.026" y="480" type="line" smooth="yes"/>
      <point x="670.026" y="510"/>
      <point x="690.026" y="530"/>
      <point x="720.026" y="530" type="curve" smooth="yes"/>
      <point x="726.026" y="530" type="line"/>
      <point x="726.026" y="700" type="line"/>
    </contour>
  </outline>
</glyph>
<glyph name="udieresis" format="1">
  <unicode hex="00FC"/>
  <advance width="709"/>
  <outline>
    <contour>
      <point x="28" y="530" type="line" smooth="yes"/>
      <point x="58" y="530"/>
      <point x="78" y="510"/>
      <point x="78" y="480" type="curve" smooth="yes"/>
      <point x="78" y="259" type="line" smooth="yes"/>
      <point x="78" y="84"/>
      <point x="189" y="-18"/>
      <point x="362" y="-18" type="curve" smooth="yes"/>
      <point x="537" y="-18"/>
      <point x="646" y="87"/>
      <point x="646" y="237" type="curve" smooth="yes"/>
      <point x="646" y="333"/>
      <point x="602" y="392"/>
      <point x="532" y="392" type="curve" smooth="yes"/>
      <point x="481" y="392"/>
      <point x="445" y="360"/>
      <point x="445" y="317" type="curve" smooth="yes"/>
      <point x="445" y="301"/>
      <point x="450" y="286"/>
      <point x="461" y="268" type="curve"/>
      <point x="465" y="271"/>
      <point x="469" y="273"/>
      <point x="474" y="273" type="curve" smooth="yes"/>
      <point x="485" y="273"/>
      <point x="489" y="262"/>
      <point x="489" y="244" type="curve" smooth="yes"/>
      <point x="489" y="186"/>
      <point x="447" y="145"/>
      <point x="385" y="145" type="curve" smooth="yes"/>
      <point x="318" y="145"/>
      <point x="278" y="194"/>
      <point x="278" y="279" type="curve" smooth="yes"/>
      <point x="278" y="480" type="line" smooth="yes"/>
      <point x="278" y="510"/>
      <point x="298" y="530"/>
      <point x="328" y="530" type="curve" smooth="yes"/>
      <point x="334" y="530" type="line"/>
      <point x="334" y="700" type="line"/>
      <point x="22" y="700" type="line"/>
      <point x="22" y="530" type="line"/>
    </contour>
    <contour>
      <point x="441" y="530" type="line" smooth="yes"/>
      <point x="471" y="530"/>
      <point x="491" y="510"/>
      <point x="491" y="480" type="curve" smooth="yes"/>
      <point x="491" y="431" type="line"/>
      <point x="631" y="431" type="line"/>
      <point x="631" y="480" type="line" smooth="yes"/>
      <point x="631" y="510"/>
      <point x="651" y="530"/>
      <point x="681" y="530" type="curve" smooth="yes"/>
      <point x="687" y="530" type="line"/>
      <point x="687" y="700" type="line"/>
      <point x="435" y="700" type="line"/>
      <point x="435" y="530" type="line"/>
    </contour>
    <contour>
      <point x="378" y="870" type="curve" smooth="yes"/>
      <point x="378" y="798"/>
      <point x="430" y="750"/>
      <point x="508" y="750" type="curve" smooth="yes"/>
      <point x="585" y="750"/>
      <point x="637" y="798"/>
      <point x="637" y="870" type="curve" smooth="yes"/>
      <point x="637" y="941"/>
      <point x="585" y="989"/>
      <point x="508" y="989" type="curve" smooth="yes"/>
      <point x="430" y="989"/>
      <point x="378" y="941"/>
    </contour>
    <contour>
      <point x="212" y="750" type="curve" smooth="yes"/>
      <point x="289" y="750"/>
      <point x="341" y="798"/>
      <point x="341" y="870" type="curve" smooth="yes"/>
      <point x="341" y="941"/>
      <point x="289" y="989"/>
      <point x="212" y="989" type="curve" smooth="yes"/>
      <point x="134" y="989"/>
      <point x="82" y="941"/>
      <point x="82" y="870" type="curve" smooth="yes"/>
      <point x="82" y="798"/>
      <point x="134" y="750"/>
    </contour>
  </outline>
</glyph>
<glyph name="thorn" format="1">
  <unicode hex="00FE"/>
  <advance width="704"/>
  <outline>
    <contour>
      <point x="30" y="0" type="line"/>
      <point x="30" y="170" type="line"/>
      <point x="36" y="170" type="line" smooth="yes"/>
      <point x="66" y="170"/>
      <point x="86" y="190"/>
      <point x="86" y="220" type="curve" smooth="yes"/>
      <point x="86" y="480" type="line" smooth="yes"/>
      <point x="86" y="510"/>
      <point x="66" y="530"/>
      <point x="36" y="530" type="curve" smooth="yes"/>
      <point x="30" y="530" type="line"/>
      <point x="30" y="700" type="line"/>
      <point x="286" y="700" type="line"/>
      <point x="286" y="311" type="line" smooth="yes"/>
      <point x="286" y="268"/>
      <point x="323" y="240"/>
      <point x="368" y="240" type="curve" smooth="yes"/>
      <point x="430" y="240"/>
      <point x="467" y="295"/>
      <point x="467" y="354" type="curve" smooth="yes"/>
      <point x="467" y="396"/>
      <point x="449" y="414"/>
      <point x="425" y="414" type="curve" smooth="yes"/>
      <point x="408" y="414"/>
      <point x="395" y="405"/>
      <point x="389" y="383" type="curve"/>
      <point x="345" y="396"/>
      <point x="322" y="434"/>
      <point x="322" y="475" type="curve" smooth="yes"/>
      <point x="322" y="548"/>
      <point x="395" y="598"/>
      <point x="482" y="598" type="curve" smooth="yes"/>
      <point x="593" y="598"/>
      <point x="694" y="516"/>
      <point x="694" y="367" type="curve" smooth="yes"/>
      <point x="694" y="213"/>
      <point x="585" y="102"/>
      <point x="446" y="102" type="curve" smooth="yes"/>
      <point x="379" y="102"/>
      <point x="321" y="127"/>
      <point x="286" y="180" type="curve"/>
      <point x="286" y="0" type="line"/>
    </contour>
  </outline>
</glyph>
<glyph name="Cdotaccent" format="1">
  <unicode hex="010A"/>
  <advance width="657"/>
  <outline>
    <contour>
      <point x="253" y="389" type="line"/>
      <point x="260" y="498"/>
      <point x="297" y="556"/>
      <point x="363" y="556" type="curve" smooth="yes"/>
      <point x="409" y="556"/>
      <point x="449" y="528"/>
      <point x="449" y="491" type="curve" smooth="yes"/>
      <point x="449" y="475"/>
      <point x="442" y="464"/>
      <point x="434" y="464" type="curve" smooth="yes"/>
      <point x="431" y="464"/>
      <point x="427" y="465"/>
      <point x="424" y="468" type="curve"/>
      <point x="416" y="459"/>
      <point x="411" y="445"/>
      <point x="411" y="428" type="curve" smooth="yes"/>
      <point x="411" y="381"/>
      <point x="448" y="336"/>
      <point x="512" y="336" type="curve" smooth="yes"/>
      <point x="588" y="336"/>
      <point x="635" y="398"/>
      <point x="635" y="479" type="curve" smooth="yes"/>
      <point x="635" y="619"/>
      <point x="510" y="718"/>
      <point x="335" y="718" type="curve" smooth="yes"/>
      <point x="144" y="718"/>
      <point x="33" y="600"/>
      <point x="21" y="389" type="curve"/>
    </contour>
    <contour>
      <point x="20" y="329" type="line"/>
      <point x="26" y="92"/>
      <point x="127" y="-18"/>
      <point x="340" y="-18" type="curve" smooth="yes"/>
      <point x="522" y="-18"/>
      <point x="628" y="81"/>
      <point x="642" y="263" type="curve"/>
      <point x="482" y="263" type="line"/>
      <point x="472" y="188"/>
      <point x="432" y="145"/>
      <point x="370" y="145" type="curve" smooth="yes"/>
      <point x="291" y="145"/>
      <point x="256" y="199"/>
      <point x="252" y="329" type="curve"/>
    </contour>
    <contour>
      <point x="212" y="870" type="curve" smooth="yes"/>
      <point x="212" y="798"/>
      <point x="264" y="750"/>
      <point x="342" y="750" type="curve" smooth="yes"/>
      <point x="419" y="750"/>
      <point x="471" y="798"/>
      <point x="471" y="870" type="curve" smooth="yes"/>
      <point x="471" y="941"/>
      <point x="419" y="989"/>
      <point x="342" y="989" type="curve" smooth="yes"/>
      <point x="264" y="989"/>
      <point x="212" y="941"/>
    </contour>
    <contour>
      <point x="322" y="750" type="move" name="top"/>
    </contour>
  </outline>
</glyph>
<glyph name="cdotaccent" format="1">
  <unicode hex="010B"/>
  <advance width="719"/>
  <outline>
    <contour>
      <point x="315" y="389" type="line"/>
      <point x="322" y="498"/>
      <point x="359" y="556"/>
      <point x="425" y="556" type="curve" smooth="yes"/>
      <point x="471" y="556"/>
      <point x="511" y="528"/>
      <point x="511" y="491" type="curve" smooth="yes"/>
      <point x="511" y="475"/>
      <point x="504" y="464"/>
      <point x="496" y="464" type="curve" smooth="yes"/>
      <point x="493" y="464"/>
      <point x="489" y="465"/>
      <point x="486" y="468" type="curve"/>
      <point x="478" y="459"/>
      <point x="473" y="445"/>
      <point x="473" y="428" type="curve" smooth="yes"/>
      <point x="473" y="381"/>
      <point x="510" y="336"/>
      <point x="574" y="336" type="curve" smooth="yes"/>
      <point x="650" y="336"/>
      <point x="697" y="398"/>
      <point x="697" y="479" type="curve" smooth="yes"/>
      <point x="697" y="619"/>
      <point x="572" y="718"/>
      <point x="397" y="718" type="curve" smooth="yes"/>
      <point x="206" y="718"/>
      <point x="95" y="600"/>
      <point x="83" y="389" type="curve"/>
    </contour>
    <contour>
      <point x="82" y="329" type="line"/>
      <point x="88" y="92"/>
      <point x="189" y="-18"/>
      <point x="402" y="-18" type="curve" smooth="yes"/>
      <point x="584" y="-18"/>
      <point x="690" y="81"/>
      <point x="704" y="263" type="curve"/>
      <point x="544" y="263" type="line"/>
      <point x="534" y="188"/>
      <point x="494" y="145"/>
      <point x="432" y="145" type="curve" smooth="yes"/>
      <point x="353" y="145"/>
      <point x="318" y="199"/>
      <point x="314" y="329" type="curve"/>
    </contour>
    <contour>
      <point x="20" y="820" type="curve" smooth="yes"/>
      <point x="20" y="748"/>
      <point x="72" y="700"/>
      <point x="150" y="700" type="curve" smooth="yes"/>
      <point x="227" y="700"/>
      <point x="279" y="748"/>
      <point x="279" y="820" type="curve" smooth="yes"/>
      <point x="279" y="891"/>
      <point x="227" y="939"/>
      <point x="150" y="939" type="curve" smooth="yes"/>
      <point x="72" y="939"/>
      <point x="20" y="891"/>
    </contour>
  </outline>
</glyph>
<glyph name="Ccaron" format="1">
  <unicode hex="010C"/>
  <advance width="657"/>
  <outline>
    <contour>
      <point x="253" y="389" type="line"/>
      <point x="260" y="498"/>
      <point x="297" y="556"/>
      <point x="363" y="556" type="curve" smooth="yes"/>
      <point x="409" y="556"/>
      <point x="449" y="528"/>
      <point x="449" y="491" type="curve" smooth="yes"/>
      <point x="449" y="475"/>
      <point x="442" y="464"/>
      <point x="434" y="464" type="curve" smooth="yes"/>
      <point x="431" y="464"/>
      <point x="427" y="465"/>
      <point x="424" y="468" type="curve"/>
      <point x="416" y="459"/>
      <point x="411" y="445"/>
      <point x="411" y="428" type="curve" smooth="yes"/>
      <point x="411" y="381"/>
      <point x="448" y="336"/>
      <point x="512" y="336" type="curve" smooth="yes"/>
      <point x="588" y="336"/>
      <point x="635" y="398"/>
      <point x="635" y="479" type="curve" smooth="yes"/>
      <point x="635" y="619"/>
      <point x="510" y="718"/>
      <point x="335" y="718" type="curve" smooth="yes"/>
      <point x="144" y="718"/>
      <point x="33" y="600"/>
      <point x="21" y="389" type="curve"/>
    </contour>
    <contour>
      <point x="20" y="329" type="line"/>
      <point x="26" y="92"/>
      <point x="127" y="-18"/>
      <point x="340" y="-18" type="curve" smooth="yes"/>
      <point x="522" y="-18"/>
      <point x="628" y="81"/>
      <point x="642" y="263" type="curve"/>
      <point x="482" y="263" type="line"/>
      <point x="472" y="188"/>
      <point x="432" y="145"/>
      <point x="370" y="145" type="curve" smooth="yes"/>
      <point x="291" y="145"/>
      <point x="256" y="199"/>
      <point x="252" y="329" type="curve"/>
    </contour>
    <contour>
      <point x="192" y="1079" type="curve" smooth="yes"/>
      <point x="130" y="1079"/>
      <point x="94" y="1028"/>
      <point x="94" y="967" type="curve" smooth="yes"/>
      <point x="94" y="843"/>
      <point x="244" y="790"/>
      <point x="340" y="748" type="curve"/>
      <point x="436" y="790"/>
      <point x="586" y="843"/>
      <point x="586" y="967" type="curve" smooth="yes"/>
      <point x="586" y="1028"/>
      <point x="550" y="1079"/>
      <point x="488" y="1079" type="curve" smooth="yes"/>
      <point x="439" y="1079"/>
      <point x="401" y="1048"/>
      <point x="401" y="1011" type="curve" smooth="yes"/>
      <point x="401" y="999"/>
      <point x="404" y="985"/>
      <point x="411" y="972" type="curve"/>
      <point x="415" y="975"/>
      <point x="418" y="976"/>
      <point x="422" y="976" type="curve" smooth="yes"/>
      <point x="432" y="976"/>
      <point x="440" y="969"/>
      <point x="440" y="959" type="curve" smooth="yes"/>
      <point x="440" y="937"/>
      <point x="404" y="905"/>
      <point x="340" y="875" type="curve"/>
      <point x="276" y="905"/>
      <point x="240" y="937"/>
      <point x="240" y="959" type="curve" smooth="yes"/>
      <point x="240" y="969"/>
      <point x="248" y="976"/>
      <point x="258" y="976" type="curve" smooth="yes"/>
      <point x="262" y="976"/>
      <point x="265" y="975"/>
      <point x="269" y="972" type="curve"/>
      <point x="276" y="985"/>
      <point x="279" y="999"/>
      <point x="279" y="1011" type="curve" smooth="yes"/>
      <point x="279" y="1048"/>
      <point x="241" y="1079"/>
    </contour>
    <contour>
      <point x="322" y="750" type="move" name="top"/>
    </contour>
  </outline>
</glyph>
<glyph name="ccaron" format="1">
  <unicode hex="010D"/>
  <advance width="657"/>
  <outline>
    <contour>
      <point x="253" y="389" type="line"/>
      <point x="260" y="498"/>
      <point x="297" y="556"/>
      <point x="363" y="556" type="curve" smooth="yes"/>
      <point x="409" y="556"/>
      <point x="449" y="528"/>
      <point x="449" y="491" type="curve" smooth="yes"/>
      <point x="449" y="475"/>
      <point x="442" y="464"/>
      <point x="434" y="464" type="curve" smooth="yes"/>
      <point x="431" y="464"/>
      <point x="427" y="465"/>
      <point x="424" y="468" type="curve"/>
      <point x="416" y="459"/>
      <point x="411" y="445"/>
      <point x="411" y="428" type="curve" smooth="yes"/>
      <point x="411" y="381"/>
      <point x="448" y="336"/>
      <point x="512" y="336" type="curve" smooth="yes"/>
      <point x="588" y="336"/>
      <point x="635" y="398"/>
      <point x="635" y="479" type="curve" smooth="yes"/>
      <point x="635" y="619"/>
      <point x="510" y="718"/>
      <point x="335" y="718" type="curve" smooth="yes"/>
      <point x="144" y="718"/>
      <point x="33" y="600"/>
      <point x="21" y="389" type="curve"/>
    </contour>
    <contour>
      <point x="340" y="-18" type="curve" smooth="yes"/>
      <point x="522" y="-18"/>
      <point x="628" y="81"/>
      <point x="642" y="263" type="curve"/>
      <point x="482" y="263" type="line"/>
      <point x="472" y="188"/>
      <point x="432" y="145"/>
      <point x="370" y="145" type="curve" smooth="yes"/>
      <point x="291" y="145"/>
      <point x="256" y="199"/>
      <point x="252" y="329" type="curve"/>
      <point x="20" y="329" type="line"/>
      <point x="26" y="92"/>
      <point x="127" y="-18"/>
    </contour>
    <contour>
      <point x="151" y="1079" type="curve" smooth="yes"/>
      <point x="89" y="1079"/>
      <point x="53" y="1028"/>
      <point x="53" y="967" type="curve" smooth="yes"/>
      <point x="53" y="843"/>
      <point x="203" y="790"/>
      <point x="299" y="748" type="curve"/>
      <point x="395" y="790"/>
      <point x="545" y="843"/>
      <point x="545" y="967" type="curve" smooth="yes"/>
      <point x="545" y="1028"/>
      <point x="509" y="1079"/>
      <point x="447" y="1079" type="curve" smooth="yes"/>
      <point x="398" y="1079"/>
      <point x="360" y="1048"/>
      <point x="360" y="1011" type="curve" smooth="yes"/>
      <point x="360" y="999"/>
      <point x="363" y="985"/>
      <point x="370" y="972" type="curve"/>
      <point x="374" y="975"/>
      <point x="377" y="976"/>
      <point x="381" y="976" type="curve" smooth="yes"/>
      <point x="391" y="976"/>
      <point x="399" y="969"/>
      <point x="399" y="959" type="curve" smooth="yes"/>
      <point x="399" y="937"/>
      <point x="363" y="905"/>
      <point x="299" y="875" type="curve"/>
      <point x="235" y="905"/>
      <point x="199" y="937"/>
      <point x="199" y="959" type="curve" smooth="yes"/>
      <point x="199" y="969"/>
      <point x="207" y="976"/>
      <point x="217" y="976" type="curve" smooth="yes"/>
      <point x="221" y="976"/>
      <point x="224" y="975"/>
      <point x="228" y="972" type="curve"/>
      <point x="235" y="985"/>
      <point x="238" y="999"/>
      <point x="238" y="1011" type="curve" smooth="yes"/>
      <point x="238" y="1048"/>
      <point x="200" y="1079"/>
    </contour>
  </outline>
</glyph>
<glyph name="Dcaron" format="1">
  <unicode hex="010E"/>
  <advance width="751"/>
  <outline>
    <contour>
      <point x="30" y="0" type="line"/>
      <point x="30" y="170" type="line"/>
      <point x="36" y="170" type="line" smooth="yes"/>
      <point x="66" y="170"/>
      <point x="86" y="190"/>
      <point x="86" y="220" type="curve" smooth="yes"/>
      <point x="86" y="480" type="line" smooth="yes"/>
      <point x="86" y="510"/>
      <point x="66" y="530"/>
      <point x="36" y="530" type="curve" smooth="yes"/>
      <point x="30" y="530" type="line"/>
      <point x="30" y="700" type="line"/>
      <point x="286" y="700" type="line"/>
      <point x="286" y="271" type="line" smooth="yes"/>
      <point x="286" y="205"/>
      <point x="339" y="145"/>
      <point x="398" y="145" type="curve" smooth="yes"/>
      <point x="466" y="145"/>
      <point x="504" y="221"/>
      <point x="504" y="379" type="curve" smooth="yes"/>
      <point x="504" y="493"/>
      <point x="484" y="556"/>
      <point x="444" y="556" type="curve" smooth="yes"/>
      <point x="433" y="556"/>
      <point x="427" y="551"/>
      <point x="427" y="542" type="curve" smooth="yes"/>
      <point x="427" y="538"/>
      <point x="428" y="534"/>
      <point x="431" y="530" type="curve"/>
      <point x="419" y="522"/>
      <point x="405" y="518"/>
      <point x="391" y="518" type="curve" smooth="yes"/>
      <point x="355" y="518"/>
      <point x="319" y="542"/>
      <point x="319" y="596" type="curve" smooth="yes"/>
      <point x="319" y="670"/>
      <point x="388" y="718"/>
      <point x="483" y="718" type="curve" smooth="yes"/>
      <point x="631" y="718"/>
      <point x="731" y="600"/>
      <point x="731" y="368" type="curve" smooth="yes"/>
      <point x="731" y="126"/>
      <point x="623" y="-18"/>
      <point x="469" y="-18" type="curve" smooth="yes"/>
      <point x="376" y="-18"/>
      <point x="313" y="34"/>
      <point x="286" y="98" type="curve"/>
      <point x="286" y="0" type="line"/>
    </contour>
    <contour>
      <point x="192" y="1079" type="curve" smooth="yes"/>
      <point x="241" y="1079"/>
      <point x="279" y="1048"/>
      <point x="279" y="1011" type="curve" smooth="yes"/>
      <point x="279" y="999"/>
      <point x="276" y="985"/>
      <point x="269" y="972" type="curve"/>
      <point x="265" y="975"/>
      <point x="262" y="976"/>
      <point x="258" y="976" type="curve" smooth="yes"/>
      <point x="248" y="976"/>
      <point x="240" y="969"/>
      <point x="240" y="959" type="curve" smooth="yes"/>
      <point x="240" y="937"/>
      <point x="276" y="905"/>
      <point x="340" y="875" type="curve"/>
      <point x="404" y="905"/>
      <point x="440" y="937"/>
      <point x="440" y="959" type="curve" smooth="yes"/>
      <point x="440" y="969"/>
      <point x="432" y="976"/>
      <point x="422" y="976" type="curve" smooth="yes"/>
      <point x="418" y="976"/>
      <point x="415" y="975"/>
      <point x="411" y="972" type="curve"/>
      <point x="404" y="985"/>
      <point x="401" y="999"/>
      <point x="401" y="1011" type="curve" smooth="yes"/>
      <point x="401" y="1048"/>
      <point x="439" y="1079"/>
      <point x="488" y="1079" type="curve" smooth="yes"/>
      <point x="550" y="1079"/>
      <point x="586" y="1028"/>
      <point x="586" y="967" type="curve" smooth="yes"/>
      <point x="586" y="843"/>
      <point x="436" y="790"/>
      <point x="340" y="748" type="curve"/>
      <point x="244" y="790"/>
      <point x="94" y="843"/>
      <point x="94" y="967" type="curve" smooth="yes"/>
      <point x="94" y="1028"/>
      <point x="130" y="1079"/>
    </contour>
  </outline>
</glyph>
<glyph name="dcaron" format="1">
  <unicode hex="010F"/>
  <advance width="751"/>
  <outline>
    <contour>
      <point x="36" y="170" type="line" smooth="yes"/>
      <point x="66" y="170"/>
      <point x="86" y="190"/>
      <point x="86" y="220" type="curve" smooth="yes"/>
      <point x="86" y="480" type="line" smooth="yes"/>
      <point x="86" y="510"/>
      <point x="66" y="530"/>
      <point x="36" y="530" type="curve" smooth="yes"/>
      <point x="30" y="530" type="line"/>
      <point x="30" y="700" type="line"/>
      <point x="286" y="700" type="line"/>
      <point x="286" y="271" type="line" smooth="yes"/>
      <point x="286" y="205"/>
      <point x="339" y="145"/>
      <point x="398" y="145" type="curve" smooth="yes"/>
      <point x="466" y="145"/>
      <point x="504" y="221"/>
      <point x="504" y="379" type="curve" smooth="yes"/>
      <point x="504" y="493"/>
      <point x="484" y="556"/>
      <point x="444" y="556" type="curve" smooth="yes"/>
      <point x="433" y="556"/>
      <point x="427" y="551"/>
      <point x="427" y="542" type="curve" smooth="yes"/>
      <point x="427" y="538"/>
      <point x="428" y="534"/>
      <point x="431" y="530" type="curve"/>
      <point x="419" y="522"/>
      <point x="405" y="518"/>
      <point x="391" y="518" type="curve" smooth="yes"/>
      <point x="355" y="518"/>
      <point x="319" y="542"/>
      <point x="319" y="596" type="curve" smooth="yes"/>
      <point x="319" y="670"/>
      <point x="388" y="718"/>
      <point x="483" y="718" type="curve" smooth="yes"/>
      <point x="631" y="718"/>
      <point x="731" y="600"/>
      <point x="731" y="368" type="curve" smooth="yes"/>
      <point x="731" y="126"/>
      <point x="623" y="-18"/>
      <point x="469" y="-18" type="curve" smooth="yes"/>
      <point x="376" y="-18"/>
      <point x="313" y="34"/>
      <point x="286" y="98" type="curve"/>
      <point x="286" y="0" type="line"/>
      <point x="30" y="0" type="line"/>
      <point x="30" y="170" type="line"/>
    </contour>
    <contour>
      <point x="53" y="967" type="curve" smooth="yes"/>
      <point x="53" y="1028"/>
      <point x="89" y="1079"/>
      <point x="151" y="1079" type="curve" smooth="yes"/>
      <point x="200" y="1079"/>
      <point x="238" y="1048"/>
      <point x="238" y="1011" type="curve" smooth="yes"/>
      <point x="238" y="999"/>
      <point x="235" y="985"/>
      <point x="228" y="972" type="curve"/>
      <point x="224" y="975"/>
      <point x="221" y="976"/>
      <point x="217" y="976" type="curve" smooth="yes"/>
      <point x="207" y="976"/>
      <point x="199" y="969"/>
      <point x="199" y="959" type="curve" smooth="yes"/>
      <point x="199" y="937"/>
      <point x="235" y="905"/>
      <point x="299" y="875" type="curve"/>
      <point x="363" y="905"/>
      <point x="399" y="937"/>
      <point x="399" y="959" type="curve" smooth="yes"/>
      <point x="399" y="969"/>
      <point x="391" y="976"/>
      <point x="381" y="976" type="curve" smooth="yes"/>
      <point x="377" y="976"/>
      <point x="374" y="975"/>
      <point x="370" y="972" type="curve"/>
      <point x="363" y="985"/>
      <point x="360" y="999"/>
      <point x="360" y="1011" type="curve" smooth="yes"/>
      <point x="360" y="1048"/>
      <point x="398" y="1079"/>
      <point x="447" y="1079" type="curve" smooth="yes"/>
      <point x="509" y="1079"/>
      <point x="545" y="1028"/>
      <point x="545" y="967" type="curve" smooth="yes"/>
      <point x="545" y="843"/>
      <point x="395" y="790"/>
      <point x="299" y="748" type="curve"/>
      <point x="203" y="790"/>
      <point x="53" y="843"/>
    </contour>
  </outline>
</glyph>
<glyph name="gbreve" format="1">
  <unicode hex="011F"/>
  <advance width="695"/>
  <outline>
    <contour>
      <point x="473" y="186" type="curve" smooth="yes"/>
      <point x="449" y="161"/>
      <point x="411" y="145"/>
      <point x="366" y="145" type="curve" smooth="yes"/>
      <point x="311" y="145"/>
      <point x="266" y="170"/>
      <point x="266" y="213" type="curve" smooth="yes"/>
      <point x="266" y="234"/>
      <point x="277" y="248"/>
      <point x="292" y="248" type="curve" smooth="yes"/>
      <point x="296" y="248"/>
      <point x="299" y="247"/>
      <point x="304" y="244" type="curve"/>
      <point x="313" y="254"/>
      <point x="320" y="271"/>
      <point x="320" y="293" type="curve" smooth="yes"/>
      <point x="320" y="342"/>
      <point x="286" y="406"/>
      <point x="194" y="406" type="curve" smooth="yes"/>
      <point x="85" y="406"/>
      <point x="20" y="316"/>
      <point x="20" y="218" type="curve" smooth="yes"/>
      <point x="20" y="86"/>
      <point x="138" y="-18"/>
      <point x="276" y="-18" type="curve" smooth="yes"/>
      <point x="369" y="-18"/>
      <point x="468" y="22"/>
      <point x="505" y="122" type="curve"/>
      <point x="505" y="0" type="line"/>
      <point x="665" y="0" type="line"/>
      <point x="665" y="313" type="line"/>
      <point x="386" y="313" type="line"/>
      <point x="386" y="229" type="line"/>
      <point x="449" y="229" type="line" smooth="yes"/>
      <point x="480" y="229"/>
      <point x="493" y="207"/>
    </contour>
    <contour>
      <point x="43" y="444" type="curve"/>
      <point x="265" y="444" type="line"/>
      <point x="270" y="500"/>
      <point x="310" y="555"/>
      <point x="378" y="555" type="curve" smooth="yes"/>
      <point x="427" y="555"/>
      <point x="463" y="526"/>
      <point x="463" y="493" type="curve" smooth="yes"/>
      <point x="463" y="478"/>
      <point x="455" y="469"/>
      <point x="441" y="469" type="curve"/>
      <point x="441" y="394"/>
      <point x="479" y="351"/>
      <point x="545" y="351" type="curve" smooth="yes"/>
      <point x="614" y="351"/>
      <point x="654" y="398"/>
      <point x="654" y="477" type="curve" smooth="yes"/>
      <point x="654" y="619"/>
      <point x="511" y="718"/>
      <point x="352" y="718" type="curve" smooth="yes"/>
      <point x="145" y="718"/>
      <point x="44" y="583"/>
    </contour>
    <contour>
      <point x="25" y="926" type="curve" smooth="yes"/>
      <point x="25" y="818"/>
      <point x="138" y="750"/>
      <point x="306" y="750" type="curve" smooth="yes"/>
      <point x="474" y="750"/>
      <point x="587" y="818"/>
      <point x="587" y="926" type="curve" smooth="yes"/>
      <point x="587" y="991"/>
      <point x="542" y="1038"/>
      <point x="487" y="1038" type="curve" smooth="yes"/>
      <point x="453" y="1038"/>
      <point x="421" y="1020"/>
      <point x="407" y="980" type="curve"/>
      <point x="424" y="974"/>
      <point x="429" y="965"/>
      <point x="429" y="956" type="curve" smooth="yes"/>
      <point x="429" y="936"/>
      <point x="386" y="901"/>
      <point x="306" y="901" type="curve" smooth="yes"/>
      <point x="226" y="901"/>
      <point x="183" y="936"/>
      <point x="183" y="956" type="curve" smooth="yes"/>
      <point x="183" y="965"/>
      <point x="188" y="974"/>
      <point x="205" y="980" type="curve"/>
      <point x="191" y="1020"/>
      <point x="159" y="1038"/>
      <point x="125" y="1038" type="curve" smooth="yes"/>
      <point x="70" y="1038"/>
      <point x="25" y="991"/>
    </contour>
  </outline>
</glyph>
<glyph name="gdotaccent" format="1">
  <unicode hex="0121"/>
  <advance width="757"/>
  <outline>
    <contour>
      <point x="535" y="186" type="curve" smooth="yes"/>
      <point x="511" y="161"/>
      <point x="473" y="145"/>
      <point x="428" y="145" type="curve" smooth="yes"/>
      <point x="373" y="145"/>
      <point x="328" y="170"/>
      <point x="328" y="213" type="curve" smooth="yes"/>
      <point x="328" y="234"/>
      <point x="339" y="248"/>
      <point x="354" y="248" type="curve" smooth="yes"/>
      <point x="358" y="248"/>
      <point x="361" y="247"/>
      <point x="366" y="244" type="curve"/>
      <point x="375" y="254"/>
      <point x="382" y="271"/>
      <point x="382" y="293" type="curve" smooth="yes"/>
      <point x="382" y="342"/>
      <point x="348" y="406"/>
      <point x="256" y="406" type="curve" smooth="yes"/>
      <point x="147" y="406"/>
      <point x="82" y="316"/>
      <point x="82" y="218" type="curve" smooth="yes"/>
      <point x="82" y="86"/>
      <point x="200" y="-18"/>
      <point x="338" y="-18" type="curve" smooth="yes"/>
      <point x="431" y="-18"/>
      <point x="530" y="22"/>
      <point x="567" y="122" type="curve"/>
      <point x="567" y="0" type="line"/>
      <point x="727" y="0" type="line"/>
      <point x="727" y="313" type="line"/>
      <point x="448" y="313" type="line"/>
      <point x="448" y="229" type="line"/>
      <point x="511" y="229" type="line" smooth="yes"/>
      <point x="542" y="229"/>
      <point x="555" y="207"/>
    </contour>
    <contour>
      <point x="105" y="444" type="curve"/>
      <point x="327" y="444" type="line"/>
      <point x="332" y="500"/>
      <point x="372" y="555"/>
      <point x="440" y="555" type="curve" smooth="yes"/>
      <point x="489" y="555"/>
      <point x="525" y="526"/>
      <point x="525" y="493" type="curve" smooth="yes"/>
      <point x="525" y="478"/>
      <point x="517" y="469"/>
      <point x="503" y="469" type="curve"/>
      <point x="503" y="394"/>
      <point x="541" y="351"/>
      <point x="607" y="351" type="curve" smooth="yes"/>
      <point x="676" y="351"/>
      <point x="716" y="398"/>
      <point x="716" y="477" type="curve" smooth="yes"/>
      <point x="716" y="619"/>
      <point x="573" y="718"/>
      <point x="414" y="718" type="curve" smooth="yes"/>
      <point x="207" y="718"/>
      <point x="106" y="583"/>
    </contour>
    <contour>
      <point x="20" y="820" type="curve" smooth="yes"/>
      <point x="20" y="748"/>
      <point x="72" y="700"/>
      <point x="150" y="700" type="curve" smooth="yes"/>
      <point x="227" y="700"/>
      <point x="279" y="748"/>
      <point x="279" y="820" type="curve" smooth="yes"/>
      <point x="279" y="891"/>
      <point x="227" y="939"/>
      <point x="150" y="939" type="curve" smooth="yes"/>
      <point x="72" y="939"/>
      <point x="20" y="891"/>
    </contour>
  </outline>
</glyph>
<glyph name="uni0123" format="1">
  <unicode hex="0123"/>
  <advance width="695"/>
  <outline>
    <contour>
      <point x="473" y="186" type="curve" smooth="yes"/>
      <point x="449" y="161"/>
      <point x="411" y="145"/>
      <point x="366" y="145" type="curve" smooth="yes"/>
      <point x="311" y="145"/>
      <point x="266" y="170"/>
      <point x="266" y="213" type="curve" smooth="yes"/>
      <point x="266" y="234"/>
      <point x="277" y="248"/>
      <point x="292" y="248" type="curve" smooth="yes"/>
      <point x="296" y="248"/>
      <point x="299" y="247"/>
      <point x="304" y="244" type="curve"/>
      <point x="313" y="254"/>
      <point x="320" y="271"/>
      <point x="320" y="293" type="curve" smooth="yes"/>
      <point x="320" y="342"/>
      <point x="286" y="406"/>
      <point x="194" y="406" type="curve" smooth="yes"/>
      <point x="85" y="406"/>
      <point x="20" y="316"/>
      <point x="20" y="218" type="curve" smooth="yes"/>
      <point x="20" y="86"/>
      <point x="138" y="-18"/>
      <point x="276" y="-18" type="curve" smooth="yes"/>
      <point x="369" y="-18"/>
      <point x="468" y="22"/>
      <point x="505" y="122" type="curve"/>
      <point x="505" y="0" type="line"/>
      <point x="665" y="0" type="line"/>
      <point x="665" y="313" type="line"/>
      <point x="386" y="313" type="line"/>
      <point x="386" y="229" type="line"/>
      <point x="449" y="229" type="line" smooth="yes"/>
      <point x="480" y="229"/>
      <point x="493" y="207"/>
    </contour>
    <contour>
      <point x="43" y="444" type="curve"/>
      <point x="265" y="444" type="line"/>
      <point x="270" y="500"/>
      <point x="310" y="555"/>
      <point x="378" y="555" type="curve" smooth="yes"/>
      <point x="427" y="555"/>
      <point x="463" y="526"/>
      <point x="463" y="493" type="curve" smooth="yes"/>
      <point x="463" y="478"/>
      <point x="455" y="469"/>
      <point x="441" y="469" type="curve"/>
      <point x="441" y="394"/>
      <point x="479" y="351"/>
      <point x="545" y="351" type="curve" smooth="yes"/>
      <point x="614" y="351"/>
      <point x="654" y="398"/>
      <point x="654" y="477" type="curve" smooth="yes"/>
      <point x="654" y="619"/>
      <point x="511" y="718"/>
      <point x="352" y="718" type="curve" smooth="yes"/>
      <point x="145" y="718"/>
      <point x="44" y="583"/>
    </contour>
    <contour>
      <point x="186" y="-281" type="curve"/>
      <point x="186" y="-356" type="line"/>
      <point x="392" y="-356"/>
      <point x="506" y="-292"/>
      <point x="504" y="-176" type="curve" smooth="yes"/>
      <point x="503" y="-100"/>
      <point x="452" y="-50"/>
      <point x="380" y="-50" type="curve" smooth="yes"/>
      <point x="312" y="-50"/>
      <point x="259" y="-94"/>
      <point x="259" y="-147" type="curve" smooth="yes"/>
      <point x="259" y="-166"/>
      <point x="267" y="-184"/>
      <point x="281" y="-197" type="curve"/>
      <point x="286" y="-192"/>
      <point x="291" y="-190"/>
      <point x="297" y="-190" type="curve" smooth="yes"/>
      <point x="314" y="-190"/>
      <point x="327" y="-202"/>
      <point x="327" y="-219" type="curve" smooth="yes"/>
      <point x="327" y="-256"/>
      <point x="270" y="-281"/>
    </contour>
  </outline>
</glyph>
<glyph name="hcircumflex" format="1">
  <unicode hex="0125"/>
  <advance width="802"/>
  <outline>
    <contour>
      <point x="460" y="530" type="line"/>
      <point x="460" y="700" type="line"/>
      <point x="772" y="700" type="line"/>
      <point x="772" y="530" type="line"/>
      <point x="766" y="530" type="line" smooth="yes"/>
      <point x="736" y="530"/>
      <point x="716" y="510"/>
      <point x="716" y="480" type="curve" smooth="yes"/>
      <point x="716" y="220" type="line" smooth="yes"/>
      <point x="716" y="190"/>
      <point x="736" y="170"/>
      <point x="766" y="170" type="curve" smooth="yes"/>
      <point x="772" y="170" type="line"/>
      <point x="772" y="0" type="line"/>
      <point x="460" y="0" type="line"/>
      <point x="460" y="170" type="line"/>
      <point x="466" y="170" type="line" smooth="yes"/>
      <point x="496" y="170"/>
      <point x="516" y="190"/>
      <point x="516" y="220" type="curve" smooth="yes"/>
      <point x="516" y="480" type="line" smooth="yes"/>
      <point x="516" y="510"/>
      <point x="496" y="530"/>
      <point x="466" y="530" type="curve" smooth="yes"/>
    </contour>
    <contour>
      <point x="460" y="381" type="curve"/>
      <point x="460" y="297" type="line"/>
      <point x="296" y="297"/>
      <point x="239" y="256"/>
      <point x="239" y="216" type="curve" smooth="yes"/>
      <point x="239" y="193"/>
      <point x="251" y="187"/>
      <point x="262" y="187" type="curve" smooth="yes"/>
      <point x="274" y="187"/>
      <point x="285" y="193"/>
      <point x="285" y="213" type="curve"/>
      <point x="346" y="213"/>
      <point x="390" y="177"/>
      <point x="390" y="114" type="curve" smooth="yes"/>
      <point x="390" y="19"/>
      <point x="307" y="-18"/>
      <point x="226" y="-18" type="curve" smooth="yes"/>
      <point x="125" y="-18"/>
      <point x="31" y="40"/>
      <point x="31" y="149" type="curve" smooth="yes"/>
      <point x="31" y="358"/>
      <point x="340" y="381"/>
    </contour>
    <contour>
      <point x="22" y="860" type="curve" smooth="yes"/>
      <point x="22" y="984"/>
      <point x="172" y="1037"/>
      <point x="268" y="1079" type="curve"/>
      <point x="364" y="1037"/>
      <point x="514" y="984"/>
      <point x="514" y="860" type="curve" smooth="yes"/>
      <point x="514" y="799"/>
      <point x="478" y="748"/>
      <point x="416" y="748" type="curve" smooth="yes"/>
      <point x="367" y="748"/>
      <point x="329" y="779"/>
      <point x="329" y="816" type="curve" smooth="yes"/>
      <point x="329" y="828"/>
      <point x="332" y="842"/>
      <point x="339" y="855" type="curve"/>
      <point x="343" y="852"/>
      <point x="346" y="851"/>
      <point x="350" y="851" type="curve" smooth="yes"/>
      <point x="360" y="851"/>
      <point x="368" y="858"/>
      <point x="368" y="868" type="curve" smooth="yes"/>
      <point x="368" y="890"/>
      <point x="332" y="922"/>
      <point x="268" y="952" type="curve"/>
      <point x="204" y="922"/>
      <point x="168" y="890"/>
      <point x="168" y="868" type="curve" smooth="yes"/>
      <point x="168" y="858"/>
      <point x="176" y="851"/>
      <point x="186" y="851" type="curve" smooth="yes"/>
      <point x="190" y="851"/>
      <point x="193" y="852"/>
      <point x="197" y="855" type="curve"/>
      <point x="204" y="842"/>
      <point x="207" y="828"/>
      <point x="207" y="816" type="curve" smooth="yes"/>
      <point x="207" y="779"/>
      <point x="169" y="748"/>
      <point x="120" y="748" type="curve" smooth="yes"/>
      <point x="58" y="748"/>
      <point x="22" y="799"/>
    </contour>
    <contour>
      <point x="372" y="700" type="line"/>
      <point x="372" y="530" type="line"/>
      <point x="366" y="530" type="line" smooth="yes"/>
      <point x="336" y="530"/>
      <point x="316" y="510"/>
      <point x="316" y="480" type="curve" smooth="yes"/>
      <point x="316" y="411" type="line"/>
      <point x="116" y="411" type="line"/>
      <point x="116" y="480" type="line" smooth="yes"/>
      <point x="116" y="510"/>
      <point x="96" y="530"/>
      <point x="66" y="530" type="curve" smooth="yes"/>
      <point x="60" y="530" type="line"/>
      <point x="60" y="700" type="line"/>
    </contour>
  </outline>
</glyph>
<glyph name="IJ" format="1">
  <unicode hex="0132"/>
  <advance width="1000"/>
  <outline>
    <contour>
      <point x="36" y="530" type="line" smooth="yes"/>
      <point x="66" y="530"/>
      <point x="86" y="510"/>
      <point x="86" y="480" type="curve" smooth="yes"/>
      <point x="86" y="220" type="line" smooth="yes"/>
      <point x="86" y="190"/>
      <point x="66" y="170"/>
      <point x="36" y="170" type="curve" smooth="yes"/>
      <point x="30" y="170" type="line"/>
      <point x="30" y="0" type="line"/>
      <point x="342" y="0" type="line"/>
      <point x="342" y="170" type="line"/>
      <point x="336" y="170" type="line" smooth="yes"/>
      <point x="306" y="170"/>
      <point x="286" y="190"/>
      <point x="286" y="220" type="curve" smooth="yes"/>
      <point x="286" y="480" type="line" smooth="yes"/>
      <point x="286" y="510"/>
      <point x="306" y="530"/>
      <point x="336" y="530" type="curve" smooth="yes"/>
      <point x="342" y="530" type="line"/>
      <point x="342" y="700" type="line"/>
      <point x="30" y="700" type="line"/>
      <point x="30" y="530" type="line"/>
    </contour>
    <contour>
      <point x="387" y="206" type="curve" smooth="yes"/>
      <point x="387" y="77"/>
      <point x="490" y="-18"/>
      <point x="662" y="-18" type="curve" smooth="yes"/>
      <point x="826" y="-18"/>
      <point x="924" y="67"/>
      <point x="924" y="210" type="curve" smooth="yes"/>
      <point x="924" y="329" type="line"/>
      <point x="724" y="329" type="line"/>
      <point x="724" y="244" type="line" smooth="yes"/>
      <point x="724" y="178"/>
      <point x="703" y="145"/>
      <point x="662" y="145" type="curve" smooth="yes"/>
      <point x="627" y="145"/>
      <point x="600" y="168"/>
      <point x="600" y="195" type="curve" smooth="yes"/>
      <point x="600" y="212"/>
      <point x="611" y="226"/>
      <point x="623" y="226" type="curve" smooth="yes"/>
      <point x="626" y="226"/>
      <point x="628" y="225"/>
      <point x="631" y="224" type="curve"/>
      <point x="636" y="238"/>
      <point x="639" y="251"/>
      <point x="639" y="265" type="curve" smooth="yes"/>
      <point x="639" y="322"/>
      <point x="593" y="374"/>
      <point x="526" y="374" type="curve" smooth="yes"/>
      <point x="450" y="374"/>
      <point x="387" y="307"/>
    </contour>
    <contour>
      <point x="568" y="700" type="line"/>
      <point x="568" y="530" type="line"/>
      <point x="674" y="530" type="line" smooth="yes"/>
      <point x="704" y="530"/>
      <point x="724" y="510"/>
      <point x="724" y="480" type="curve" smooth="yes"/>
      <point x="724" y="389" type="line"/>
      <point x="924" y="389" type="line"/>
      <point x="924" y="480" type="line" smooth="yes"/>
      <point x="924" y="510"/>
      <point x="944" y="530"/>
      <point x="974" y="530" type="curve" smooth="yes"/>
      <point x="980" y="530" type="line"/>
      <point x="980" y="700" type="line"/>
    </contour>
  </outline>
</glyph>
<glyph name="Jcircumflex" format="1">
  <unicode hex="0134"/>
  <advance width="623"/>
  <outline>
    <contour>
      <point x="10" y="206" type="curve" smooth="yes"/>
      <point x="10" y="77"/>
      <point x="113" y="-18"/>
      <point x="285" y="-18" type="curve" smooth="yes"/>
      <point x="449" y="-18"/>
      <point x="547" y="67"/>
      <point x="547" y="210" type="curve" smooth="yes"/>
      <point x="547" y="329" type="line"/>
      <point x="347" y="329" type="line"/>
      <point x="347" y="244" type="line" smooth="yes"/>
      <point x="347" y="178"/>
      <point x="326" y="145"/>
      <point x="285" y="145" type="curve" smooth="yes"/>
      <point x="250" y="145"/>
      <point x="223" y="168"/>
      <point x="223" y="195" type="curve" smooth="yes"/>
      <point x="223" y="212"/>
      <point x="234" y="226"/>
      <point x="246" y="226" type="curve" smooth="yes"/>
      <point x="249" y="226"/>
      <point x="251" y="225"/>
      <point x="254" y="224" type="curve"/>
      <point x="259" y="238"/>
      <point x="262" y="251"/>
      <point x="262" y="265" type="curve" smooth="yes"/>
      <point x="262" y="322"/>
      <point x="216" y="374"/>
      <point x="149" y="374" type="curve" smooth="yes"/>
      <point x="73" y="374"/>
      <point x="10" y="307"/>
    </contour>
    <contour>
      <point x="191" y="700" type="line"/>
      <point x="191" y="530" type="line"/>
      <point x="297" y="530" type="line" smooth="yes"/>
      <point x="327" y="530"/>
      <point x="347" y="510"/>
      <point x="347" y="480" type="curve" smooth="yes"/>
      <point x="347" y="389" type="line"/>
      <point x="547" y="389" type="line"/>
      <point x="547" y="480" type="line" smooth="yes"/>
      <point x="547" y="510"/>
      <point x="567" y="530"/>
      <point x="597" y="530" type="curve" smooth="yes"/>
      <point x="603" y="530" type="line"/>
      <point x="603" y="700" type="line"/>
    </contour>
    <contour>
      <point x="246" y="748" type="curve" smooth="yes"/>
      <point x="295" y="748"/>
      <point x="333" y="779"/>
      <point x="333" y="816" type="curve" smooth="yes"/>
      <point x="333" y="828"/>
      <point x="330" y="842"/>
      <point x="323" y="855" type="curve"/>
      <point x="319" y="852"/>
      <point x="316" y="851"/>
      <point x="312" y="851" type="curve" smooth="yes"/>
      <point x="302" y="851"/>
      <point x="294" y="858"/>
      <point x="294" y="868" type="curve" smooth="yes"/>
      <point x="294" y="890"/>
      <point x="330" y="922"/>
      <point x="394" y="952" type="curve"/>
      <point x="458" y="922"/>
      <point x="494" y="890"/>
      <point x="494" y="868" type="curve" smooth="yes"/>
      <point x="494" y="858"/>
      <point x="486" y="851"/>
      <point x="476" y="851" type="curve" smooth="yes"/>
      <point x="472" y="851"/>
      <point x="469" y="852"/>
      <point x="465" y="855" type="curve"/>
      <point x="458" y="842"/>
      <point x="455" y="828"/>
      <point x="455" y="816" type="curve" smooth="yes"/>
      <point x="455" y="779"/>
      <point x="493" y="748"/>
      <point x="542" y="748" type="curve" smooth="yes"/>
      <point x="604" y="748"/>
      <point x="640" y="799"/>
      <point x="640" y="860" type="curve" smooth="yes"/>
      <point x="640" y="984"/>
      <point x="490" y="1037"/>
      <point x="394" y="1079" type="curve"/>
      <point x="298" y="1037"/>
      <point x="148" y="984"/>
      <point x="148" y="860" type="curve" smooth="yes"/>
      <point x="148" y="799"/>
      <point x="184" y="748"/>
    </contour>
  </outline>
</glyph>
<glyph name="jcircumflex" format="1">
  <unicode hex="0135"/>
  <advance width="586"/>
  <outline>
    <contour>
      <point x="285" y="-18" type="curve" smooth="yes"/>
      <point x="449" y="-18"/>
      <point x="547" y="67"/>
      <point x="547" y="210" type="curve" smooth="yes"/>
      <point x="547" y="329" type="line"/>
      <point x="347" y="329" type="line"/>
      <point x="347" y="244" type="line" smooth="yes"/>
      <point x="347" y="178"/>
      <point x="326" y="145"/>
      <point x="285" y="145" type="curve" smooth="yes"/>
      <point x="250" y="145"/>
      <point x="223" y="168"/>
      <point x="223" y="195" type="curve" smooth="yes"/>
      <point x="223" y="212"/>
      <point x="234" y="226"/>
      <point x="246" y="226" type="curve" smooth="yes"/>
      <point x="249" y="226"/>
      <point x="251" y="225"/>
      <point x="254" y="224" type="curve"/>
      <point x="259" y="238"/>
      <point x="262" y="251"/>
      <point x="262" y="265" type="curve" smooth="yes"/>
      <point x="262" y="322"/>
      <point x="216" y="374"/>
      <point x="149" y="374" type="curve" smooth="yes"/>
      <point x="73" y="374"/>
      <point x="10" y="307"/>
      <point x="10" y="206" type="curve" smooth="yes"/>
      <point x="10" y="77"/>
      <point x="113" y="-18"/>
    </contour>
    <contour>
      <point x="111" y="748" type="curve" smooth="yes"/>
      <point x="160" y="748"/>
      <point x="198" y="779"/>
      <point x="198" y="816" type="curve" smooth="yes"/>
      <point x="198" y="828"/>
      <point x="195" y="842"/>
      <point x="188" y="855" type="curve"/>
      <point x="184" y="852"/>
      <point x="181" y="851"/>
      <point x="177" y="851" type="curve" smooth="yes"/>
      <point x="167" y="851"/>
      <point x="159" y="858"/>
      <point x="159" y="868" type="curve" smooth="yes"/>
      <point x="159" y="890"/>
      <point x="195" y="922"/>
      <point x="259" y="952" type="curve"/>
      <point x="323" y="922"/>
      <point x="359" y="890"/>
      <point x="359" y="868" type="curve" smooth="yes"/>
      <point x="359" y="858"/>
      <point x="351" y="851"/>
      <point x="341" y="851" type="curve" smooth="yes"/>
      <point x="337" y="851"/>
      <point x="334" y="852"/>
      <point x="330" y="855" type="curve"/>
      <point x="323" y="842"/>
      <point x="320" y="828"/>
      <point x="320" y="816" type="curve" smooth="yes"/>
      <point x="320" y="779"/>
      <point x="358" y="748"/>
      <point x="407" y="748" type="curve" smooth="yes"/>
      <point x="469" y="748"/>
      <point x="505" y="799"/>
      <point x="505" y="860" type="curve" smooth="yes"/>
      <point x="505" y="984"/>
      <point x="355" y="1037"/>
      <point x="259" y="1079" type="curve"/>
      <point x="163" y="1037"/>
      <point x="13" y="984"/>
      <point x="13" y="860" type="curve" smooth="yes"/>
      <point x="13" y="799"/>
      <point x="49" y="748"/>
    </contour>
    <contour>
      <point x="297" y="530" type="line" smooth="yes"/>
      <point x="327" y="530"/>
      <point x="347" y="510"/>
      <point x="347" y="480" type="curve" smooth="yes"/>
      <point x="347" y="389" type="line"/>
      <point x="547" y="389" type="line"/>
      <point x="547" y="480" type="line" smooth="yes"/>
      <point x="547" y="510"/>
      <point x="567" y="530"/>
      <point x="597" y="530" type="curve" smooth="yes"/>
      <point x="603" y="530" type="line"/>
      <point x="603" y="700" type="line"/>
      <point x="191" y="700" type="line"/>
      <point x="191" y="530" type="line"/>
    </contour>
  </outline>
</glyph>
<glyph name="uni0136" format="1">
  <unicode hex="0136"/>
  <advance width="781"/>
  <outline>
    <contour>
      <point x="455" y="606" type="curve" smooth="yes"/>
      <point x="328" y="324" type="line"/>
      <point x="460" y="86" type="line" smooth="yes"/>
      <point x="499" y="17"/>
      <point x="563" y="-18"/>
      <point x="627" y="-18" type="curve" smooth="yes"/>
      <point x="705" y="-18"/>
      <point x="771" y="34"/>
      <point x="771" y="126" type="curve" smooth="yes"/>
      <point x="771" y="211"/>
      <point x="715" y="255"/>
      <point x="633" y="255" type="curve"/>
      <point x="633" y="240"/>
      <point x="623" y="232"/>
      <point x="614" y="232" type="curve" smooth="yes"/>
      <point x="603" y="232"/>
      <point x="594" y="242"/>
      <point x="583" y="262" type="curve" smooth="yes"/>
      <point x="521" y="374" type="line"/>
      <point x="569" y="469" type="line" smooth="yes"/>
      <point x="586" y="503"/>
      <point x="595" y="514"/>
      <point x="606" y="514" type="curve" smooth="yes"/>
      <point x="613" y="514"/>
      <point x="621" y="509"/>
      <point x="621" y="497" type="curve"/>
      <point x="672" y="497"/>
      <point x="721" y="543"/>
      <point x="721" y="607" type="curve" smooth="yes"/>
      <point x="721" y="674"/>
      <point x="668" y="718"/>
      <point x="601" y="718" type="curve" smooth="yes"/>
      <point x="535" y="718"/>
      <point x="486" y="676"/>
    </contour>
    <contour>
      <point x="30" y="0" type="line"/>
      <point x="342" y="0" type="line"/>
      <point x="342" y="170" type="line"/>
      <point x="336" y="170" type="line" smooth="yes"/>
      <point x="306" y="170"/>
      <point x="286" y="190"/>
      <point x="286" y="220" type="curve" smooth="yes"/>
      <point x="286" y="480" type="line" smooth="yes"/>
      <point x="286" y="510"/>
      <point x="306" y="530"/>
      <point x="336" y="530" type="curve" smooth="yes"/>
      <point x="342" y="530" type="line"/>
      <point x="342" y="700" type="line"/>
      <point x="30" y="700" type="line"/>
      <point x="30" y="530" type="line"/>
      <point x="36" y="530" type="line" smooth="yes"/>
      <point x="66" y="530"/>
      <point x="86" y="510"/>
      <point x="86" y="480" type="curve" smooth="yes"/>
      <point x="86" y="220" type="line" smooth="yes"/>
      <point x="86" y="190"/>
      <point x="66" y="170"/>
      <point x="36" y="170" type="curve" smooth="yes"/>
      <point x="30" y="170" type="line"/>
    </contour>
    <contour>
      <point x="231" y="-281" type="curve"/>
      <point x="231" y="-356" type="line"/>
      <point x="437" y="-356"/>
      <point x="551" y="-292"/>
      <point x="549" y="-176" type="curve" smooth="yes"/>
      <point x="548" y="-100"/>
      <point x="497" y="-50"/>
      <point x="425" y="-50" type="curve" smooth="yes"/>
      <point x="357" y="-50"/>
      <point x="304" y="-94"/>
      <point x="304" y="-147" type="curve" smooth="yes"/>
      <point x="304" y="-166"/>
      <point x="312" y="-184"/>
      <point x="326" y="-197" type="curve"/>
      <point x="331" y="-192"/>
      <point x="336" y="-190"/>
      <point x="342" y="-190" type="curve" smooth="yes"/>
      <point x="359" y="-190"/>
      <point x="372" y="-202"/>
      <point x="372" y="-219" type="curve" smooth="yes"/>
      <point x="372" y="-256"/>
      <point x="315" y="-281"/>
    </contour>
  </outline>
</glyph>
<glyph name="lacute" format="1">
  <unicode hex="013A"/>
  <advance width="653"/>
  <outline>
    <contour>
      <point x="94" y="227" type="curve"/>
      <point x="98" y="214"/>
      <point x="106" y="207"/>
      <point x="116" y="207" type="curve" smooth="yes"/>
      <point x="129" y="207"/>
      <point x="137" y="217"/>
      <point x="137" y="236" type="curve" smooth="yes"/>
      <point x="137" y="480" type="line" smooth="yes"/>
      <point x="137" y="510"/>
      <point x="117" y="530"/>
      <point x="87" y="530" type="curve" smooth="yes"/>
      <point x="81" y="530" type="line"/>
      <point x="81" y="700" type="line"/>
      <point x="393" y="700" type="line"/>
      <point x="393" y="530" type="line"/>
      <point x="387" y="530" type="line" smooth="yes"/>
      <point x="357" y="530"/>
      <point x="337" y="510"/>
      <point x="337" y="480" type="curve" smooth="yes"/>
      <point x="337" y="172" type="line" smooth="yes"/>
      <point x="337" y="47"/>
      <point x="280" y="-18"/>
      <point x="180" y="-18" type="curve" smooth="yes"/>
      <point x="89" y="-18"/>
      <point x="30" y="36"/>
      <point x="30" y="112" type="curve" smooth="yes"/>
      <point x="30" y="160"/>
      <point x="53" y="203"/>
    </contour>
    <contour>
      <point x="61" y="750" type="curve"/>
      <point x="61" y="825" type="line"/>
      <point x="145" y="825"/>
      <point x="202" y="858"/>
      <point x="202" y="905" type="curve" smooth="yes"/>
      <point x="202" y="928"/>
      <point x="189" y="945"/>
      <point x="172" y="945" type="curve" smooth="yes"/>
      <point x="166" y="945"/>
      <point x="161" y="943"/>
      <point x="156" y="938" type="curve"/>
      <point x="142" y="951"/>
      <point x="134" y="969"/>
      <point x="134" y="988" type="curve" smooth="yes"/>
      <point x="134" y="1041"/>
      <point x="187" y="1085"/>
      <point x="253" y="1085" type="curve" smooth="yes"/>
      <point x="327" y="1085"/>
      <point x="378" y="1030"/>
      <point x="379" y="946" type="curve" smooth="yes"/>
      <point x="381" y="820"/>
      <point x="267" y="750"/>
    </contour>
    <contour>
      <point x="448" y="170" type="line" smooth="yes"/>
      <point x="478" y="170"/>
      <point x="498" y="190"/>
      <point x="498" y="220" type="curve" smooth="yes"/>
      <point x="498" y="285" type="line"/>
      <point x="638" y="285" type="line"/>
      <point x="638" y="0" type="line"/>
      <point x="382" y="0" type="line"/>
      <point x="382" y="170" type="line"/>
    </contour>
  </outline>
</glyph>
<glyph name="Lcaron" format="1">
  <unicode hex="013D"/>
  <advance width="673"/>
  <outline>
    <contour>
      <point x="30" y="112" type="curve" smooth="yes"/>
      <point x="30" y="160"/>
      <point x="53" y="203"/>
      <point x="94" y="227" type="curve"/>
      <point x="98" y="214"/>
      <point x="106" y="207"/>
      <point x="116" y="207" type="curve" smooth="yes"/>
      <point x="129" y="207"/>
      <point x="137" y="217"/>
      <point x="137" y="236" type="curve" smooth="yes"/>
      <point x="137" y="480" type="line" smooth="yes"/>
      <point x="137" y="510"/>
      <point x="117" y="530"/>
      <point x="87" y="530" type="curve" smooth="yes"/>
      <point x="81" y="530" type="line"/>
      <point x="81" y="700" type="line"/>
      <point x="393" y="700" type="line"/>
      <point x="393" y="530" type="line"/>
      <point x="387" y="530" type="line" smooth="yes"/>
      <point x="357" y="530"/>
      <point x="337" y="510"/>
      <point x="337" y="480" type="curve" smooth="yes"/>
      <point x="337" y="172" type="line" smooth="yes"/>
      <point x="337" y="47"/>
      <point x="280" y="-18"/>
      <point x="180" y="-18" type="curve" smooth="yes"/>
      <point x="89" y="-18"/>
      <point x="30" y="36"/>
    </contour>
    <contour>
      <point x="382" y="170" type="line"/>
      <point x="448" y="170" type="line" smooth="yes"/>
      <point x="478" y="170"/>
      <point x="498" y="190"/>
      <point x="498" y="220" type="curve" smooth="yes"/>
      <point x="498" y="285" type="line"/>
      <point x="638" y="285" type="line"/>
      <point x="638" y="0" type="line"/>
      <point x="382" y="0" type="line"/>
    </contour>
    <contour>
      <point x="548" y="422" type="line"/>
      <point x="558" y="437"/>
      <point x="588" y="482"/>
      <point x="588" y="544" type="curve" smooth="yes"/>
      <point x="588" y="583"/>
      <point x="576" y="604"/>
      <point x="554" y="604" type="curve" smooth="yes"/>
      <point x="540" y="604"/>
      <point x="528" y="595"/>
      <point x="519" y="578" type="curve"/>
      <point x="479" y="593"/>
      <point x="461" y="628"/>
      <point x="461" y="664" type="curve" smooth="yes"/>
      <point x="461" y="724"/>
      <point x="511" y="771"/>
      <point x="589" y="771" type="curve" smooth="yes"/>
      <point x="689" y="771"/>
      <point x="734" y="693"/>
      <point x="734" y="604" type="curve" smooth="yes"/>
      <point x="734" y="535"/>
      <point x="707" y="492"/>
      <point x="654" y="422" type="curve"/>
    </contour>
  </outline>
</glyph>
<glyph name="Ldot" format="1">
  <unicode hex="013F"/>
  <advance width="656"/>
  <outline>
    <contour>
      <point x="30" y="112" type="curve" smooth="yes"/>
      <point x="30" y="160"/>
      <point x="53" y="203"/>
      <point x="94" y="227" type="curve"/>
      <point x="98" y="214"/>
      <point x="106" y="207"/>
      <point x="116" y="207" type="curve" smooth="yes"/>
      <point x="129" y="207"/>
      <point x="137" y="217"/>
      <point x="137" y="236" type="curve" smooth="yes"/>
      <point x="137" y="480" type="line" smooth="yes"/>
      <point x="137" y="510"/>
      <point x="117" y="530"/>
      <point x="87" y="530" type="curve" smooth="yes"/>
      <point x="81" y="530" type="line"/>
      <point x="81" y="700" type="line"/>
      <point x="393" y="700" type="line"/>
      <point x="393" y="530" type="line"/>
      <point x="387" y="530" type="line" smooth="yes"/>
      <point x="357" y="530"/>
      <point x="337" y="510"/>
      <point x="337" y="480" type="curve" smooth="yes"/>
      <point x="337" y="172" type="line" smooth="yes"/>
      <point x="337" y="47"/>
      <point x="280" y="-18"/>
      <point x="180" y="-18" type="curve" smooth="yes"/>
      <point x="89" y="-18"/>
      <point x="30" y="36"/>
    </contour>
    <contour>
      <point x="382" y="170" type="line"/>
      <point x="638" y="170" type="line"/>
      <point x="638" y="0" type="line"/>
      <point x="382" y="0" type="line"/>
    </contour>
    <contour>
      <point x="382" y="351" type="curve" smooth="yes"/>
      <point x="382" y="422"/>
      <point x="434" y="470"/>
      <point x="512" y="470" type="curve" smooth="yes"/>
      <point x="589" y="470"/>
      <point x="641" y="422"/>
      <point x="641" y="351" type="curve" smooth="yes"/>
      <point x="641" y="279"/>
      <point x="589" y="231"/>
      <point x="512" y="231" type="curve" smooth="yes"/>
      <point x="434" y="231"/>
      <point x="382" y="279"/>
    </contour>
  </outline>
</glyph>
<glyph name="Lslash" format="1">
  <unicode hex="0141"/>
  <advance width="743"/>
  <outline>
    <contour>
      <point x="161" y="700" type="line"/>
      <point x="473" y="700" type="line"/>
      <point x="473" y="530" type="line"/>
      <point x="467" y="530" type="line" smooth="yes"/>
      <point x="437" y="530"/>
      <point x="417" y="510"/>
      <point x="417" y="480" type="curve" smooth="yes"/>
      <point x="417" y="0" type="line"/>
      <point x="161" y="0" type="line"/>
      <point x="161" y="170" type="line"/>
      <point x="167" y="170" type="line" smooth="yes"/>
      <point x="197" y="170"/>
      <point x="217" y="190"/>
      <point x="217" y="220" type="curve" smooth="yes"/>
      <point x="217" y="480" type="line" smooth="yes"/>
      <point x="217" y="510"/>
      <point x="197" y="530"/>
      <point x="167" y="530" type="curve" smooth="yes"/>
      <point x="161" y="530" type="line"/>
    </contour>
    <contour>
      <point x="538" y="170" type="line" smooth="yes"/>
      <point x="568" y="170"/>
      <point x="588" y="190"/>
      <point x="588" y="220" type="curve" smooth="yes"/>
      <point x="588" y="285" type="line"/>
      <point x="728" y="285" type="line"/>
      <point x="728" y="0" type="line"/>
      <point x="462" y="0" type="line"/>
      <point x="462" y="170" type="line"/>
    </contour>
    <contour>
      <point x="514" y="423" type="curve" smooth="yes"/>
      <point x="514" y="434"/>
      <point x="504" y="441"/>
      <point x="492" y="438" type="curve"/>
      <point x="477" y="500"/>
      <point x="522" y="542"/>
      <point x="583" y="542" type="curve" smooth="yes"/>
      <point x="643" y="542"/>
      <point x="683" y="501"/>
      <point x="683" y="440" type="curve" smooth="yes"/>
      <point x="683" y="353"/>
      <point x="603" y="303"/>
      <point x="463" y="303" type="curve"/>
      <point x="463" y="386" type="line"/>
      <point x="488" y="386"/>
      <point x="514" y="404"/>
    </contour>
    <contour>
      <point x="138" y="266" type="curve" smooth="yes"/>
      <point x="138" y="257"/>
      <point x="145" y="252"/>
      <point x="154" y="254" type="curve"/>
      <point x="165" y="208"/>
      <point x="132" y="176"/>
      <point x="86" y="176" type="curve" smooth="yes"/>
      <point x="40" y="176"/>
      <point x="10" y="207"/>
      <point x="10" y="253" type="curve" smooth="yes"/>
      <point x="10" y="318"/>
      <point x="71" y="356"/>
      <point x="176" y="356" type="curve"/>
      <point x="176" y="294" type="line"/>
      <point x="157" y="294"/>
      <point x="138" y="280"/>
    </contour>
  </outline>
</glyph>
<glyph name="Nacute" format="1">
  <unicode hex="0143"/>
  <advance width="735"/>
  <outline>
    <contour>
      <point x="30" y="700" type="line"/>
      <point x="270" y="700" type="line"/>
      <point x="500" y="240" type="line" smooth="yes"/>
      <point x="507" y="226"/>
      <point x="515" y="220"/>
      <point x="526" y="220" type="curve" smooth="yes"/>
      <point x="538" y="220"/>
      <point x="545" y="227"/>
      <point x="545" y="237" type="curve" smooth="yes"/>
      <point x="545" y="240"/>
      <point x="544" y="243"/>
      <point x="543" y="245" type="curve"/>
      <point x="558" y="254"/>
      <point x="577" y="260"/>
      <point x="598" y="260" type="curve" smooth="yes"/>
      <point x="664" y="260"/>
      <point x="715" y="201"/>
      <point x="715" y="127" type="curve" smooth="yes"/>
      <point x="715" y="42"/>
      <point x="649" y="-18"/>
      <point x="554" y="-18" type="curve" smooth="yes"/>
      <point x="467" y="-18"/>
      <point x="404" y="30"/>
      <point x="354" y="133" type="curve" smooth="yes"/>
      <point x="226" y="397" type="line"/>
      <point x="226" y="220" type="line" smooth="yes"/>
      <point x="226" y="190"/>
      <point x="246" y="170"/>
      <point x="276" y="170" type="curve" smooth="yes"/>
      <point x="282" y="170" type="line"/>
      <point x="282" y="0" type="line"/>
      <point x="30" y="0" type="line"/>
      <point x="30" y="170" type="line"/>
      <point x="36" y="170" type="line" smooth="yes"/>
      <point x="66" y="170"/>
      <point x="86" y="190"/>
      <point x="86" y="220" type="curve" smooth="yes"/>
      <point x="86" y="480" type="line" smooth="yes"/>
      <point x="86" y="510"/>
      <point x="66" y="530"/>
      <point x="36" y="530" type="curve" smooth="yes"/>
      <point x="30" y="530" type="line"/>
    </contour>
    <contour>
      <point x="452" y="700" type="line"/>
      <point x="704" y="700" type="line"/>
      <point x="704" y="530" type="line"/>
      <point x="698" y="530" type="line" smooth="yes"/>
      <point x="668" y="530"/>
      <point x="648" y="510"/>
      <point x="648" y="480" type="curve" smooth="yes"/>
      <point x="648" y="351" type="line"/>
      <point x="508" y="351" type="line"/>
      <point x="508" y="480" type="line" smooth="yes"/>
      <point x="508" y="510"/>
      <point x="488" y="530"/>
      <point x="458" y="530" type="curve" smooth="yes"/>
      <point x="452" y="530" type="line"/>
    </contour>
    <contour>
      <point x="225" y="825" type="line"/>
      <point x="309" y="825"/>
      <point x="366" y="858"/>
      <point x="366" y="905" type="curve" smooth="yes"/>
      <point x="366" y="928"/>
      <point x="353" y="945"/>
      <point x="336" y="945" type="curve" smooth="yes"/>
      <point x="330" y="945"/>
      <point x="325" y="943"/>
      <point x="320" y="938" type="curve"/>
      <point x="306" y="951"/>
      <point x="298" y="969"/>
      <point x="298" y="988" type="curve" smooth="yes"/>
      <point x="298" y="1041"/>
      <point x="351" y="1085"/>
      <point x="417" y="1085" type="curve" smooth="yes"/>
      <point x="491" y="1085"/>
      <point x="542" y="1030"/>
      <point x="543" y="946" type="curve" smooth="yes"/>
      <point x="545" y="820"/>
      <point x="431" y="750"/>
      <point x="225" y="750" type="curve"/>
    </contour>
  </outline>
</glyph>
<glyph name="uni0145" format="1">
  <unicode hex="0145"/>
  <advance width="735"/>
  <outline>
    <contour>
      <point x="30" y="700" type="line"/>
      <point x="270" y="700" type="line"/>
      <point x="500" y="240" type="line" smooth="yes"/>
      <point x="507" y="226"/>
      <point x="515" y="220"/>
      <point x="526" y="220" type="curve" smooth="yes"/>
      <point x="538" y="220"/>
      <point x="545" y="227"/>
      <point x="545" y="237" type="curve" smooth="yes"/>
      <point x="545" y="240"/>
      <point x="544" y="243"/>
      <point x="543" y="245" type="curve"/>
      <point x="558" y="254"/>
      <point x="577" y="260"/>
      <point x="598" y="260" type="curve" smooth="yes"/>
      <point x="664" y="260"/>
      <point x="715" y="201"/>
      <point x="715" y="127" type="curve" smooth="yes"/>
      <point x="715" y="42"/>
      <point x="649" y="-18"/>
      <point x="554" y="-18" type="curve" smooth="yes"/>
      <point x="467" y="-18"/>
      <point x="404" y="30"/>
      <point x="354" y="133" type="curve" smooth="yes"/>
      <point x="226" y="397" type="line"/>
      <point x="226" y="220" type="line" smooth="yes"/>
      <point x="226" y="190"/>
      <point x="246" y="170"/>
      <point x="276" y="170" type="curve" smooth="yes"/>
      <point x="282" y="170" type="line"/>
      <point x="282" y="0" type="line"/>
      <point x="30" y="0" type="line"/>
      <point x="30" y="170" type="line"/>
      <point x="36" y="170" type="line" smooth="yes"/>
      <point x="66" y="170"/>
      <point x="86" y="190"/>
      <point x="86" y="220" type="curve" smooth="yes"/>
      <point x="86" y="480" type="line" smooth="yes"/>
      <point x="86" y="510"/>
      <point x="66" y="530"/>
      <point x="36" y="530" type="curve" smooth="yes"/>
      <point x="30" y="530" type="line"/>
    </contour>
    <contour>
      <point x="452" y="700" type="line"/>
      <point x="704" y="700" type="line"/>
      <point x="704" y="530" type="line"/>
      <point x="698" y="530" type="line" smooth="yes"/>
      <point x="668" y="530"/>
      <point x="648" y="510"/>
      <point x="648" y="480" type="curve" smooth="yes"/>
      <point x="648" y="351" type="line"/>
      <point x="508" y="351" type="line"/>
      <point x="508" y="480" type="line" smooth="yes"/>
      <point x="508" y="510"/>
      <point x="488" y="530"/>
      <point x="458" y="530" type="curve" smooth="yes"/>
      <point x="452" y="530" type="line"/>
    </contour>
    <contour>
      <point x="198" y="-281" type="line"/>
      <point x="282" y="-281"/>
      <point x="339" y="-256"/>
      <point x="339" y="-219" type="curve" smooth="yes"/>
      <point x="339" y="-202"/>
      <point x="326" y="-190"/>
      <point x="309" y="-190" type="curve" smooth="yes"/>
      <point x="303" y="-190"/>
      <point x="298" y="-192"/>
      <point x="293" y="-197" type="curve"/>
      <point x="279" y="-184"/>
      <point x="271" y="-166"/>
      <point x="271" y="-147" type="curve" smooth="yes"/>
      <point x="271" y="-94"/>
      <point x="324" y="-50"/>
      <point x="392" y="-50" type="curve" smooth="yes"/>
      <point x="464" y="-50"/>
      <point x="515" y="-100"/>
      <point x="516" y="-176" type="curve" smooth="yes"/>
      <point x="518" y="-292"/>
      <point x="404" y="-356"/>
      <point x="198" y="-356" type="curve"/>
    </contour>
  </outline>
</glyph>
<glyph name="uni0146" format="1">
  <unicode hex="0146"/>
  <advance width="735"/>
  <outline>
    <contour>
      <point x="36" y="170" type="line" smooth="yes"/>
      <point x="66" y="170"/>
      <point x="86" y="190"/>
      <point x="86" y="220" type="curve" smooth="yes"/>
      <point x="86" y="480" type="line" smooth="yes"/>
      <point x="86" y="510"/>
      <point x="66" y="530"/>
      <point x="36" y="530" type="curve" smooth="yes"/>
      <point x="30" y="530" type="line"/>
      <point x="30" y="700" type="line"/>
      <point x="270" y="700" type="line"/>
      <point x="500" y="240" type="line" smooth="yes"/>
      <point x="507" y="226"/>
      <point x="515" y="220"/>
      <point x="526" y="220" type="curve" smooth="yes"/>
      <point x="538" y="220"/>
      <point x="545" y="227"/>
      <point x="545" y="237" type="curve" smooth="yes"/>
      <point x="545" y="240"/>
      <point x="544" y="243"/>
      <point x="543" y="245" type="curve"/>
      <point x="558" y="254"/>
      <point x="577" y="260"/>
      <point x="598" y="260" type="curve" smooth="yes"/>
      <point x="664" y="260"/>
      <point x="715" y="201"/>
      <point x="715" y="127" type="curve" smooth="yes"/>
      <point x="715" y="42"/>
      <point x="649" y="-18"/>
      <point x="554" y="-18" type="curve" smooth="yes"/>
      <point x="467" y="-18"/>
      <point x="404" y="30"/>
      <point x="354" y="133" type="curve" smooth="yes"/>
      <point x="226" y="397" type="line"/>
      <point x="226" y="220" type="line" smooth="yes"/>
      <point x="226" y="190"/>
      <point x="246" y="170"/>
      <point x="276" y="170" type="curve" smooth="yes"/>
      <point x="282" y="170" type="line"/>
      <point x="282" y="0" type="line"/>
      <point x="30" y="0" type="line"/>
      <point x="30" y="170" type="line"/>
    </contour>
    <contour>
      <point x="182" y="-356" type="curve"/>
      <point x="182" y="-281" type="line"/>
      <point x="266" y="-281"/>
      <point x="323" y="-256"/>
      <point x="323" y="-219" type="curve" smooth="yes"/>
      <point x="323" y="-202"/>
      <point x="310" y="-190"/>
      <point x="293" y="-190" type="curve" smooth="yes"/>
      <point x="287" y="-190"/>
      <point x="282" y="-192"/>
      <point x="277" y="-197" type="curve"/>
      <point x="263" y="-184"/>
      <point x="255" y="-166"/>
      <point x="255" y="-147" type="curve" smooth="yes"/>
      <point x="255" y="-94"/>
      <point x="308" y="-50"/>
      <point x="376" y="-50" type="curve" smooth="yes"/>
      <point x="448" y="-50"/>
      <point x="499" y="-100"/>
      <point x="500" y="-176" type="curve" smooth="yes"/>
      <point x="502" y="-292"/>
      <point x="388" y="-356"/>
    </contour>
    <contour>
      <point x="452" y="530" type="line"/>
      <point x="452" y="700" type="line"/>
      <point x="704" y="700" type="line"/>
      <point x="704" y="530" type="line"/>
      <point x="698" y="530" type="line" smooth="yes"/>
      <point x="668" y="530"/>
      <point x="648" y="510"/>
      <point x="648" y="480" type="curve" smooth="yes"/>
      <point x="648" y="351" type="line"/>
      <point x="508" y="351" type="line"/>
      <point x="508" y="480" type="line" smooth="yes"/>
      <point x="508" y="510"/>
      <point x="488" y="530"/>
      <point x="458" y="530" type="curve" smooth="yes"/>
    </contour>
  </outline>
</glyph>
<glyph name="napostrophe" format="1">
  <unicode hex="0149"/>
  <advance width="735"/>
  <outline>
    <contour>
      <point x="30" y="700" type="line"/>
      <point x="270" y="700" type="line"/>
      <point x="500" y="240" type="line" smooth="yes"/>
      <point x="507" y="226"/>
      <point x="515" y="220"/>
      <point x="526" y="220" type="curve" smooth="yes"/>
      <point x="538" y="220"/>
      <point x="545" y="227"/>
      <point x="545" y="237" type="curve" smooth="yes"/>
      <point x="545" y="240"/>
      <point x="544" y="243"/>
      <point x="543" y="245" type="curve"/>
      <point x="558" y="254"/>
      <point x="577" y="260"/>
      <point x="598" y="260" type="curve" smooth="yes"/>
      <point x="664" y="260"/>
      <point x="715" y="201"/>
      <point x="715" y="127" type="curve" smooth="yes"/>
      <point x="715" y="42"/>
      <point x="649" y="-18"/>
      <point x="554" y="-18" type="curve" smooth="yes"/>
      <point x="467" y="-18"/>
      <point x="404" y="30"/>
      <point x="354" y="133" type="curve" smooth="yes"/>
      <point x="226" y="397" type="line"/>
      <point x="226" y="220" type="line" smooth="yes"/>
      <point x="226" y="190"/>
      <point x="246" y="170"/>
      <point x="276" y="170" type="curve" smooth="yes"/>
      <point x="282" y="170" type="line"/>
      <point x="282" y="0" type="line"/>
      <point x="30" y="0" type="line"/>
      <point x="30" y="170" type="line"/>
      <point x="36" y="170" type="line" smooth="yes"/>
      <point x="66" y="170"/>
      <point x="86" y="190"/>
      <point x="86" y="220" type="curve" smooth="yes"/>
      <point x="86" y="480" type="line" smooth="yes"/>
      <point x="86" y="510"/>
      <point x="66" y="530"/>
      <point x="36" y="530" type="curve" smooth="yes"/>
      <point x="30" y="530" type="line"/>
    </contour>
    <contour>
      <point x="452" y="700" type="line"/>
      <point x="704" y="700" type="line"/>
      <point x="704" y="530" type="line"/>
      <point x="698" y="530" type="line" smooth="yes"/>
      <point x="668" y="530"/>
      <point x="648" y="510"/>
      <point x="648" y="480" type="curve" smooth="yes"/>
      <point x="648" y="351" type="line"/>
      <point x="508" y="351" type="line"/>
      <point x="508" y="480" type="line" smooth="yes"/>
      <point x="508" y="510"/>
      <point x="488" y="530"/>
      <point x="458" y="530" type="curve" smooth="yes"/>
      <point x="452" y="530" type="line"/>
    </contour>
    <contour>
      <point x="137" y="750" type="line"/>
      <point x="147" y="765"/>
      <point x="177" y="810"/>
      <point x="177" y="872" type="curve" smooth="yes"/>
      <point x="177" y="911"/>
      <point x="165" y="932"/>
      <point x="143" y="932" type="curve" smooth="yes"/>
      <point x="129" y="932"/>
      <point x="117" y="923"/>
      <point x="108" y="906" type="curve"/>
      <point x="68" y="921"/>
      <point x="50" y="956"/>
      <point x="50" y="992" type="curve" smooth="yes"/>
      <point x="50" y="1052"/>
      <point x="100" y="1099"/>
      <point x="178" y="1099" type="curve" smooth="yes"/>
      <point x="278" y="1099"/>
      <point x="323" y="1021"/>
      <point x="323" y="932" type="curve" smooth="yes"/>
      <point x="323" y="863"/>
      <point x="296" y="820"/>
      <point x="243" y="750" type="curve"/>
    </contour>
  </outline>
</glyph>
<glyph name="Ohungarumlaut" format="1">
  <unicode hex="0150"/>
  <advance width="676"/>
  <outline>
    <contour>
      <point x="264" y="466" type="line"/>
      <point x="274" y="520"/>
      <point x="305" y="555"/>
      <point x="356" y="555" type="curve" smooth="yes"/>
      <point x="398" y="555"/>
      <point x="441" y="532"/>
      <point x="441" y="484" type="curve" smooth="yes"/>
      <point x="441" y="462"/>
      <point x="432" y="444"/>
      <point x="417" y="444" type="curve" smooth="yes"/>
      <point x="411" y="444"/>
      <point x="406" y="446"/>
      <point x="403" y="449" type="curve"/>
      <point x="387" y="429"/>
      <point x="380" y="405"/>
      <point x="380" y="380" type="curve" smooth="yes"/>
      <point x="380" y="315"/>
      <point x="430" y="272"/>
      <point x="504" y="272" type="curve" smooth="yes"/>
      <point x="596" y="272"/>
      <point x="656" y="339"/>
      <point x="656" y="441" type="curve" smooth="yes"/>
      <point x="656" y="581"/>
      <point x="542" y="718"/>
      <point x="341" y="718" type="curve" smooth="yes"/>
      <point x="165" y="718"/>
      <point x="49" y="629"/>
      <point x="31" y="466" type="curve"/>
    </contour>
    <contour>
      <point x="412" y="234" type="line"/>
      <point x="402" y="180"/>
      <point x="371" y="145"/>
      <point x="320" y="145" type="curve" smooth="yes"/>
      <point x="278" y="145"/>
      <point x="235" y="168"/>
      <point x="235" y="216" type="curve" smooth="yes"/>
      <point x="235" y="238"/>
      <point x="244" y="256"/>
      <point x="259" y="256" type="curve" smooth="yes"/>
      <point x="265" y="256"/>
      <point x="270" y="254"/>
      <point x="273" y="251" type="curve"/>
      <point x="289" y="271"/>
      <point x="296" y="295"/>
      <point x="296" y="320" type="curve" smooth="yes"/>
      <point x="296" y="385"/>
      <point x="246" y="428"/>
      <point x="172" y="428" type="curve" smooth="yes"/>
      <point x="80" y="428"/>
      <point x="20" y="361"/>
      <point x="20" y="259" type="curve" smooth="yes"/>
      <point x="20" y="119"/>
      <point x="134" y="-18"/>
      <point x="335" y="-18" type="curve" smooth="yes"/>
      <point x="511" y="-18"/>
      <point x="627" y="71"/>
      <point x="645" y="234" type="curve"/>
    </contour>
    <contour>
      <point x="353" y="825" type="curve"/>
      <point x="353" y="750" type="line"/>
      <point x="519" y="750"/>
      <point x="631" y="820"/>
      <point x="631" y="946" type="curve" smooth="yes"/>
      <point x="631" y="1030"/>
      <point x="579" y="1085"/>
      <point x="505" y="1085" type="curve" smooth="yes"/>
      <point x="439" y="1085"/>
      <point x="386" y="1041"/>
      <point x="386" y="988" type="curve" smooth="yes"/>
      <point x="386" y="969"/>
      <point x="394" y="951"/>
      <point x="408" y="938" type="curve"/>
      <point x="413" y="943"/>
      <point x="418" y="945"/>
      <point x="424" y="945" type="curve" smooth="yes"/>
      <point x="441" y="945"/>
      <point x="454" y="929"/>
      <point x="454" y="906" type="curve" smooth="yes"/>
      <point x="454" y="859"/>
      <point x="397" y="825"/>
    </contour>
    <contour>
      <point x="76" y="825" type="curve"/>
      <point x="76" y="750" type="line"/>
      <point x="242" y="750"/>
      <point x="354" y="820"/>
      <point x="354" y="946" type="curve" smooth="yes"/>
      <point x="354" y="1030"/>
      <point x="302" y="1085"/>
      <point x="228" y="1085" type="curve" smooth="yes"/>
      <point x="162" y="1085"/>
      <point x="109" y="1041"/>
      <point x="109" y="988" type="curve" smooth="yes"/>
      <point x="109" y="969"/>
      <point x="117" y="951"/>
      <point x="131" y="938" type="curve"/>
      <point x="136" y="943"/>
      <point x="141" y="945"/>
      <point x="147" y="945" type="curve" smooth="yes"/>
      <point x="164" y="945"/>
      <point x="177" y="929"/>
      <point x="177" y="906" type="curve" smooth="yes"/>
      <point x="177" y="859"/>
      <point x="120" y="825"/>
    </contour>
    <contour>
      <point x="335" y="750" type="move" name="top"/>
    </contour>
  </outline>
</glyph>
<glyph name="Racute" format="1">
  <unicode hex="0154"/>
  <advance width="751"/>
  <outline>
    <contour>
      <point x="30" y="487" type="curve" smooth="yes"/>
      <point x="30" y="392"/>
      <point x="100" y="330"/>
      <point x="181" y="330" type="curve" smooth="yes"/>
      <point x="251" y="330"/>
      <point x="293" y="376"/>
      <point x="293" y="428" type="curve" smooth="yes"/>
      <point x="293" y="448"/>
      <point x="285" y="466"/>
      <point x="274" y="480" type="curve"/>
      <point x="261" y="470"/>
      <point x="242" y="484"/>
      <point x="242" y="504" type="curve" smooth="yes"/>
      <point x="242" y="533"/>
      <point x="279" y="556"/>
      <point x="325" y="556" type="curve" smooth="yes"/>
      <point x="383" y="556"/>
      <point x="426" y="518"/>
      <point x="426" y="469" type="curve" smooth="yes"/>
      <point x="426" y="419"/>
      <point x="383" y="374"/>
      <point x="323" y="374" type="curve"/>
      <point x="323" y="325" type="line" smooth="yes"/>
      <point x="323" y="320"/>
      <point x="323" y="316"/>
      <point x="323" y="311" type="curve"/>
      <point x="328" y="118"/>
      <point x="426" y="-18"/>
      <point x="564" y="-18" type="curve" smooth="yes"/>
      <point x="663" y="-18"/>
      <point x="741" y="53"/>
      <point x="741" y="147" type="curve" smooth="yes"/>
      <point x="741" y="226"/>
      <point x="686" y="291"/>
      <point x="608" y="291" type="curve" smooth="yes"/>
      <point x="572" y="291"/>
      <point x="539" y="277"/>
      <point x="509" y="249" type="curve"/>
      <point x="518" y="238"/>
      <point x="521" y="230"/>
      <point x="521" y="223" type="curve" smooth="yes"/>
      <point x="521" y="211"/>
      <point x="510" y="203"/>
      <point x="493" y="203" type="curve" smooth="yes"/>
      <point x="452" y="203"/>
      <point x="421" y="250"/>
      <point x="419" y="318" type="curve"/>
      <point x="557" y="337"/>
      <point x="644" y="402"/>
      <point x="644" y="499" type="curve" smooth="yes"/>
      <point x="644" y="621"/>
      <point x="508" y="718"/>
      <point x="334" y="718" type="curve" smooth="yes"/>
      <point x="160" y="718"/>
      <point x="30" y="617"/>
    </contour>
    <contour>
      <point x="91" y="220" type="line" smooth="yes"/>
      <point x="91" y="190"/>
      <point x="71" y="170"/>
      <point x="41" y="170" type="curve" smooth="yes"/>
      <point x="35" y="170" type="line"/>
      <point x="35" y="0" type="line"/>
      <point x="281" y="0" type="line"/>
      <point x="281" y="301" type="line"/>
      <point x="91" y="301" type="line"/>
    </contour>
    <contour>
      <point x="204" y="825" type="curve"/>
      <point x="204" y="750" type="line"/>
      <point x="410" y="750"/>
      <point x="524" y="820"/>
      <point x="522" y="946" type="curve" smooth="yes"/>
      <point x="521" y="1030"/>
      <point x="470" y="1085"/>
      <point x="396" y="1085" type="curve" smooth="yes"/>
      <point x="330" y="1085"/>
      <point x="277" y="1041"/>
      <point x="277" y="988" type="curve" smooth="yes"/>
      <point x="277" y="969"/>
      <point x="285" y="951"/>
      <point x="299" y="938" type="curve"/>
      <point x="304" y="943"/>
      <point x="309" y="945"/>
      <point x="315" y="945" type="curve" smooth="yes"/>
      <point x="332" y="945"/>
      <point x="345" y="928"/>
      <point x="345" y="905" type="curve" smooth="yes"/>
      <point x="345" y="858"/>
      <point x="288" y="825"/>
    </contour>
  </outline>
</glyph>
<glyph name="Tcaron" format="1">
  <unicode hex="0164"/>
  <advance width="600"/>
  <outline>
    <contour>
      <point x="10" y="700" type="line"/>
      <point x="370" y="700" type="line" smooth="yes"/>
      <point x="385" y="700"/>
      <point x="391" y="704"/>
      <point x="391" y="714" type="curve" smooth="yes"/>
      <point x="391" y="721"/>
      <point x="386" y="727"/>
      <point x="381" y="732" type="curve"/>
      <point x="414" y="765"/>
      <point x="445" y="781"/>
      <point x="480" y="781" type="curve" smooth="yes"/>
      <point x="546" y="781"/>
      <point x="590" y="722"/>
      <point x="590" y="657" type="curve" smooth="yes"/>
      <point x="590" y="583"/>
      <point x="534" y="530"/>
      <point x="456" y="530" type="curve" smooth="yes"/>
      <point x="180" y="530" type="line" smooth="yes"/>
      <point x="150" y="530"/>
      <point x="130" y="510"/>
      <point x="130" y="480" type="curve" smooth="yes"/>
      <point x="130" y="439" type="line"/>
      <point x="10" y="439" type="line"/>
    </contour>
    <contour>
      <point x="142" y="0" type="line"/>
      <point x="142" y="170" type="line"/>
      <point x="148" y="170" type="line" smooth="yes"/>
      <point x="178" y="170"/>
      <point x="198" y="190"/>
      <point x="198" y="220" type="curve" smooth="yes"/>
      <point x="198" y="470" type="line"/>
      <point x="398" y="470" type="line"/>
      <point x="398" y="220" type="line" smooth="yes"/>
      <point x="398" y="190"/>
      <point x="418" y="170"/>
      <point x="448" y="170" type="curve" smooth="yes"/>
      <point x="454" y="170" type="line"/>
      <point x="454" y="0" type="line"/>
    </contour>
    <contour>
      <point x="146" y="1079" type="curve" smooth="yes"/>
      <point x="195" y="1079"/>
      <point x="233" y="1048"/>
      <point x="233" y="1011" type="curve" smooth="yes"/>
      <point x="233" y="999"/>
      <point x="230" y="985"/>
      <point x="223" y="972" type="curve"/>
      <point x="219" y="975"/>
      <point x="216" y="976"/>
      <point x="212" y="976" type="curve" smooth="yes"/>
      <point x="202" y="976"/>
      <point x="194" y="969"/>
      <point x="194" y="959" type="curve" smooth="yes"/>
      <point x="194" y="937"/>
      <point x="230" y="905"/>
      <point x="294" y="875" type="curve"/>
      <point x="358" y="905"/>
      <point x="394" y="937"/>
      <point x="394" y="959" type="curve" smooth="yes"/>
      <point x="394" y="969"/>
      <point x="386" y="976"/>
      <point x="376" y="976" type="curve" smooth="yes"/>
      <point x="372" y="976"/>
      <point x="369" y="975"/>
      <point x="365" y="972" type="curve"/>
      <point x="358" y="985"/>
      <point x="355" y="999"/>
      <point x="355" y="1011" type="curve" smooth="yes"/>
      <point x="355" y="1048"/>
      <point x="393" y="1079"/>
      <point x="442" y="1079" type="curve" smooth="yes"/>
      <point x="504" y="1079"/>
      <point x="540" y="1028"/>
      <point x="540" y="967" type="curve" smooth="yes"/>
      <point x="540" y="843"/>
      <point x="390" y="790"/>
      <point x="294" y="748" type="curve"/>
      <point x="198" y="790"/>
      <point x="48" y="843"/>
      <point x="48" y="967" type="curve" smooth="yes"/>
      <point x="48" y="1028"/>
      <point x="84" y="1079"/>
    </contour>
  </outline>
</glyph>
<glyph name="Utilde" format="1">
  <unicode hex="0168"/>
  <advance width="709"/>
  <outline>
    <contour>
      <point x="22" y="530" type="line"/>
      <point x="28" y="530" type="line" smooth="yes"/>
      <point x="58" y="530"/>
      <point x="78" y="510"/>
      <point x="78" y="480" type="curve" smooth="yes"/>
      <point x="78" y="259" type="line" smooth="yes"/>
      <point x="78" y="84"/>
      <point x="189" y="-18"/>
      <point x="362" y="-18" type="curve" smooth="yes"/>
      <point x="537" y="-18"/>
      <point x="646" y="87"/>
      <point x="646" y="237" type="curve" smooth="yes"/>
      <point x="646" y="333"/>
      <point x="602" y="392"/>
      <point x="532" y="392" type="curve" smooth="yes"/>
      <point x="481" y="392"/>
      <point x="445" y="360"/>
      <point x="445" y="317" type="curve" smooth="yes"/>
      <point x="445" y="301"/>
      <point x="450" y="286"/>
      <point x="461" y="268" type="curve"/>
      <point x="465" y="271"/>
      <point x="469" y="273"/>
      <point x="474" y="273" type="curve" smooth="yes"/>
      <point x="485" y="273"/>
      <point x="489" y="262"/>
      <point x="489" y="244" type="curve" smooth="yes"/>
      <point x="489" y="186"/>
      <point x="447" y="145"/>
      <point x="385" y="145" type="curve" smooth="yes"/>
      <point x="318" y="145"/>
      <point x="278" y="194"/>
      <point x="278" y="279" type="curve" smooth="yes"/>
      <point x="278" y="480" type="line" smooth="yes"/>
      <point x="278" y="510"/>
      <point x="298" y="530"/>
      <point x="328" y="530" type="curve" smooth="yes"/>
      <point x="334" y="530" type="line"/>
      <point x="334" y="700" type="line"/>
      <point x="22" y="700" type="line"/>
    </contour>
    <contour>
      <point x="435" y="530" type="line"/>
      <point x="441" y="530" type="line" smooth="yes"/>
      <point x="471" y="530"/>
      <point x="491" y="510"/>
      <point x="491" y="480" type="curve" smooth="yes"/>
      <point x="491" y="431" type="line"/>
      <point x="631" y="431" type="line"/>
      <point x="631" y="480" type="line" smooth="yes"/>
      <point x="631" y="510"/>
      <point x="651" y="530"/>
      <point x="681" y="530" type="curve" smooth="yes"/>
      <point x="687" y="530" type="line"/>
      <point x="687" y="700" type="line"/>
      <point x="435" y="700" type="line"/>
    </contour>
    <contour>
      <point x="221" y="1013" type="curve" smooth="yes"/>
      <point x="134" y="1013"/>
      <point x="64" y="947"/>
      <point x="64" y="864" type="curve" smooth="yes"/>
      <point x="64" y="798"/>
      <point x="109" y="750"/>
      <point x="165" y="750" type="curve" smooth="yes"/>
      <point x="199" y="750"/>
      <point x="231" y="768"/>
      <point x="245" y="808" type="curve"/>
      <point x="228" y="814"/>
      <point x="223" y="823"/>
      <point x="223" y="831" type="curve" smooth="yes"/>
      <point x="223" y="847"/>
      <point x="240" y="857"/>
      <point x="263" y="857" type="curve" smooth="yes"/>
      <point x="292" y="857"/>
      <point x="317" y="841"/>
      <point x="339" y="824" type="curve" smooth="yes"/>
      <point x="390" y="784"/>
      <point x="437" y="766"/>
      <point x="485" y="766" type="curve" smooth="yes"/>
      <point x="575" y="766"/>
      <point x="645" y="830"/>
      <point x="645" y="912" type="curve" smooth="yes"/>
      <point x="645" y="977"/>
      <point x="600" y="1024"/>
      <point x="545" y="1024" type="curve" smooth="yes"/>
      <point x="511" y="1024"/>
      <point x="479" y="1006"/>
      <point x="465" y="966" type="curve"/>
      <point x="482" y="960"/>
      <point x="487" y="951"/>
      <point x="487" y="942" type="curve" smooth="yes"/>
      <point x="487" y="926"/>
      <point x="471" y="917"/>
      <point x="450" y="917" type="curve" smooth="yes"/>
      <point x="426" y="917"/>
      <point x="403" y="929"/>
      <point x="360" y="957" type="curve" smooth="yes"/>
      <point x="296" y="998"/>
      <point x="263" y="1013"/>
    </contour>
  </outline>
</glyph>
<glyph name="utilde" format="1">
  <unicode hex="0169"/>
  <advance width="709"/>
  <outline>
    <contour>
      <point x="22" y="700" type="line"/>
      <point x="22" y="530" type="line"/>
      <point x="28" y="530" type="line" smooth="yes"/>
      <point x="58" y="530"/>
      <point x="78" y="510"/>
      <point x="78" y="480" type="curve" smooth="yes"/>
      <point x="78" y="437" type="line"/>
      <point x="45" y="410"/>
      <point x="25" y="370"/>
      <point x="25" y="325" type="curve" smooth="yes"/>
      <point x="25" y="279"/>
      <point x="47" y="241"/>
      <point x="80" y="223" type="curve"/>
      <point x="94" y="70"/>
      <point x="201" y="-18"/>
      <point x="362" y="-18" type="curve" smooth="yes"/>
      <point x="537" y="-18"/>
      <point x="646" y="87"/>
      <point x="646" y="237" type="curve" smooth="yes"/>
      <point x="646" y="292"/>
      <point x="631" y="335"/>
      <point x="606" y="362" type="curve"/>
      <point x="606" y="388"/>
      <point x="604" y="408"/>
      <point x="592" y="431" type="curve"/>
      <point x="631" y="431" type="line"/>
      <point x="631" y="480" type="line" smooth="yes"/>
      <point x="631" y="510"/>
      <point x="651" y="530"/>
      <point x="681" y="530" type="curve" smooth="yes"/>
      <point x="687" y="530" type="line"/>
      <point x="687" y="700" type="line"/>
      <point x="435" y="700" type="line"/>
      <point x="435" y="530" type="line"/>
      <point x="441" y="530" type="line" smooth="yes"/>
      <point x="470" y="530"/>
      <point x="489" y="512"/>
      <point x="491" y="484" type="curve"/>
      <point x="463" y="479"/>
      <point x="438" y="461"/>
      <point x="426" y="427" type="curve"/>
      <point x="443" y="421"/>
      <point x="448" y="412"/>
      <point x="448" y="403" type="curve" smooth="yes"/>
      <point x="448" y="387"/>
      <point x="432" y="378"/>
      <point x="411" y="378" type="curve" smooth="yes"/>
      <point x="387" y="378"/>
      <point x="364" y="390"/>
      <point x="321" y="418" type="curve" smooth="yes"/>
      <point x="305" y="428"/>
      <point x="291" y="437"/>
      <point x="278" y="444" type="curve"/>
      <point x="278" y="480" type="line" smooth="yes"/>
      <point x="278" y="510"/>
      <point x="298" y="530"/>
      <point x="328" y="530" type="curve" smooth="yes"/>
      <point x="334" y="530" type="line"/>
      <point x="334" y="700" type="line"/>
    </contour>
    <contour>
      <point x="300" y="285" type="curve" smooth="yes"/>
      <point x="351" y="245"/>
      <point x="398" y="227"/>
      <point x="446" y="227" type="curve" smooth="yes"/>
      <point x="461" y="227"/>
      <point x="475" y="229"/>
      <point x="488" y="232" type="curve"/>
      <point x="483" y="180"/>
      <point x="443" y="145"/>
      <point x="385" y="145" type="curve" smooth="yes"/>
      <point x="318" y="145"/>
      <point x="278" y="194"/>
      <point x="278" y="279" type="curve" smooth="yes"/>
      <point x="278" y="300" type="line"/>
      <point x="286" y="296"/>
      <point x="293" y="290"/>
    </contour>
  </outline>
</glyph>
<glyph name="Ubreve" format="1">
  <unicode hex="016C"/>
  <advance width="709"/>
  <outline>
    <contour>
      <point x="22" y="530" type="line"/>
      <point x="28" y="530" type="line" smooth="yes"/>
      <point x="58" y="530"/>
      <point x="78" y="510"/>
      <point x="78" y="480" type="curve" smooth="yes"/>
      <point x="78" y="259" type="line" smooth="yes"/>
      <point x="78" y="84"/>
      <point x="189" y="-18"/>
      <point x="362" y="-18" type="curve" smooth="yes"/>
      <point x="537" y="-18"/>
      <point x="646" y="87"/>
      <point x="646" y="237" type="curve" smooth="yes"/>
      <point x="646" y="333"/>
      <point x="602" y="392"/>
      <point x="532" y="392" type="curve" smooth="yes"/>
      <point x="481" y="392"/>
      <point x="445" y="360"/>
      <point x="445" y="317" type="curve" smooth="yes"/>
      <point x="445" y="301"/>
      <point x="450" y="286"/>
      <point x="461" y="268" type="curve"/>
      <point x="465" y="271"/>
      <point x="469" y="273"/>
      <point x="474" y="273" type="curve" smooth="yes"/>
      <point x="485" y="273"/>
      <point x="489" y="262"/>
      <point x="489" y="244" type="curve" smooth="yes"/>
      <point x="489" y="186"/>
      <point x="447" y="145"/>
      <point x="385" y="145" type="curve" smooth="yes"/>
      <point x="318" y="145"/>
      <point x="278" y="194"/>
      <point x="278" y="279" type="curve" smooth="yes"/>
      <point x="278" y="480" type="line" smooth="yes"/>
      <point x="278" y="510"/>
      <point x="298" y="530"/>
      <point x="328" y="530" type="curve" smooth="yes"/>
      <point x="334" y="530" type="line"/>
      <point x="334" y="700" type="line"/>
      <point x="22" y="700" type="line"/>
    </contour>
    <contour>
      <point x="435" y="530" type="line"/>
      <point x="441" y="530" type="line" smooth="yes"/>
      <point x="471" y="530"/>
      <point x="491" y="510"/>
      <point x="491" y="480" type="curve" smooth="yes"/>
      <point x="491" y="431" type="line"/>
      <point x="631" y="431" type="line"/>
      <point x="631" y="480" type="line" smooth="yes"/>
      <point x="631" y="510"/>
      <point x="651" y="530"/>
      <point x="681" y="530" type="curve" smooth="yes"/>
      <point x="687" y="530" type="line"/>
      <point x="687" y="700" type="line"/>
      <point x="435" y="700" type="line"/>
    </contour>
    <contour>
      <point x="77" y="926" type="curve" smooth="yes"/>
      <point x="77" y="818"/>
      <point x="190" y="750"/>
      <point x="358" y="750" type="curve" smooth="yes"/>
      <point x="526" y="750"/>
      <point x="639" y="818"/>
      <point x="639" y="926" type="curve" smooth="yes"/>
      <point x="639" y="991"/>
      <point x="594" y="1038"/>
      <point x="539" y="1038" type="curve" smooth="yes"/>
      <point x="505" y="1038"/>
      <point x="473" y="1020"/>
      <point x="459" y="980" type="curve"/>
      <point x="476" y="974"/>
      <point x="481" y="965"/>
      <point x="481" y="956" type="curve" smooth="yes"/>
      <point x="481" y="936"/>
      <point x="438" y="901"/>
      <point x="358" y="901" type="curve" smooth="yes"/>
      <point x="278" y="901"/>
      <point x="235" y="936"/>
      <point x="235" y="956" type="curve" smooth="yes"/>
      <point x="235" y="965"/>
      <point x="240" y="974"/>
      <point x="257" y="980" type="curve"/>
      <point x="243" y="1020"/>
      <point x="211" y="1038"/>
      <point x="177" y="1038" type="curve" smooth="yes"/>
      <point x="122" y="1038"/>
      <point x="77" y="991"/>
    </contour>
  </outline>
</glyph>
<glyph name="Uring" format="1">
  <unicode hex="016E"/>
  <advance width="709"/>
  <outline>
    <contour>
      <point x="22" y="530" type="line"/>
      <point x="28" y="530" type="line" smooth="yes"/>
      <point x="58" y="530"/>
      <point x="78" y="510"/>
      <point x="78" y="480" type="curve" smooth="yes"/>
      <point x="78" y="259" type="line" smooth="yes"/>
      <point x="78" y="84"/>
      <point x="189" y="-18"/>
      <point x="362" y="-18" type="curve" smooth="yes"/>
      <point x="537" y="-18"/>
      <point x="646" y="87"/>
      <point x="646" y="237" type="curve" smooth="yes"/>
      <point x="646" y="333"/>
      <point x="602" y="392"/>
      <point x="532" y="392" type="curve" smooth="yes"/>
      <point x="481" y="392"/>
      <point x="445" y="360"/>
      <point x="445" y="317" type="curve" smooth="yes"/>
      <point x="445" y="301"/>
      <point x="450" y="286"/>
      <point x="461" y="268" type="curve"/>
      <point x="465" y="271"/>
      <point x="469" y="273"/>
      <point x="474" y="273" type="curve" smooth="yes"/>
      <point x="485" y="273"/>
      <point x="489" y="262"/>
      <point x="489" y="244" type="curve" smooth="yes"/>
      <point x="489" y="186"/>
      <point x="447" y="145"/>
      <point x="385" y="145" type="curve" smooth="yes"/>
      <point x="318" y="145"/>
      <point x="278" y="194"/>
      <point x="278" y="279" type="curve" smooth="yes"/>
      <point x="278" y="480" type="line" smooth="yes"/>
      <point x="278" y="510"/>
      <point x="298" y="530"/>
      <point x="328" y="530" type="curve" smooth="yes"/>
      <point x="334" y="530" type="line"/>
      <point x="334" y="700" type="line"/>
      <point x="22" y="700" type="line"/>
    </contour>
    <contour>
      <point x="435" y="530" type="line"/>
      <point x="441" y="530" type="line" smooth="yes"/>
      <point x="471" y="530"/>
      <point x="491" y="510"/>
      <point x="491" y="480" type="curve" smooth="yes"/>
      <point x="491" y="431" type="line"/>
      <point x="631" y="431" type="line"/>
      <point x="631" y="480" type="line" smooth="yes"/>
      <point x="631" y="510"/>
      <point x="651" y="530"/>
      <point x="681" y="530" type="curve" smooth="yes"/>
      <point x="687" y="530" type="line"/>
      <point x="687" y="700" type="line"/>
      <point x="435" y="700" type="line"/>
    </contour>
    <contour>
      <point x="384" y="1083" type="curve"/>
      <point x="384" y="974" type="line"/>
      <point x="408" y="965"/>
      <point x="423" y="943"/>
      <point x="423" y="915" type="curve" smooth="yes"/>
      <point x="423" y="887"/>
      <point x="408" y="864"/>
      <point x="384" y="856" type="curve"/>
      <point x="384" y="751" type="line"/>
      <point x="473" y="760"/>
      <point x="533" y="825"/>
      <point x="533" y="917" type="curve" smooth="yes"/>
      <point x="533" y="1009"/>
      <point x="473" y="1073"/>
    </contour>
    <contour>
      <point x="187" y="917" type="curve" smooth="yes"/>
      <point x="187" y="825"/>
      <point x="244" y="762"/>
      <point x="334" y="751" type="curve"/>
      <point x="334" y="856" type="line"/>
      <point x="309" y="864"/>
      <point x="294" y="887"/>
      <point x="294" y="915" type="curve" smooth="yes"/>
      <point x="294" y="943"/>
      <point x="309" y="965"/>
      <point x="334" y="974" type="curve"/>
      <point x="334" y="1083" type="line"/>
      <point x="244" y="1072"/>
      <point x="187" y="1009"/>
    </contour>
  </outline>
</glyph>
<glyph name="uring" format="1">
  <unicode hex="016F"/>
  <advance width="753"/>
  <outline>
    <contour>
      <point x="66" y="530" type="line"/>
      <point x="72" y="530" type="line" smooth="yes"/>
      <point x="102" y="530"/>
      <point x="122" y="510"/>
      <point x="122" y="480" type="curve" smooth="yes"/>
      <point x="122" y="259" type="line" smooth="yes"/>
      <point x="122" y="84"/>
      <point x="233" y="-18"/>
      <point x="406" y="-18" type="curve" smooth="yes"/>
      <point x="581" y="-18"/>
      <point x="690" y="87"/>
      <point x="690" y="237" type="curve" smooth="yes"/>
      <point x="690" y="333"/>
      <point x="646" y="392"/>
      <point x="576" y="392" type="curve" smooth="yes"/>
      <point x="525" y="392"/>
      <point x="489" y="360"/>
      <point x="489" y="317" type="curve" smooth="yes"/>
      <point x="489" y="301"/>
      <point x="494" y="286"/>
      <point x="505" y="268" type="curve"/>
      <point x="509" y="271"/>
      <point x="513" y="273"/>
      <point x="518" y="273" type="curve" smooth="yes"/>
      <point x="529" y="273"/>
      <point x="533" y="262"/>
      <point x="533" y="244" type="curve" smooth="yes"/>
      <point x="533" y="186"/>
      <point x="491" y="145"/>
      <point x="429" y="145" type="curve" smooth="yes"/>
      <point x="362" y="145"/>
      <point x="322" y="194"/>
      <point x="322" y="279" type="curve" smooth="yes"/>
      <point x="322" y="480" type="line" smooth="yes"/>
      <point x="322" y="510"/>
      <point x="342" y="530"/>
      <point x="372" y="530" type="curve" smooth="yes"/>
      <point x="378" y="530" type="line"/>
      <point x="378" y="700" type="line"/>
      <point x="66" y="700" type="line"/>
    </contour>
    <contour>
      <point x="479" y="700" type="line"/>
      <point x="479" y="530" type="line"/>
      <point x="485" y="530" type="line" smooth="yes"/>
      <point x="515" y="530"/>
      <point x="535" y="510"/>
      <point x="535" y="480" type="curve" smooth="yes"/>
      <point x="535" y="431" type="line"/>
      <point x="675" y="431" type="line"/>
      <point x="675" y="480" type="line" smooth="yes"/>
      <point x="675" y="510"/>
      <point x="695" y="530"/>
      <point x="725" y="530" type="curve" smooth="yes"/>
      <point x="731" y="530" type="line"/>
      <point x="731" y="700" type="line"/>
    </contour>
    <contour>
      <point x="219" y="975" type="line"/>
      <point x="243" y="966"/>
      <point x="258" y="944"/>
      <point x="258" y="916" type="curve" smooth="yes"/>
      <point x="258" y="888"/>
      <point x="243" y="865"/>
      <point x="219" y="857" type="curve"/>
      <point x="219" y="752" type="line"/>
      <point x="308" y="761"/>
      <point x="368" y="826"/>
      <point x="368" y="918" type="curve" smooth="yes"/>
      <point x="368" y="1010"/>
      <point x="308" y="1074"/>
      <point x="219" y="1084" type="curve"/>
    </contour>
    <contour>
      <point x="169" y="752" type="curve"/>
      <point x="169" y="857" type="line"/>
      <point x="144" y="865"/>
      <point x="129" y="888"/>
      <point x="129" y="916" type="curve" smooth="yes"/>
      <point x="129" y="944"/>
      <point x="144" y="966"/>
      <point x="169" y="975" type="curve"/>
      <point x="169" y="1084" type="line"/>
      <point x="79" y="1073"/>
      <point x="22" y="1010"/>
      <point x="22" y="918" type="curve" smooth="yes"/>
      <point x="22" y="826"/>
      <point x="79" y="763"/>
    </contour>
  </outline>
</glyph>
<glyph name="Uhungarumlaut" format="1">
  <unicode hex="0170"/>
  <advance width="709"/>
  <outline>
    <contour>
      <point x="22" y="530" type="line"/>
      <point x="28" y="530" type="line" smooth="yes"/>
      <point x="58" y="530"/>
      <point x="78" y="510"/>
      <point x="78" y="480" type="curve" smooth="yes"/>
      <point x="78" y="259" type="line" smooth="yes"/>
      <point x="78" y="84"/>
      <point x="189" y="-18"/>
      <point x="362" y="-18" type="curve" smooth="yes"/>
      <point x="537" y="-18"/>
      <point x="646" y="87"/>
      <point x="646" y="237" type="curve" smooth="yes"/>
      <point x="646" y="333"/>
      <point x="602" y="392"/>
      <point x="532" y="392" type="curve" smooth="yes"/>
      <point x="481" y="392"/>
      <point x="445" y="360"/>
      <point x="445" y="317" type="curve" smooth="yes"/>
      <point x="445" y="301"/>
      <point x="450" y="286"/>
      <point x="461" y="268" type="curve"/>
      <point x="465" y="271"/>
      <point x="469" y="273"/>
      <point x="474" y="273" type="curve" smooth="yes"/>
      <point x="485" y="273"/>
      <point x="489" y="262"/>
      <point x="489" y="244" type="curve" smooth="yes"/>
      <point x="489" y="186"/>
      <point x="447" y="145"/>
      <point x="385" y="145" type="curve" smooth="yes"/>
      <point x="318" y="145"/>
      <point x="278" y="194"/>
      <point x="278" y="279" type="curve" smooth="yes"/>
      <point x="278" y="480" type="line" smooth="yes"/>
      <point x="278" y="510"/>
      <point x="298" y="530"/>
      <point x="328" y="530" type="curve" smooth="yes"/>
      <point x="334" y="530" type="line"/>
      <point x="334" y="700" type="line"/>
      <point x="22" y="700" type="line"/>
    </contour>
    <contour>
      <point x="435" y="530" type="line"/>
      <point x="441" y="530" type="line" smooth="yes"/>
      <point x="471" y="530"/>
      <point x="491" y="510"/>
      <point x="491" y="480" type="curve" smooth="yes"/>
      <point x="491" y="431" type="line"/>
      <point x="631" y="431" type="line"/>
      <point x="631" y="480" type="line" smooth="yes"/>
      <point x="631" y="510"/>
      <point x="651" y="530"/>
      <point x="681" y="530" type="curve" smooth="yes"/>
      <point x="687" y="530" type="line"/>
      <point x="687" y="700" type="line"/>
      <point x="435" y="700" type="line"/>
    </contour>
    <contour>
      <point x="372" y="825" type="curve"/>
      <point x="372" y="750" type="line"/>
      <point x="538" y="750"/>
      <point x="650" y="820"/>
      <point x="650" y="946" type="curve" smooth="yes"/>
      <point x="650" y="1030"/>
      <point x="598" y="1085"/>
      <point x="524" y="1085" type="curve" smooth="yes"/>
      <point x="458" y="1085"/>
      <point x="405" y="1041"/>
      <point x="405" y="988" type="curve" smooth="yes"/>
      <point x="405" y="969"/>
      <point x="413" y="951"/>
      <point x="427" y="938" type="curve"/>
      <point x="432" y="943"/>
      <point x="437" y="945"/>
      <point x="443" y="945" type="curve" smooth="yes"/>
      <point x="460" y="945"/>
      <point x="473" y="929"/>
      <point x="473" y="906" type="curve" smooth="yes"/>
      <point x="473" y="859"/>
      <point x="416" y="825"/>
    </contour>
    <contour>
      <point x="95" y="825" type="curve"/>
      <point x="95" y="750" type="line"/>
      <point x="261" y="750"/>
      <point x="373" y="820"/>
      <point x="373" y="946" type="curve" smooth="yes"/>
      <point x="373" y="1030"/>
      <point x="321" y="1085"/>
      <point x="247" y="1085" type="curve" smooth="yes"/>
      <point x="181" y="1085"/>
      <point x="128" y="1041"/>
      <point x="128" y="988" type="curve" smooth="yes"/>
      <point x="128" y="969"/>
      <point x="136" y="951"/>
      <point x="150" y="938" type="curve"/>
      <point x="155" y="943"/>
      <point x="160" y="945"/>
      <point x="166" y="945" type="curve" smooth="yes"/>
      <point x="183" y="945"/>
      <point x="196" y="929"/>
      <point x="196" y="906" type="curve" smooth="yes"/>
      <point x="196" y="859"/>
      <point x="139" y="825"/>
    </contour>
  </outline>
</glyph>
